<svg id="Layer_1" data-name="Layer 1" xmlns="http://www.w3.org/2000/svg" viewBox="0 0 284.59 115"><defs><style>.cls-1,.cls-2,.cls-3,.cls-4,.cls-5,.cls-6{fill:#f8f9fc;}.cls-2,.cls-3,.cls-4,.cls-5,.cls-6{stroke:#bbcedb;}.cls-2{stroke-miterlimit:10;}.cls-3{stroke-miterlimit:10;stroke-width:2px;}.cls-4{stroke-miterlimit:10;}.cls-5{stroke-miterlimit:10;}.cls-6{stroke-miterlimit:10;}.cls-7{fill:#58797f;}.cls-8{fill:none;}.cls-9{fill:#8ab6ae;}.cls-10{fill:#55747c;}.cls-11{isolation:isolate;}.cls-12{fill:#bbcedb;}</style></defs><polygon id="Path-726-Copy-88" class="cls-1" points="46.26 63.5 8.36 73.4 8.96 75.7 46.96 65.9 46.26 63.5"/><polygon id="Path-726-Copy-88-2" class="cls-1" points="131.39 58.49 115.69 97.3 118.09 97.69 133.79 58.9 131.39 58.49"/><polygon id="Path-726-Copy-76" class="cls-1" points="35.96 43.8 49.36 12.3 47.66 11.7 34.36 43.1 35.96 43.8"/><path class="cls-1" d="M74.06,31.6a2.58,2.58,0,0,1-.7,2.1l2,1.9c.2.1.3.3.4.4h0a3.55,3.55,0,0,1,1-.2,2.45,2.45,0,0,1,2.4,2.5,1.88,1.88,0,0,1-.2.8L96.06,56l.3-2.6Z"/><path class="cls-1" d="M66.56,29.1h.1l-1-.9a2.17,2.17,0,0,1-1.4-1.4L46.76,9.4l-.3,2.6,18.2,18A2.2,2.2,0,0,1,66.56,29.1Z"/><ellipse id="Oval-1-Copy-62" class="cls-2" cx="49.07" cy="11.84" rx="4.3" ry="4.7" transform="translate(11.51 45.56) rotate(-55.49)"/><polygon id="Path-726-Copy-76-2" class="cls-1" points="72.29 61.2 129.99 61.09 128.79 59.2 70.89 59.2 72.29 61.2"/><polygon id="Path-726-Copy-91" class="cls-1" points="89.36 77.2 113.56 99.5 114.66 98 90.56 75.6 89.36 77.2"/><polygon id="Path-726-Copy-103" class="cls-1" points="8.96 45 38.06 57.9 38.86 56.2 9.76 43.4 8.96 45"/><polygon id="Path-726-Copy-87" class="cls-1" points="12.76 47 44.66 46.8 43.96 45.1 12.06 45.3 12.76 47"/><polygon id="Path-726-Copy-76-3" class="cls-1" points="84.26 40.7 104.86 13.4 103.36 12.4 82.76 39.7 84.26 40.7"/><polygon id="Path-726-Copy-103-2" class="cls-1" points="19.56 104.1 43.36 83.1 42.66 82.1 18.76 103.1 19.56 104.1"/><polygon id="Path-726-Copy-76-4" class="cls-1" points="102.99 16.09 133.09 56.2 133.59 54.09 103.49 13.99 102.99 16.09"/><ellipse id="Oval-1-Copy-57" class="cls-3" cx="68.35" cy="63.01" rx="39" ry="42.5" transform="translate(4.86 130.91) rotate(-89.59)"/><ellipse id="Oval-1-Copy-62-2" class="cls-4" cx="19.62" cy="102.5" rx="2.5" ry="2.3" transform="translate(-75.72 60.08) rotate(-55.18)"/><ellipse id="Oval-1-Copy-73" class="cls-5" cx="10.64" cy="45.39" rx="4.5" ry="5" transform="translate(-34.99 54.97) rotate(-88.65)"/><ellipse id="Oval-1-Copy-73-2" class="cls-5" cx="103.27" cy="12.32" rx="4.5" ry="5" transform="translate(88.51 115.27) rotate(-88.65)"/><circle class="cls-6" cx="10.46" cy="75" r="6.6"/><circle class="cls-6" cx="115.36" cy="100.23" r="4.9"/><path class="cls-7" d="M45.66,73.9h0c.1.1.2.2.3.2V74C45.86,74.1,45.76,74,45.66,73.9Z"/><path class="cls-7" d="M83.56,44.8l.2-.2c.1.1.1.1.2.1C83.86,44.8,83.76,44.9,83.56,44.8Z"/><path class="cls-8" d="M76.26,52.1c-.1,0-.1-.1-.1-.2-.2.2-.5.4-.6.6a.1.1,0,0,1,.1.1h.1c0-.1.1-.1.2-.1l.1-.2h.3c.1,0,.2-.1.1-.2v-.2c0-.1,0-.1-.1-.2l-.1.1Z"/><path class="cls-8" d="M77,53.4v0l-.3.1h0c0,.1-.1.2-.2.3v-.3l-.2.1c0,.1-.1.2-.2.3-.1-.1,0-.1,0-.2v-.1c-.2.2-.4.3-.6.5h.1l.5-.2.9-.3c.1,0,.2.1.3.2s.1,0,.2.1h0c0-.3,0-.3-.1-.4v.2c-.2-.2.1-.5,0-.7h0v.4c0-.1-.2-.3-.2-.4A.43.43,0,0,1,77,53.4Z"/><path class="cls-8" d="M81.76,91.7c.1,0,.1,0,.2-.1h0Z"/><path class="cls-8" d="M84.06,92.1v.1h.2Z"/><path class="cls-8" d="M74.46,54.7h0s-.5.2-.3.3Z"/><path class="cls-8" d="M90.36,92.2V92a.1.1,0,0,0-.1-.1h-.1a.52.52,0,0,0-.2.4C90.06,92.1,90.26,92.2,90.36,92.2Z"/><path class="cls-8" d="M75.36,58.5h0a.1.1,0,0,0,.1.1v-.2Z"/><path class="cls-8" d="M89.56,64.9c-.1,0-.2,0-.2.2s.1.1.2.1a.1.1,0,0,1-.1.1c-.1,0-.1,0-.1-.1a.35.35,0,0,1-.1-.2.1.1,0,0,0-.1.1.6.6,0,0,0,.1.4c.1,0,.2-.2.3-.1h0a1.44,1.44,0,0,1,.2-.3C89.56,65.2,89.56,65,89.56,64.9Z"/><path class="cls-8" d="M74.56,59.4c.1.1.3,0,.4,0l.1-.1h0C74.86,59.3,74.66,59.2,74.56,59.4Z"/><path class="cls-8" d="M76.66,55.8v-.4l-.3.4Z"/><path class="cls-8" d="M91.56,82.6a1.38,1.38,0,0,1-.3-.4l-.1-.1v.1c.1.1.1.2.2.3s.3.4.2.6h0v-.5Z"/><path class="cls-8" d="M75.86,58.3l.1-.1h0l-.1.1Z"/><path class="cls-9" d="M76.66,53.6h-.1v.3C76.56,53.8,76.66,53.7,76.66,53.6Z"/><path class="cls-9" d="M77,53.4a.1.1,0,0,0-.1.1l.1.1Z"/><path class="cls-9" d="M76.16,54c.1-.1.1-.2.2-.3h-.2V54Z"/><path class="cls-9" d="M75.66,52.5a.1.1,0,0,1-.1-.1l-.1.1Z"/><path class="cls-9" d="M75.46,54.4l.2-.1h-.1Z"/><path class="cls-9" d="M76.26,52.1v-.3l-.1.1C76.16,52,76.16,52.1,76.26,52.1Z"/><path class="cls-9" d="M82.26,85.1c-.2.3-.4.2-.7.1V88a4.1,4.1,0,0,1-.1,1.1,3,3,0,0,1-.5,1.3l-.1.1c0-.2,0-.4-.2-.4l-.1-.4c-.1,0-.1,0-.1.1v1.3c0,.1,0,.2-.2.2,0-.1,0-.1-.1-.2H80c-.1,0-.2.1-.3.1,0-.2-.1-.3,0-.4-.3,0-.3-.2-.4-.4a.6.6,0,0,0-.1.4c0,.1.2.1.3.2s.1.2.1.3h0l-.2-.1v.2l-.3.1c-.2.1-.4.1-.6.2a1.69,1.69,0,0,1-1,.3c-.1,0-.1,0-.1.1s-.1.2-.1.3a2.35,2.35,0,0,1,.8-.2.52.52,0,0,0,.4-.2c.1-.1.2-.1.3-.2s.1-.1.2-.1h.4c.1.2.1.4.3.6l-.1-.6a.22.22,0,0,1,.2.2.6.6,0,0,0,.1.4c.1.1.1.1.2.1l-.1-.7c.2,0,0,.2.2.2l.1-.2c.2,0,.2,0,.2-.2s0-.2.2-.2v.2l.3.1.3.1c0,.1-.1.1-.2.1s-.3,0-.4.1l.8.1h0l-.2-.1v-.1c.1-.1.2-.2.3-.1h.6a.22.22,0,0,1,.2.2V92h-.2a.76.76,0,0,0,.5.2l.6.2h1.2c.1,0,.4-.1.6,0h.4c.3.1.7,0,1,.1h.1a.1.1,0,0,0-.1-.1,3.4,3.4,0,0,0-1-.1c-.1,0-.2,0-.2-.1l1,.2.1-.1-.1-.1a1.27,1.27,0,0,0-.6-.1c-.3,0-.6-.1-.9-.1a.91.91,0,0,1-.7-.3,1.38,1.38,0,0,1-.3-.4,3.1,3.1,0,0,1-.6-1.3c0-.1-.1-.3-.1-.4s-.1-.2,0-.3V85.7h-.3C82.46,85.6,82.56,85.5,82.26,85.1Zm-.5,6.6.1-.1h0A.1.1,0,0,1,81.76,91.7Zm2.3.4.1.1H84Z"/><path class="cls-9" d="M97.86,80.1a.35.35,0,0,0,.1-.2c0-.1-.2.1-.3.1v-.2a.37.37,0,0,0-.3.1c-.1.1-.1-.1-.1,0s-.3.1-.5.1h-.1l-.3.1-.1.1c-.1-.1-.3,0-.4,0l.4-.4h-.2c-.2.1-.4.3-.6.3s-.2.1-.3.2h-.4l-.2.1h0a.62.62,0,0,0,.3-.5c-.2,0-.2.3-.4.4a.3.3,0,0,0-.4,0c-.1.1.4.1-.4.2v-.2c0,.1-.1.2-.3.2.1-.2.4-.3.4-.5-.1,0-.1.1-.2.1a.1.1,0,0,0-.1.1.49.49,0,0,0-.3.1.37.37,0,0,1-.3.1.37.37,0,0,0,.1-.3v-.5c0-.1,0-.2.1-.2.1.2,0,.4.1.6l.1-.1v-.5l.2-.1a.6.6,0,0,0,.1.4l.2-.2c0-.1.1-.1.2-.1h.1c.1-.1.2-.1.3-.2s.1-.1,0-.2l-.1-.1-.2.1v-.1l-.3.1h0l.3-.3c-.1,0-.2,0-.2.1l-.5.3h-.5a.52.52,0,0,1,.2-.4c.1-.1-.1-.3,0-.4v.2h.1l.7-.7a.37.37,0,0,0,.3-.1c.1,0,.1-.1.2-.1h.1l-.2-.1-.1.5-.1-.1a.1.1,0,0,1-.1-.1c0-.1.1-.2.1-.3-.1.1-.2.1-.3.2l-.3.3c0,.1-.1.1-.2.1s.2-.1.2-.3l-.3.1a.19.19,0,0,0-.3,0c-.1.1-.1.1-.1.2l-.1.2c-.1-.2-.1-.1-.2-.1l-.2.1h0l.2-.2c-.2,0-.3.3-.5.3,0-.1.2-.2.1-.4a2.65,2.65,0,0,0-.6.5.37.37,0,0,0-.3-.1H91c-.1,0-.1,0-.2.1a.52.52,0,0,1-.4.2h-.2a.1.1,0,0,0-.1-.1h.1c.2,0,.3-.1.5-.2v-.1c-.1-.1-.3,0-.4,0a.64.64,0,0,1,0-.6c.1,0,.1.2.2.1l-.1-1c.2.1.2.2.2.3v.3c0,.1,0,0,.1.1h0V77h0a.1.1,0,0,0,.1.1c0,.1,0,.2.1.1l.1-.5.1-.1v.2c0,.1,0,.2.1.2.1-.3-.1-.6,0-.8a.22.22,0,0,1,.2.2v.3a.9.9,0,0,0,.1.5c.1-.2,0-.3.1-.5.1,0,.1.1.1.2v.8c0,.1.1.1.2,0a1.1,1.1,0,0,1,0-.8l.1.1a.6.6,0,0,1,.1.4v.3a.1.1,0,0,0,.1.1v-.2c-.1-.2,0-.3.1-.5.1.2,0,.4.1.5l.1-.1V76.4c.1.1.1.1.1.2v.6c0,.2,0,.3.1.4.1-.1.1-.1.1-.2a1.49,1.49,0,0,0-.1-.6c0-.2.1-.1.1-.2l.2.1c.1-.2-.1-.4.1-.6a.1.1,0,0,1,.1.1v.2c0,.1.2.2.3.2s-.5.3.3.4v-.8c0,.1.1.1.1.2v.4h0v-.5H94l.1.1v.3h.1v-.8c.1,0,.2,0,.2.1s.2.3.2.4v-.5s0,.2.1.1-.1-.3-.1-.4c.1.3.1.3.3.2l-.2-.3h.1a1.42,1.42,0,0,0,.6.2h.1l.2.1c0-.1,0-.2-.1-.2s-.2-.2-.4-.1l-.2-.3a.1.1,0,0,0-.1.1c0,.1,0,.1-.1.1s-.1,0-.1-.1h-.1l-.2-.1v-.1L94,75c-.1,0-.3.1-.4,0s0,0-.1,0h-.1l-.3.1h-.2l.3-.1H93l.1-.2h-.2l-.3.1a1.49,1.49,0,0,1-.6.1v-.4c0-.1,0-.1.1-.1l.1.2c.1-.1-.1-.2.1-.2v0a1,1,0,0,1,.3-.1c.1,0,.1.2.1.3.1-.1.1-.2.1-.4H93l.1.3c.1,0,.1-.1.1-.2s-.2-.2-.1-.2.1.1.1,0v-.5c.8,0,.3.1.3.2s.1.2.1.3.1,0,.2.1v-.5h.1c.1.1,0,.3.1.4v-.3c0-.1,0-.1.1-.1s0,.2.1.3.1-.2.1-.2,0-.2.2-.3,0,.2.1.1v-.4a1.49,1.49,0,0,0,.7-.3h-.4s-.2-.1-.2,0-.1,0-.2.1v-.2l-.4.1v-.2l-.5.3V73a.1.1,0,0,0,.1-.1v-.1l-.3.1c0-.1-.1-.1-.2,0s-.1.1-.2.1v-.2l-.6.2h0l.1-.1h-.2l-.1.1h-.3c-.1,0-.1,0-.1-.1v-.3l.3-.1.1.2a.1.1,0,0,0,.1-.1v-.2a.1.1,0,0,1,.1-.1l.1.4c.2-.1.2-.1.1-.2v-.2c0-.1,0-.1.2-.1s0,.2.2.2v-.3l.2.1c0-.1-.1-.3,0-.3.1.3.1.3.2.3s-.1-.2,0-.4c.1,0,0,.2.2.2v-.2c.1.1.1.3.3.2v-.3c.1.1.2.1.2.2s.2.1.3.1-.1-.1-.1-.2-.1-.1-.1-.2l.2-.1c.1.3.2.4.4.3l-.3-.4.2-.1c-.1,0-.3.1-.3,0v-.2l-.3.2H94l.1-.2-.3.1-.1-.2h-.4l-.1-.1-.5.4c0-.1-.1-.2-.2-.1l-.4.2v-.1h-.2c-.1-.1-.1-.1,0-.2h0l.3-.1c-.1-.1-.1-.1,0-.2s.1.1.1.1v-.2h0s.2,0,.2.1.2-.1.1-.2,0-.2.1-.3a.37.37,0,0,0,.1.3.1.1,0,0,0,.1.1c.1,0,.1.1.1.2a.1.1,0,0,0,.1.1.37.37,0,0,0,.1-.3l.1.1.1-.2h.1v-.2c0-.1,0-.2.1-.2v.2a.1.1,0,0,0,.1.1v-.3a.3.3,0,0,1,.4,0,.22.22,0,0,0,.2.2c.1,0,.2.1.3,0l-.3-.1.1-.2H94a.1.1,0,0,1-.1-.1c0-.1,0-.1.1-.1s.1-.1.1-.2h-.2c0-.2.2-.2.1-.4-.3.1-.4.4-.7.5l.1-.2h0l-.3.2c0-.2.2-.3.1-.4-.3,0-.4.2-.6.4l-.1-.3c-.1.1-.2.1-.3.2l-.2.2a.37.37,0,0,1-.3.1h-.2v-.7a.22.22,0,0,1,.2-.2v.3a.37.37,0,0,0,.1.3c0-.2-.1-.4.2-.5v.5l.1-.1v-.5a.37.37,0,0,1,.1-.3v.5a6.37,6.37,0,0,0,.2-.7l.1.3c.1-.1,0-.3.2-.3v.2h0l.1-.2.2.1V69c0,.1,0,.2.1.2a.75.75,0,0,1,.1-.5c.1,0,.1,0,.1.1V69c0,.1,0,.1.1.1l.1-.2.1.2v-.2a.1.1,0,0,1,.1-.1c.1,0,.1,0,.1.1h0c0-.2,0-.2.2-.2s.1.3.3.2v-.2c.1,0,.3,0,.3-.1-.2,0-.2-.2-.2-.3l-.4.3c0-.1-.1-.1-.1-.2s0-.1,0-.2h-.1c-.1-.1-.2,0-.3,0a2.19,2.19,0,0,1-.5.3l.3-.4h0l-.2.1V68l-.6.3c-.1,0,0-.2-.1-.3-.2.1-.3.4-.6.4.1-.1.1-.2.1-.4s-.1-.2-.2-.3c.1-.1.2,0,.3.1l.2-.2c.2.1.3.1.4,0-.1.1-.2,0-.3-.1s0-.2,0-.3c-.3.1-.4.4-.6.4l.1-.2-.3.1c0-.1.1-.1.1-.2a.14.14,0,0,0,0-.2c-.1-.1-.1,0-.1,0a.1.1,0,0,0-.1.1l-.4.4.2-.3-.2.1h0l.2-.2H91l-.5.3-.1.1v-.2c-.2,0-.4.2-.6.2l.2-.2-.3-.2-.5.4c0-.1.2-.1.1-.2l-.3.1V67c0-.1-.1-.2.1-.3l.1.3c.1-.1,0-.3.1-.4s.1,0,.1.1.1.1.2.1v-.2h.1a.35.35,0,0,1,.1.2v-.3a.37.37,0,0,0-.1-.3h-.2c.2-.2.3.1.5,0V67c.1,0,.2-.1.1-.2h0v-.5c.1,0,.2-.1.3,0s0,.2,0,.3,0,.2.1.2.1-.1.1-.2V66h.1v.4h.1V66c0-.1,0-.1.2-.1l.1.4c.2-.1.2-.1.1-.2v-.2c.1,0,.1,0,.2-.1h-.2s-.3-.3.5-.2v.2c0-.2-.1-.3-.1-.5s0-.2.2-.2c.1.2,0,.3.1.5a.1.1,0,0,0,.1-.1v-.2a.9.9,0,0,0-.1-.5c-.1-.2,0-.1.2-.1s0,.1,0,.2v.2l.1.1c.1.1.1-.1.1-.1v-.5h.1l.1.1c.1,0,.1-.1.2-.2a.1.1,0,0,0-.1-.1.35.35,0,0,1,.2-.1h.1l.2-.2-.2-.2c0-.1.1-.1.1-.2s-.2,0-.2,0-.1,0-.2.1l-.4.4h-.1l.1-.2c-.2,0-.3.2-.4.5-.1-.2.1-.3,0-.4a1.21,1.21,0,0,0-.5.5,1.47,1.47,0,0,1-.5.6.35.35,0,0,1-.2-.1h-.3v.2c.1.1.1.2-.1.2a.1.1,0,0,1-.1-.1v-.2h0c-.1.8-.1.4-.2.5s0,.1,0,.1a1.44,1.44,0,0,0-.3.2c-.1-.1-.1-.2-.1-.4a.1.1,0,0,0,.1-.1c0,.1,0,.1.1.2l.1.1.1-.1c-.1,0-.2,0-.2-.1s.1-.1.2-.2,0,.2.2.2h0l.1-.2h-.1v-.2l-.4.1h0a.44.44,0,0,1-.3.1c-.1-.1-.1,0-.1,0-.2-.1-.2-.4-.2-.5l.2-.1.1.5c.2-.2,0-.4,0-.6h.2c.1.1,0,.3.2.4l-.2-.4c.2,0,.1.1.2.2a.1.1,0,0,0,.1.1.35.35,0,0,1,.2-.1c-.2,0-.2-.1-.1-.3l.2-.1.1.2.2-.3c.1.3.2.3.3.1-.2,0-.2,0-.2-.3.1-.1.2-.2.3-.2s.3-.2.5-.3c0,0,.1,0,.1-.2-.1,0-.2.1-.3.2l-.1.1h-.3c-.1,0-.1-.1-.2,0l-.6-.3a1.44,1.44,0,0,0-.3.2l-.1.1h-.5l.1-.1.1-.1a.82.82,0,0,1-.1-.7l.1.2v-.4a.37.37,0,0,1,.1-.3l.1.4h0v-.3c.2,0,.1.2.2.3s.1-.1.1-.1,0-.2.1-.2l.2.1a.55.55,0,0,1,.3-.5c.1.1-.5.2.3.2v-.4c0,.2-.1.3,0,.5.1-.2-.1-.4,0-.6,0,.1,0,.2.1.2h0v-.1c0-.1,0-.2.1-.1s.2,0,.1-.2,0-.2.1-.3h.1l-.1-.1c.2-.2.4-.3.5-.5-.2,0-.3.2-.4.2l-.1-.1-.1.1c-.1,0-.2.1-.3.1a.37.37,0,0,0-.3.1.19.19,0,0,1-.3,0h0c0-.1-.1-.1-.2,0h0l-.3.3-.2.1-.1-.1c-.1-.1-.1-.1-.2-.1l-.1.3a1.27,1.27,0,0,1-.1-.6.1.1,0,0,1,.1-.1c.1.2,0,.4.2.5v-.2a.6.6,0,0,0-.1-.4c0-.1,0-.2.1-.2h0l.1.3c.2,0,0-.2.1-.3.2.2.2.2.3,0l.1.2c.1-.1,0-.3.2-.3s0,.2.1.3c.1-.1-.1-.3,0-.5,0,.1,0,.1.1.2l.1.1a.1.1,0,0,0,.1-.1h0v-.1c.1.1.2.1.2,0s.1-.2.3-.3L91,60l.1-.1h0v.3c.2-.1.2-.1.1-.4l-.2.1v-.1c-.2.2-.4.3-.6.2h-.2c-.1,0-.1.1-.2,0s-.1,0-.1,0l-.3.2c.2-.2.2-.4.3-.6.1,0,.1-.1.2-.1a1.38,1.38,0,0,0,.3-.4l.2-.2.3-.3v-.1h-.1c-.1,0-.1.1-.2.1s-.2,0-.2-.1v-.1c-.2.1-.3.1-.3.3s0,.1-.1.1l-.1-.1h-.4a.31.31,0,0,1-.2.1H89l.3-.3c.1,0,.1-.1.2-.1v-.1c-.1.1-.2.3-.4.3-.1-.2.1-.2.1-.3s-.2.1-.2,0a.14.14,0,0,0-.2,0h0a.6.6,0,0,0-.4.1.3.3,0,0,1-.4,0c-.1.1-.1.1-.3.1v-.4c-.2,0-.2.2-.3.2a.1.1,0,0,1,.1-.1v-.1c-.2-.1-.1-.2-.1-.4s0-.1.1-.1l.1.3h0v-.3a.37.37,0,0,0,.1-.3v-.1c0-.1,0-.1.1-.2h0c.1.1,0,.3.2.4v-.3c0-.1,0-.1.1-.1.1.2,0,.4.2.6v-.5l.2.3c.2,0,.1.2.2.3s.1-.1.1-.2-.1-.2-.1-.3c.3-.1.3-.1.3-.2s-.2.1-.3,0l.1-.3H89l.2.3c.2-.1-.1-.2.1-.3l.1.1c0-.1-.1-.3,0-.4s.1,0,.2,0V56h.1v-.1c0-.1,0-.1-.1-.2H90c.1,0,.1-.1.2-.2a.76.76,0,0,1,.4-.2c.1.1.2,0,.3,0s0-.1,0-.1a.1.1,0,0,0-.1-.1h-.2v-.2a.55.55,0,0,0,.5-.3V55l.1-.2h-.4l-.1-.1c-.1.1-.1.2-.2.2a.9.9,0,0,1-.5.1c-.2,0-.3.1-.4.3s-.1.1-.1.2l-.1.1c0-.2.2-.3.2-.5l-.5.5.1-.3c-.2.1-.3.3-.5.4a.14.14,0,0,1,0-.2c-.2-.3-.2-.3.1-.4v.1s.1.2.2.1a.1.1,0,0,0,.1-.1c.2-.1.3-.2.5-.2h.1c.1-.1.2-.3.3-.4a.14.14,0,0,0,0-.2h0a.76.76,0,0,1-.4.2l-.4-.1v-.3c0,.2-.3.3-.5.5v-.2c-.1.1-.2.2-.3.2s-.2.1-.3.2H88c0-.1.1-.1.1-.3-.1,0-.2.3-.4.1l-.2.3a.37.37,0,0,0-.1-.3c0-.1-.1-.3-.1-.4s0-.2.2-.2.1.3.2.4c.1-.1-.1-.2,0-.3h.1c.1.1,0,.2.2.3l.1-.2c-.2-.1-.2-.1,0-.2l.1.1.1-.4h.4l.1-.1a.1.1,0,0,1,.1-.1h.2c.1-.1.2-.1.3-.2l-.1-.1a.37.37,0,0,0-.3.1v-.2l-.3.2a.52.52,0,0,1-.2-.4l-.2.2c-.1,0-.1.1-.2.2s-.1,0-.2.1-.2.1-.3.1-.1-.2-.1-.4,0-.2.2-.2v.3c.1-.1,0-.2.1-.3h.1v-.1h.2V53h.1v-.2c0-.1,0-.1.1-.1s.1.2.2.1-.1-.2.1-.3,0,.2.2.3v-.3c0-.1,0-.2.1-.2.1.3.1.3.2.2v-.3h0l.1.1.5-.6a.91.91,0,0,0-.7.3c-.2.1-.2.1-.3-.1s-.1-.2.1-.3l.1.1a.1.1,0,0,1,.1-.1v-.2h.3l-.1-.3c-.2-.1-.3.1-.5.2-.1-.1-.2-.1-.2,0s0,.2-.2.2l.1-.3a.19.19,0,0,0-.3.1c-.1.1-.1.2-.2.1s-.2,0-.2.1l-.2.1-.2-.1c0-.1-.1-.2-.1-.3s0-.2.1-.2,0,.3.1.4h.1c0-.2-.1-.4-.1-.6s.2-.1.3-.2l.1.3c.2-.1.1-.2.1-.2l.1.1v-.2c0,.2.2.3.4.3,0,.2.2.3.3.2s-.1-.4.1-.5c0-.1,0-.1.1-.2l.3-.3V50h0c-.1.1-.2.2-.4.1s-.2,0-.2,0l-.1.1-.1-.2-.2.2-.1-.1c-.1.2-.3.1-.5.2a.31.31,0,0,1-.1-.2.37.37,0,0,0-.3.1c-.1,0-.2.1-.3.1a.37.37,0,0,0-.3.1l-.1.1-.1-.1h-.5l-.1.1h-.2a.3.3,0,0,1-.4,0l-.2.2v-.1c0-.1,0-.2.1-.2s.1,0,.1-.1h.1l.1.2c.1-.2,0-.4,0-.5l.2-.1a.37.37,0,0,1-.1-.3c0-.2,0-.2.1-.2s0,.1.1.2,0,.1.1.1.1.1.2.1.1,0,.1-.1-.1-.2.1-.2c.1.3.1.3.2.3s-.1-.3,0-.4c.1.2,0,.3.1.5.1-.2,0-.3,0-.5l.1.1c.1-.1,0-.2.1-.3a.77.77,0,0,0,.2.3c-.1-.3-.1-.3.1-.4l.1.4c.1,0,.1-.1.1-.2s-.1-.2-.1-.4c.2.1.1.3.2.4V49h0l.2.1c.1,0,.1-.1.1-.2v-.1c0-.1-.1-.2,0-.3l.1.1c.1-.1,0-.3.2-.4l.3-.3-.2-.1c0,.2-.2,0-.3.2h0c-.1-.1-.2,0-.3.1s-.1.1-.1,0-.2,0-.2,0H87c-.1,0-.1,0-.2.1s-.1.1-.2.2-.2.2-.4.1-.2,0-.2.1h0l-.2.2-.3.1c0-.1-.1-.1-.1-.2s-.1,0-.2.1a.35.35,0,0,0-.1.2c0,.1-.1.1-.1.2h-.3L85,49l-.3.2v-.1s.1-.1,0-.1,0-.1.1-.1,0,.1,0,.1v.1a.37.37,0,0,0,.1-.3c0-.1,0-.1.1-.2a1.49,1.49,0,0,1,.7-.3h0c.1,0,.1-.1.1-.2s-.1-.1-.1,0v.1a.49.49,0,0,0-.3.1v-.1a4.33,4.33,0,0,0-.5.1c-.1,0-.2,0-.2-.1h.2c-.1,0-.1.1-.2.1-.2-.2-.1-.2.1-.4,0,.1.1.3.2.3h0v-.3c0-.1-.1-.2,0-.3V48c.2-.1,0-.3.1-.4l.1.2.4-.2c0-.1,0-.2.1-.2l.1.2.2-.1.1.2.1-.1c0-.1-.2-.2,0-.3v.2c.1.2.1.2.2.1s.1-.1.1,0,.2,0,.2-.1l.1-.1c0,.1.1.2.1.1v-.3h-.1l-.1.1-.2-.1.1-.1h0l-.2.1v-.1l-.3.1-.2-.2-.5.3c-.1-.1-.3-.1-.3-.3l-.1-.3c-.2.3-.2.3-.5.2h0v-.1h.2s.2-.2.2-.3l.1-.1.1.1v.1l.1.1h0a.49.49,0,0,1,.3-.6h0s.1-.4.3-.5l.1.1v-.3c0-.1.1-.2.1-.3-.2-.1-.3.2-.4.2v-.1c0,.1-.1.1-.1.2s-.2.2-.3.2.2-.1.2-.2-.1,0-.1.1v.2h-.2a.35.35,0,0,0-.2-.1l-.4-.1-.4.2v-.2c0-.1,0-.1.1-.2l.1.2h0v-.4h0l.1.1c.2-.1.2-.2.2-.4v-.2h0l.1.2a.37.37,0,0,1,.1-.3c.1,0,.1-.2.1-.3v-.3h0a1,1,0,0,0,.1-.4c0-.1,0-.1-.1-.1s-.1.3-.2.4l-.3.6-.1.1-.4.2-.1-.1c.2,0,.1-.2.1-.2s.1-.1.1-.2h.1a.55.55,0,0,1,.3-.5.37.37,0,0,1,.1-.3c0-.1,0-.2-.2-.3,0,.1-.1.2-.2.3s-.1.2,0,.2h0c-.1,0-.1,0-.2.1s-.3.2-.4.4-.3.2-.4.3V44a1.21,1.21,0,0,1,.5-.5l.1.1.3-.3-.1-.1c-.1.1-.2.2-.3.1a.52.52,0,0,1-.4.2l-.2-.4a.22.22,0,0,0,.2-.2.1.1,0,0,1,.1-.1.1.1,0,0,0,.1-.1v-.5h0l.1.4h0v-.9l.1.1c.1-.2-.1-.3,0-.4-.1.1-.2.2-.2.3s-.2.3-.3.4l-.1.1c-.1.1-.1.1-.3.1-.1.2-.1.3-.2.2l.3-.3h-.1c0-.1,0-.2.1-.2s.1-.2.1-.4v-.7c0-.1.1-.1.1-.2s-.1-.1-.2-.1l-.3.6-.2.1c-.1,0-.1-.1,0-.2v-.3a.75.75,0,0,0-.1-.5H82a.6.6,0,0,0-.1.4c0,.1.1.2.1.4s0,.1-.1,0,0-.3-.3-.3c0,.1,0,.1-.1.2v.3a.37.37,0,0,0,.1.3v.6h0l.1-.1v.1h0s-.2.1-.2,0-.1-.1-.2-.2a.1.1,0,0,0-.1-.1c-.1,0-.1-.1-.1-.2s-.1-.2-.2-.3l-.2-.2v.2c.1.2.1.4.2.6v.2c-.2,0-.3-.3-.5-.3-.1.2,0,.3,0,.5v.5c.1.1.3,0,.3.1v.3c-.2-.1,0-.2-.1-.3s-.1.1-.1.1A.9.9,0,0,1,80,43h0s-.3-.1-.4,0h-.7a6,6,0,0,0,.6,1.1h.1l.1.2a.1.1,0,0,1,.1-.1s-.1-.1,0-.1l.3.3v-.2c.1.1.1.3.3.1-.1.2.2.1.2.3h-.3a.75.75,0,0,1-.5-.1c-.1-.1-.2-.1-.4-.1h-.1c-.1,0-.2-.1-.3,0h0c-.1,0-.2-.1-.3,0l.1.2h.1c0,.1,0,.2.1.2h.1v-.1l.1.1v.1a.7.7,0,0,0,.4.2c0,.1-.1.2,0,.2s0,.1-.1.2a.44.44,0,0,1-.5-.1h-.2l-.3-.1c-.2.1-.2.1-.4,0l-.1-.1c-.2,0-.3-.2-.4-.3s-.1-.2-.3-.2c0,.3.1.5.1.8l.1-.1c-.1.1,0,.2.1.2s.1.2,0,.2l-.4-.3c-.1.1.1.2,0,.2a.1.1,0,0,1-.1-.1c-.1-.1-.1-.1-.1.1l-.3-.5-.3.1v.1c.1,0,.2.1.3.2s.3.2.2.5h0c0,.1.1.2.1.3a.1.1,0,0,0,.1.1h.1l-.2-.3a.1.1,0,0,1,.1.1c0,.1,0,.2.1.2s.2.2.4,0l.1.2c0,.1,0,.2.1.2l.3.3.1-.1.1.1h.1v.2c-.1.1-.1,0-.2,0H78l.1.3c-.2-.1-.3-.4-.5-.6v.2c-.1,0-.1-.2-.2-.1s-.1-.2-.2-.1v.2h-.1a.32.32,0,0,0-.3-.3l-.1-.1h-.1l.1.3a.52.52,0,0,1-.2-.4l-.2.2c0,.1.1.3.1.4v-.3l.2.2v.1l-.1-.1a.19.19,0,0,0,0,.3.6.6,0,0,1,.1.4v.2l.1.1v-.1a1.27,1.27,0,0,0-.1-.6c-.1-.2,0-.1.1-.2.1.2,0,.3,0,.5a.9.9,0,0,0,.1.5c.2-.1,0-.2.1-.3l.2.2v.2h.1V48c.1.1.1.1.1.2v.4c0,.1,0,.1.1.1v-.5c.2.1.1.3.1.5l-.1.1-.1.1-.2-.1-.1-.1a.49.49,0,0,1-.3-.1h-.1c-.1.1-.1.1-.2.1h-.2l-.2.1-.2-.2c-.1.1-.2,0-.3,0l-.1.2-.1-.1c0-.1-.1-.1-.2-.1s-.1.1-.1.2h.1c.1.1.1.3.2.4V49h0v.4c0,.1-.1.2,0,.4a6.37,6.37,0,0,0,.2-.7c.2.2,0,.4.1.6a.1.1,0,0,1,.1-.1c.1,0,0,.1.1.1h0c.1-.2,0-.4.1-.5.1.1,0,.3.1.4v-.4h0l.1.1v.2c0,.1,0,.1.1.1s.1.1.1.2a.3.3,0,0,0,0,.4c-.1,0-.1-.1-.2-.1s-.1-.2-.1-.3-.1-.1-.2-.1v.2l-.4-.1.1.3h0l.2-.3h-.2l-.1.2c-.2,0-.3-.3-.5-.3v.2a.6.6,0,0,1-.4-.1c-.2-.1-.1-.1-.1,0l.1.2-.2.1.1.1a.1.1,0,0,1,.1.1l.1.1h.1a.37.37,0,0,0,.1.3h0v-.3c.1,0,.1,0,.2.1v.2h.1v-.2h.2c0,.1,0,.1.1.2h.1v-.1c.1.1.2.2.2.3.4-.3.9,0,.7.6a.35.35,0,0,1-.1.2c0,.1.1.1.1.2v.2c0,.2,0,.2-.1.2H76l-.1.2c-.1,0-.2,0-.2.1.2,0,.3-.1.6-.2a.68.68,0,0,1,.8.4v.3c0,.1.1.2,0,.3s.2.3.2.4v-.4h0c.1.2-.1.4.1.7v-.2s.2.1.1.4h.1c-.1,0-.1-.1-.2-.1a.61.61,0,0,1-.1.6c-.1.1-.3.2-.4.4s0,.2,0,.3l-.1.2v.4h-.2l-.5.6-.3.6c-.3.2-.3,0-.6,0,0,.3-.3.4-.5.5s-.4.1-.6.1a.48.48,0,0,0-.2.6v.1h0v-.1a2.18,2.18,0,0,1,.8-.5.9.9,0,0,0,.5-.1l.6-.3c.4-.2.7,0,.5.5-.1.2-.5.3-.5.4h0c0-.1.3-.2.4-.2.3-.2.4.1.8-.1s.4-.6.9-.5a.67.67,0,0,1,.6.7,1.39,1.39,0,0,1-.5,1c0,.1-.1.2-.1.3-.2,0-.3.2-.2.4v.1c0,.1-.1.2-.2.3s-.3.2-.2.4c-.3.4-.6.6-.9,1a2.34,2.34,0,0,1-.7.7,5.58,5.58,0,0,0-.8.5c.2,0,.2.1.5.1s.4-.2.6-.2.4.2.5.2c.3,0,.8-.9,1.1-.1.3-.2,1.2-.5.9.2.4-.1.5.4.3.7.4-.3.6,0,1,.1s1-.1.9.5c.4-.2,1,.3,1,.7,0,.8-1,.7-1.4.7a1,1,0,0,1,.3.9c.3,0,.8.5.7.8-.1.5-.9.5-1.2.2-.1.3-.4.3-.6.5a2,2,0,0,1,.8-.1l.5.3a.75.75,0,0,1,.3.3c.1.2-.1-.2-.1-.1s.1.1.2.2.2.3,0,.6a1.88,1.88,0,0,1-.8.2,2.2,2.2,0,0,0-.8.1c-.3.1-.3,0-.6.2-.1.1-.3,0-.4.2.4,0,.7.1,1.1.1a2.72,2.72,0,0,1,.9,0c.2.1.4.1.6.2s.4-.1.5-.1c1,.5-.4.7-.6,1.1,0,.1,0,.5-.1.5a.37.37,0,0,1-.3.1.76.76,0,0,1-.2.5,4.88,4.88,0,0,1-.7.3,2.57,2.57,0,0,1-.5-.2c-.9.4.7.6.9.6h.9c.2.1.3.3.4.3a3,3,0,0,1,1,.4c.2.2.7.8.1,1-.4.1-.7-.2-1.1,0s-.4.5-.6.8a4.23,4.23,0,0,1-.7.5.37.37,0,0,1-.3.1v.2c-.5.2-.2,0-.7-.1,0-.2-.1-.3-.3-.2v.4c0,.1.1.4-.1.6h.6c.2,0,.3-.2.5-.3a.63.63,0,0,1,.6,0c0,.2.1.3.3.2a.35.35,0,0,1,.2.1c.8.8-.5.8-1,1.3.4-.1.8.3,1,.6.6.8-.5.9-.9,1.3.2,0,.4.2.3.4h0c.2-.1.4-.1.5-.2s.1-.2.2-.3.7-.3.7.2c.3-.2,1.7-1.2,1.8-.3.5-.2,2.4-.8,2.5,0h0v.1h0v-.1c0,.3-.2.3-.2.5-.1.4.1.6-.2.9s-.2-.1-.4,0a.14.14,0,0,0,0,.2c-.4.3-.2.3-.4.8a4.05,4.05,0,0,1-.5.9c0,.1-.1.1-.3.1,0,.1-.1.3-.1.4v.3a.37.37,0,0,0,.1.3.37.37,0,0,1,.1.3v.3a.1.1,0,0,0,.1.1v-.8c0-.2,0-.1.1-.1s0,.1,0,.1v.5c0,.2,0,.1.1.1s0-.2,0-.3a.52.52,0,0,1,.2-.4c.1.2,0,.5.1.7.1-.1.1-.1,0-.2v-.2l.3-.3a.6.6,0,0,1,.1.4v.5a.6.6,0,0,1,.1-.4c0-.1.1-.2.1-.4h0v.8c0,.1,0,.1.1.1V84.1c.1.1.1.1.1.2v1.3h0v-1c.1.1.1.1.2,0l.2.3.1-.2a2.2,2.2,0,0,0,.1.8,3.4,3.4,0,0,0,.1-1l.1.7h0l.1-.6h.1v.5c0,.2,0,.1.1.1a4.1,4.1,0,0,1,.1-1.1c.1.2,0,.4.2.6v-.5a.9.9,0,0,1,.1-.5v.8c0,.2,0,.1.1.2v-.9c.1,0,.1.1.1.2v.5a.37.37,0,0,0,.1.3v-.9h.2a1.7,1.7,0,0,0,.1.7l.1-.1v-.7a.37.37,0,0,1-.1-.3v.3a.1.1,0,0,1-.1-.1.22.22,0,0,0-.2-.2c-.1,0-.1,0-.1-.1l.2-.1V83c0-.1.1-.4.1-.6s.1-.3.2-.3c.1.2-.1.4-.1.6s-.1.4,0,.6V83a4.33,4.33,0,0,1,.1-.5.6.6,0,0,0,.1-.4c.1,0,.1,0,.1.1a.6.6,0,0,1-.1.4v.5c0,.1,0,.2.1.2v-.4h0s.1.1,0,.1a.37.37,0,0,0,.1.3v.1a.9.9,0,0,0,.1.5h0c.1-.2,0-.5.1-.7.1.2,0,.4.1.6.1-.3,0-.6.2-.9.1.3-.1.6.1.9,0-.3.1-.7.1-1,.1,0,.2,0,.2.2a1.7,1.7,0,0,1-.1.7c-.1.2,0,.2.1.3.1-.3,0-.6.2-.8.2.1,0,.2.1.2s0,.2,0,.3a.37.37,0,0,0,.1.3.14.14,0,0,0,0-.2c0-.1,0-.2.1-.2,0,.3,0,.3.1.4.1-.2,0-.3.1-.5.1.1.1.1.1.2s-.1.4-.1.6v.1h.1v-.7c0,.1.1.2.1.3a.1.1,0,0,0,.1.1v-.5a.3.3,0,0,1,0-.4h.1c.1,0,0,.2.1.2s.1.1.2.2,0,0,.1.1h0v-.2h.1a3.4,3.4,0,0,0,.1,1,.35.35,0,0,0,.1-.2v-.5a1.27,1.27,0,0,1,.1-.6c.1,0,.1.1.1.2v1a.1.1,0,0,0,.1.1c.1,0,0,0,0-.1V83c0-.1,0-.1.1-.1a6.15,6.15,0,0,0,.1,1.3.1.1,0,0,0,.1-.1v-.3c0-.3,0-.3.3-.2l-.1-.6v.1h0c-.1-.1-.1-.3-.2-.4s0-.1.1-.1h.2a.22.22,0,0,1,.2-.2c.1,0,.1.1.1.2v.1c.1,0,0-.2.2-.2v.7h0l.1-.6h.1l.1.1c0,.1-.1.3-.1.4s-.1.2,0,.4l.2-.7.2.1c.1,0,.1.1.1.2v.7h0c0-.1.1-.3.1-.4a.6.6,0,0,1,.1-.4,2.15,2.15,0,0,0,0,.8c.2-.2.1-.5.2-.7.1.2-.1.5.1.7.1-.2,0-.4.2-.5h0a.37.37,0,0,0-.1-.3c.2,0,.2,0,.2.2s0,.1.1.2l.1-.5.1.2v-.2l.4.3v-.5h.2v.1c.1,0,.2,0,.2.1s.5.3.5.5c0,0-.5,0,.3.1V83h.1c0,.3-.1.4,0,.5v-.3c0-.1.1-.2,0-.3s-.3.1-.4,0l.3-.2h0a.76.76,0,0,0-.4.2.75.75,0,0,1,.5-.1h-.3c0-.8,0-.5.1-.8.1.2,0,.4.1.6,0-.2.1-.3.1-.5h.2c0,.1,0,.1.1.2,0-.2.1-.3.3-.4a1.39,1.39,0,0,0,0,.9.6.6,0,0,0,.1-.4.9.9,0,0,1,.1-.5c0-.1.1-.1,0-.2s0-.1,0-.2.2.1.2.2v.6a1.7,1.7,0,0,0,.1-.7c.1.1,0,.2.1.3s0,0,0-.1v-.6a.37.37,0,0,1,.1-.3l-.1-.2c.1,0,.2,0,.2.1v.3l.1.1v-.5c0,.1.1.1.1.2.1-.3.1-.3.2-.3s0,.2.1.3v-.4c0-.2.1-.4.3-.4-.1-.4,0-.2,0,0Zm-6.6,3.3h0c0-.2,0-.5-.2-.6s-.2-.2-.2-.3v-.1l.1.1a1.38,1.38,0,0,0,.3.4s.1,0,0,.1Z"/><path class="cls-9" d="M91.36,92.1l-.8-.3a.37.37,0,0,1,.1-.3l.3-.4a.14.14,0,0,0,0-.2h-.1l-.6.6c-.1.1-.1.1-.2.1s.2-.2.1-.4l-.4.3-.7-.1a.82.82,0,0,0,.1-1.2l-.1-.1c-.1.2.1.3.1.5-.2.3-.2.3-.1.5l.1-.3c.1.3-.1.5-.4.6h-.1a2.35,2.35,0,0,0,.2-.8h-.2c-.2,0-.3,0-.4.2l-.1.1h-.3a1.88,1.88,0,0,0-.8.2c-.1.1-.1.1-.1.3.1-.1.1-.2.2-.2s.2-.1.3-.1h.4c-.1,0-.2.1-.3.1l-.1.1c0,.1-.1.1-.1.2v.2h.1l.1-.4a4.18,4.18,0,0,1,1-.4c0,.2-.2.3-.1.5a1.27,1.27,0,0,1-.6.1c-.1,0-.1,0-.2.1a.37.37,0,0,0,.3.1,2.77,2.77,0,0,1,.9-.1h.2c.2,0,.4.1.6.1a.1.1,0,0,1-.1.1l-.2.2c-.3,0-.5-.1-.8-.1a5.7,5.7,0,0,0-1.3-.1c-.2,0-.3,0-.4-.2-.1,0-.1.1-.2.1l-.4-.1c0-.2,0-.3-.2-.4l.3-.5h-.1c-.1.1-.2.3-.3.4s0,.2.1.3h0v.2H86a4.1,4.1,0,0,0-1.1-.1h0l-.1-.1.1-.1c.1-.1.1.1.2.1s.2,0,.1-.2v-.5c-.2.1-.2.5-.2.5h-.1a3.59,3.59,0,0,1,.2-1.1,3.26,3.26,0,0,0-.4,1.3l-.3.1a.6.6,0,0,1,.4.1c-.1.1-.3,0-.4.1s.1.1.2.1h1l1.4.3c.1,0,.3.1.2.3a.1.1,0,0,0,.1.1v-.1c.1-.2.1-.2.3-.2H88a1,1,0,0,1,.3-.1,3.4,3.4,0,0,1,1,.1,1.7,1.7,0,0,0,.7.1.14.14,0,0,0,0-.2V92h0v.1c0-.2.1-.2.2-.3s.1,0,.1,0l.1.1a.35.35,0,0,0,.1.2s-.3-.1-.3.1h0a.52.52,0,0,1,.4.2c.1,0,.1.1.2.1h-.2s.3-.1-.4-.2V92a1.61,1.61,0,0,1,1.1.5C91.36,92.2,91.46,92.2,91.36,92.1Z"/><path class="cls-9" d="M77.56,91.3c0,.2,0,.2.2.3v-.3l.9-.4a2.62,2.62,0,0,0-.2-1.5l-.1-.1a.19.19,0,0,0,0,.3,1.85,1.85,0,0,1,.2.7v.4c0,.1,0,.2-.1.2l-.1-.1-.1.1-.1-.1v.3a2.28,2.28,0,0,1-1.1.3c-.1-.5-.2-.7-.4-.8,0,.2.1.3.1.4a.76.76,0,0,0,.2.4c-.1.1-.2.1-.4.1H76a3.55,3.55,0,0,1-1,.2h-.1c.1,0,.1,0,.2.1s.3,0,.4-.1l.6-.2h.5c.2,0,.3,0,.4-.1a.37.37,0,0,1,.3.1c.1.1.2,0,.3-.2Z"/><path class="cls-9" d="M86.76,93.1c-.1,0-.2,0-.2-.1s-.1-.1-.2-.1-.4-.2-.7-.1h-.1c-.1,0-.2-.1-.3-.1a.6.6,0,0,1-.4-.1h-1.6l.6.1a.37.37,0,0,1,.3.1c.2,0,.5-.1.7.1.2-.1.3.1.4,0h.1a1.27,1.27,0,0,0,.6.1h1.3A.9.9,0,0,1,86.76,93.1Z"/><path class="cls-9" d="M85.46,93.2a.4.4,0,0,1-.4-.2.35.35,0,0,0-.2-.1,1.27,1.27,0,0,0-.6.1l-.1.1h.4c.1,0,.2,0,.2.1s.1.1.2.1c.3,0,.4,0,.5-.1l.8.1c.1,0,.1,0,.1-.1h-.9Z"/><path class="cls-9" d="M79.06,90.3H79l-.1-.3h-.1a2.15,2.15,0,0,0,0,.8H79A1.09,1.09,0,0,0,79.06,90.3Z"/><path class="cls-9" d="M87,91.7c0-.2.1-.5.1-.7s.1-.4.1-.7a.22.22,0,0,0-.2.2c0,.2-.1.5-.1.7v.3C86.86,91.7,86.86,91.8,87,91.7Z"/><path class="cls-9" d="M80.06,89.8l-.1.1v.8h0A2.77,2.77,0,0,0,80.06,89.8Z"/><path class="cls-9" d="M88.06,92.3h0a4.33,4.33,0,0,0,.5.1c.2,0,.4.1.6,0a.37.37,0,0,1-.3-.1Z"/><path class="cls-9" d="M95.16,73.2c0-.2-.1-.2-.2-.3-.1.1,0,.1,0,.2s.1.1.1.2.1.2.2.3h.1c-.1,0-.1-.1-.1-.2A.35.35,0,0,1,95.16,73.2Z"/><path class="cls-9" d="M89.06,84.6l-.2-.8a1.1,1.1,0,0,0,0,.8Z"/><path class="cls-9" d="M85.76,91.5v-.6a.44.44,0,0,0-.1.5C85.56,91.4,85.56,91.5,85.76,91.5Z"/><path class="cls-9" d="M80.86,92.3c-.1,0-.3-.1-.4.1a1.06,1.06,0,0,0,.8-.1Z"/><path class="cls-9" d="M84.26,91v.2h.1a.1.1,0,0,0,.1-.1.9.9,0,0,0-.1-.5A.76.76,0,0,0,84.26,91Z"/><path class="cls-9" d="M78.36,91.5l.7-.2a.57.57,0,0,0-.7.2Z"/><path class="cls-9" d="M86,91.5h0l.1-.5a.44.44,0,0,0-.1.5Z"/><path class="cls-9" d="M91,84.8a.31.31,0,0,0,.2-.1c-.2-.1-.1-.3-.2-.5a.6.6,0,0,0-.1.4A.35.35,0,0,0,91,84.8Z"/><path class="cls-9" d="M89.46,92.8c.2,0,.4.1.6,0Q89.61,92.65,89.46,92.8Z"/><path class="cls-9" d="M98.36,80.5a.66.66,0,0,0-.1-.6A1.27,1.27,0,0,0,98.36,80.5Z"/><path class="cls-9" d="M98.56,79.7a.88.88,0,0,0,.1.7A1.7,1.7,0,0,0,98.56,79.7Z"/><path class="cls-9" d="M77.76,90.6h0a.44.44,0,0,0,.1.5V91C77.86,90.8,77.86,90.7,77.76,90.6Z"/><path class="cls-9" d="M79.16,91a1.7,1.7,0,0,0-.7.1A.88.88,0,0,0,79.16,91Z"/><path class="cls-9" d="M90.76,92.8c0,.2.1.3.4.3C91.06,92.9,91,92.8,90.76,92.8Z"/><path class="cls-9" d="M83.76,42.5h0c.2-.1.1-.3.1-.4s0-.1-.1-.1Z"/><path class="cls-9" d="M77.46,90.6a.64.64,0,0,0,0,.6Z"/><path class="cls-9" d="M84.56,91v.3c.2-.1.3-.2.3-.4Z"/><path class="cls-9" d="M89.56,91.4a.1.1,0,0,0,.1.1l.1-.5C89.56,91.1,89.46,91.2,89.56,91.4Z"/><path class="cls-9" d="M80.56,91.4a.35.35,0,0,1-.1.2h0c0,.1,0,.2.2.2Z"/><path class="cls-9" d="M85.66,46.4V46h-.1S85.56,46.3,85.66,46.4Z"/><path class="cls-9" d="M85.46,46.6c0-.2,0-.3-.1-.4C85.26,46.4,85.26,46.5,85.46,46.6Z"/><path class="cls-9" d="M86,50.4l-.1-.4C85.76,50.2,85.86,50.3,86,50.4Z"/><path class="cls-9" d="M79.76,90.4a.37.37,0,0,0-.1.3C79.86,90.7,79.86,90.7,79.76,90.4Z"/><path class="cls-9" d="M87.66,51.3l-.1-.4C87.46,51.1,87.46,51.2,87.66,51.3Z"/><path class="cls-9" d="M84.16,91.1a.19.19,0,0,0,0-.3Z"/><path class="cls-9" d="M94.36,70.2l-.1-.3C94.06,70.1,94.16,70.2,94.36,70.2Z"/><path class="cls-9" d="M78.06,91.6Z"/><path class="cls-9" d="M91.36,54.5h0l.1.1A.1.1,0,0,0,91.36,54.5Z"/><path class="cls-9" d="M80.26,90.8l-.1.1h0l.1-.1Z"/><path class="cls-8" d="M49.76,85.2l.1.4H50v-.4Z"/><path class="cls-8" d="M47.76,74.4l.3.1v-.1Z"/><path class="cls-10" d="M68,100.3c-.1,0-.2-.1-.3-.1h-.5l-.1-.1h.8c.3,0,.2,0,.1.2Z"/><path class="cls-10" d="M85,81.2V81c-.2,0-.3,0-.4.2a.35.35,0,0,1-.2-.1c-.2.1-.5.1-.7.2s-.1,0-.2.1-.3.1-.4.2a.1.1,0,0,0-.1.1c-.2-.1-.4,0-.6-.1l.5-.5h-.2a1.23,1.23,0,0,1-.8.4c-.1.1-.3.2-.4.3h-.1s-.3,0-.4.1l-.2.2h0c.1-.2.4-.3.4-.6-.3.1-.4.4-.6.5-.2-.1-.4-.1-.5.1-.1-.1-.5-.1-.5,0v-.2c0,.1-.3.2-.5.3.1-.3.6-.4.6-.7-.2,0-.2.1-.3.2s-.1.1-.2.1-.3,0-.4.1a.6.6,0,0,1-.4.1.76.76,0,0,0,.2-.4v-.8c0-.3,0-.2.2-.2.2.2,0,.5.1.8.1-.1.2-.1.2-.2s.1-.2,0-.3-.1-.3,0-.4l.3-.1c.1.2,0,.4.1.5.1-.1.2-.2.2-.3s.1-.2.2-.1H80a1.38,1.38,0,0,0,.4-.3c.1-.1.1-.1,0-.2l-.2-.2L80,80v-.2l-.4.2h0l.4-.4c-.2,0-.2.1-.3.1l-.8.4a.35.35,0,0,1-.2.1h-.6c0-.2.2-.3.3-.5s-.2-.4,0-.5l.1.3h.1l1-.9c.2,0,.3,0,.4-.1a.37.37,0,0,1,.3-.1h.2l-.2-.2-.3.3c-.1-.1-.1-.1-.2-.1a.31.31,0,0,1-.2-.1c-.1-.1.2-.2.1-.5-.1.1-.3.2-.4.3s-.2.3-.4.4-.1.2-.3.1c0-.2.3-.1.2-.4l-.3.1c-.2-.1-.2-.1-.4,0s-.1.2-.2.3-.1.1-.2.2c-.1-.2-.2-.2-.3-.1l-.3.1h0l.2-.3c-.3,0-.4.4-.6.4,0-.2.2-.3.2-.6a5,5,0,0,0-.8.7c-.1-.2-.2-.3-.4-.2s-.2.1-.2,0a.37.37,0,0,0-.3.1c-.2.1-.3.2-.5.3h-.3l-.1-.1.1-.1a.91.91,0,0,0,.7-.3.31.31,0,0,1,.1-.2c-.2-.1-.4.1-.6,0a2,2,0,0,1-.1-.8c.1.1.1.3.3.2,0-.5-.1-.9-.1-1.4.2.1.2.3.3.5v.4a.1.1,0,0,0,.1.1h0v-.7h.1c0,.1.1.1.1.2s0,.2.2.2a1.27,1.27,0,0,1,.1-.6l.2-.1v.3c0,.1,0,.2.2.3.1-.4-.1-.8,0-1.2.1,0,.2.1.2.3v.4a2,2,0,0,0,.1.7c.2-.2,0-.5.1-.7.1,0,.1.2.1.3v.6a1.27,1.27,0,0,0,.1.6c0,.1.1.1.2.1a4.87,4.87,0,0,1-.1-1.2l.1.1c.1.2.1.4.2.6v.4a.1.1,0,0,0,.1.1h.1a.35.35,0,0,0,.1-.2v-.1c-.1-.2-.1-.5.1-.6.1.3,0,.5.2.8.2-.1.2-.1.2-.2s-.1-.1-.1-.2V76.2c.1.1.1.1.1.3v.8a.75.75,0,0,0,.1.5c.2-.1.1-.1.1-.2,0-.3-.1-.6-.1-.9,0-.1.1-.2.1-.3l.3.1c.2-.3-.1-.6.1-.9l.1.1V76c0,.2,0,.3.2.3a1.27,1.27,0,0,1,.1.6V75.8c.8,0,.4.1.4.3a.52.52,0,0,0,.2.4.1.1,0,0,0,.1.1h.1v-.7h0l.1.1v.3c0,.1,0,.1.1.2h.1c.1-.3,0-.7.1-1.1.1,0,.2,0,.2.2s.2.4.2.5v-.7s.1.3.2.1-.2-.3-.1-.6c.2.4.2.4.4.3l-.2-.4h.2a1.08,1.08,0,0,0,.8.2.1.1,0,0,1,.1.1c.1,0,.1.1.2.1s0-.2-.1-.2-.3-.3-.5-.2l-.1-.3a.1.1,0,0,0-.1.1c0,.1,0,.1-.2.1s-.2,0-.1-.2l-.1-.1-.2-.1v-.2h-.7c-.2,0-.4.2-.6,0h-.5l-.4.1h-.2l.3-.2v-.1l-.4.1c0-.1,0-.1.1-.2h-.3c-.2,0-.3.1-.5.1a2,2,0,0,1-.8.1v-.5c0-.2,0-.2.2-.1,0,.1.1.2.1.3.1-.1,0-.3.2-.2v0c0-.1.3-.1.4-.2,0,.1.2.3.2.4.2-.1,0-.3.1-.5l.3-.1a.6.6,0,0,0,.1.4c.1,0,.2-.1.1-.2s-.1-.2,0-.3c.1.1.4.1.4-.1v-.5c0,.1.2.2.2.3a.76.76,0,0,0,.1.4c.1.1.1,0,.2.1v-.8h.2c.1.2,0,.4.2.6,0-.2.1-.3.1-.5s0-.1.1-.1,0,.3.1.5c.2-.1.1-.2.1-.3a.52.52,0,0,1,.2-.4c.1,0,0,.2.2.2v-.6a1.91,1.91,0,0,0,1-.5h-.3c-.1,0-.3.1-.3,0s-.2-.1-.3,0a.35.35,0,0,0-.2.1v-.2l-.5.2.1-.3-.7.4v-.2a.35.35,0,0,1,.2-.1h.1l-.4.2c0-.2-.1-.1-.2-.1s-.2.2-.3.1v-.2l-.7.4h0l.1-.2a.14.14,0,0,0-.2,0,.1.1,0,0,0-.1.1s-.3,0-.4.1-.2,0-.2-.1a.6.6,0,0,0-.1-.4l.4-.1.1.2c.1-.1.1-.1.1-.2a.35.35,0,0,0-.1-.2.31.31,0,0,1,.1-.2c0,.2.1.4.1.6.2-.1.2-.1.2-.3v-.3c0-.1,0-.2.1-.2h.1c.1.1,0,.3.3.3v-.4l.3.2c0-.2-.1-.3,0-.5.2.4.2.4.3.4.1-.2-.2-.3,0-.5.1.1.1.3.3.3l.1-.3c.1.2.2.4.4.3l-.1-.5a1.38,1.38,0,0,0,.4.3.6.6,0,0,0,.4.1l-.5-.5a.35.35,0,0,0-.1-.2l.3-.1c.1.4.3.5.5.5l-.4-.5.2-.2c-.2,0-.4.1-.5,0v-.2l-.4.3h-.1a.77.77,0,0,1,.1-.3l-.4.1-.2-.3-.3.1-.2-.2-.7.5c0-.2-.1-.2-.2-.1l-.5.3c0-.1,0-.1-.1-.2l-.1-.1c-.1-.1,0-.2,0-.3h0l.4-.2c-.1-.2-.1-.2,0-.3s.1.1.2.1.1-.1.1-.2V68c.2-.1.3,0,.3.1.2,0,.2-.1.1-.3s0-.2.1-.4c0,.2.1.3.1.4a.35.35,0,0,0,.1.2c.1,0,.2.2.2.3s.1.1.1.2c.2-.1.2-.3.1-.5l.2.1a.35.35,0,0,1,.1-.2h.2a.37.37,0,0,0-.1-.3c0-.1,0-.2.1-.2v.3l.1.1a.35.35,0,0,0,.1-.2v-.2a.45.45,0,0,1,.5,0,.32.32,0,0,0,.3.3c.2,0,.3.1.4,0l-.4-.2.1-.2h-.6c-.1,0-.2,0-.2-.1s0-.1.1-.2.2-.1.2-.2l-.3.1c-.1-.2.3-.3.2-.5-.4.1-.5.5-.9.7l.1-.3h0l-.4.3c0-.2.2-.4.2-.6-.3,0-.5.3-.8.5l.1-.3a.52.52,0,0,1-.4.2l-.3.3c-.1.1-.2.1-.4.2a.37.37,0,0,1-.3-.1v-.9c0-.1.1-.2.2-.3v.4c0,.1-.1.3.1.4.1-.3-.1-.6.2-.7a1.7,1.7,0,0,0,.1.7c.1-.1.1-.1.1-.2V66a.4.4,0,0,1,.2-.4v.7c.2-.3.1-.6.2-.9.1.2.1.3.2.4.1-.1,0-.4.3-.4l.1.2h.1l.1-.2.3.1v.4c0,.1,0,.3.1.3.1-.2,0-.5.1-.7a.22.22,0,0,1,.2.2V66c0,.1,0,.2.1.2l.1-.2.1.3V66a.35.35,0,0,1,.1-.2c.1,0,.1.1.2.2h.1c.1-.2.1-.2.3-.3s.1.4.4.3v-.2a.55.55,0,0,0,.5-.2c-.3,0-.2-.3-.3-.4l-.5.2c-.1-.1-.1-.2-.2-.2s0-.2,0-.3-.1,0-.2-.1-.2,0-.4.1a1.61,1.61,0,0,1-.7.4l.4-.5h0l-.2-.4-.1-.3-.8.4c-.2,0-.1-.2-.2-.4-.3.1-.4.5-.8.6a.9.9,0,0,0,.1-.5.76.76,0,0,0-.2-.4c.1-.1.2,0,.4.1l.3-.3c.3.2.5.2.6-.1-.1.1-.3,0-.4-.1s0-.3,0-.4c-.4.1-.5.5-.9.6l.1-.3-.4.2c.1-.1.1-.2.2-.3s.1-.1.1-.2-.1,0-.2,0l-.1.1c-.2.1-.4.3-.6.4l-.1-.1-.3.2h0l.2-.3c-.1,0-.2-.1-.3,0a1.61,1.61,0,0,0-.7.4l-.2.1-.1-.3c-.3-.1-.5.3-.9.3l.3-.3-.4-.2-.6.5c0-.2.2-.2.1-.3-.1.1-.2.1-.4.2,0-.2-.1-.3-.1-.4s-.1-.3.1-.4c0,.2.1.3.1.5.2-.2,0-.4.1-.6s.2,0,.2.1.1.2.2.1v-.2a.1.1,0,0,1,.1.1l.2.2v-.5a.6.6,0,0,0-.1-.4l-.2-.1c.3-.3.4.1.7,0a2.05,2.05,0,0,0,0,1.1c.1,0,.2-.2.2-.3h0v-.7c.1-.1.3-.1.3,0s0,.3,0,.5,0,.2.1.2.1-.1.1-.2V62c0-.1.2,0,.2.1s0,.4.1.5h.1c0-.1.1-.1.1-.2V62c0-.2,0-.2.2-.2,0,.2.1.4.1.6.2-.1.3-.1.2-.3s-.1-.1-.1-.2h0c0-.8.2-.6.2-.6v.5h.1c.1-.1.2-.1.2-.2s.1-.4.1-.7a.27.27,0,0,1,.3-.3h0c.1.2,0,.5.1.7l.1-.1v-.3c0-.2-.1-.5-.1-.7s.1-.2.2-.1v.5l.1.1.1-.1v-.7c0-.1,0,0,.1-.1l.1.2c.2,0,.2-.1.2-.2s-.1-.1-.1-.2a.22.22,0,0,1,.2-.2h.1l.3-.3-.3-.3c0-.1.1-.1.2-.3-.1,0-.2.1-.3,0s-.2,0-.2.1l-.5.6a.1.1,0,0,1-.1.1h0l.1-.2c-.3,0-.4.3-.5.6-.1-.2.2-.4,0-.6a1.34,1.34,0,0,0-.6.7,3.11,3.11,0,0,1-.7.9c-.1,0-.2-.1-.3-.1a.76.76,0,0,1-.4-.1v.2c.1.2.1.2-.1.3h-.1l.1-.3H74v-.3l-.6.2h0c-.1.2-.2.2-.4.1s-.1,0-.2.1c-.3-.2-.2-.5-.2-.8l.3-.2c0,.3.1.5.1.7.3-.3,0-.5.1-.8h.2c.2.2,0,.5.3.6,0-.3-.1-.5-.1-.7.3-.1.2.1.2.2s.1.2.2.2.1-.1.2-.2c-.2-.1-.3-.2-.2-.4l.3-.1.1.3.3-.4c.2.4.3.4.5.2-.2,0-.2,0-.3-.4.1-.1.3-.2.4-.3a.92.92,0,0,0,.6-.4c0-.1.2-.1.1-.2-.2.1-.3.2-.5.3,0,.1-.2.1-.2.1s-.3,0-.4.1a.6.6,0,0,0-.4.1l-.2.1c-.2,0-.3.1-.5.2s-.1.1-.2.1h-.7L73,59l.2-.1A1.49,1.49,0,0,1,73,58l.2.3v-.5a.52.52,0,0,1,.2-.4,1.09,1.09,0,0,1,.1.5h0a.76.76,0,0,1,.1-.4c.2.1.1.3.3.5.1,0,.1-.1.1-.2a.37.37,0,0,1,.1-.3h0c.1.1.2.1.3.2a.62.62,0,0,1,.2-.7c.1.1-.4.3.3.3v-.5a1.7,1.7,0,0,0,.1.7c.1-.3-.2-.5,0-.8l.1.3h.1v-.2c0-.2,0-.2.2-.2s.2-.1.2-.2,0-.3.2-.3H76l.1-.1-.1-.2c.2-.3.6-.4.7-.8-.2,0-.4.3-.6.3l-.1-.1v-.5a.76.76,0,0,1-.4.2.76.76,0,0,0-.4.2c-.2.1-.3.2-.4,0s-.2-.1-.2,0h0l-.4.4-.3.2a.1.1,0,0,1-.1-.1c-.1-.2-.1-.2-.3-.1l-.2.1c-.3-.1-.3-.4-.3-.7,0-.1.1-.1.1-.2.2.2.1.5.3.7v-.3c0-.1-.1-.4-.1-.6s0-.2.1-.3c.1.2.1.3.2.4.2-.1,0-.3.1-.4.3.2.2.2.4-.1l.2.2c.2-.1-.1-.4.2-.4.1.1,0,.3.2.4.2-.2-.1-.4.1-.6a.35.35,0,0,0,.3.3.22.22,0,0,0,.2-.2v-.2q.3.15.3,0a.78.78,0,0,1,.4-.4l.1-.1.1-.1h0v.4c.3-.1.3-.1.1-.6l-.2.2-.1-.2a.54.54,0,0,1-.8.2l-.4.2c-.1.1-.2.2-.3,0s-.1,0-.1.1-.3.2-.4.3a2,2,0,0,0,.4-.8c.1,0,.2-.1.3-.1a1.76,1.76,0,0,0,.4-.5c.1-.1.2-.2.3-.2a.78.78,0,0,0,.4-.4v-.2h-.1c-.1.1-.2.1-.3.2s-.3,0-.3-.2,0-.1-.1-.2c-.3.1-.4.2-.4.4s-.1.2-.2.2l-.1-.2-.5-.1c-.1.1-.2.2-.3.2a.6.6,0,0,1-.4-.1.78.78,0,0,1,.4-.4c.1,0,.2-.1.3-.2v-.2a1,1,0,0,1-.5.4c-.1-.2.1-.3.2-.5-.1,0-.2.1-.3.1s-.2-.1-.3,0,0,0-.1,0a.73.73,0,0,0-.6.2.45.45,0,0,1-.5,0c-.2.2-.2.2-.4.1v-.4c-.2,0-.3.2-.4.3v-.3c-.2-.1-.1-.3-.1-.5s0-.2.2-.2l.1.4h.1V50a.75.75,0,0,0,.1-.5v-.1c0-.1,0-.2.1-.2h0c.1.2.1.4.3.6,0-.2,0-.3-.1-.4s0-.2.2-.2a3.18,3.18,0,0,0,.3.9v-.7l.2.4c.2,0,.1.3.3.3s.2-.1.1-.2a.76.76,0,0,1-.1-.4c.4-.1.4-.1.4-.3a.3.3,0,0,1-.4,0l.2-.4.2-.1.3.4c.3-.1-.1-.3.1-.4l.2.1c.1-.2-.1-.4,0-.6.1,0,.2.1.2,0V48c0-.1,0-.2.1-.2H74a.14.14,0,0,0,.2,0v-.2c0-.1-.1-.2-.1-.3h.3a.19.19,0,0,0,.3,0c.1-.1.2-.1.3-.2a.48.48,0,0,1,.6-.2c.2.1.3,0,.4-.1s0-.1,0-.1a.1.1,0,0,0-.1-.1h-.3a.35.35,0,0,1,.1-.2.75.75,0,0,0,.7-.4l-.3.1a.37.37,0,0,1,.1-.3l-.6.2-.2-.2-.3.3a1.42,1.42,0,0,1-.6.2.66.66,0,0,0-.5.4c-.1.1-.1.2-.2.2s-.1.1-.2.1c0-.3.3-.4.3-.7l-.5.7-.1-.3a3,3,0,0,1-.7.5c-.2-.1,0-.2,0-.3-.3-.4-.3-.4.1-.5v.1c.1.2.1.2.3.1l.1-.1c.2-.1.5-.2.7-.3a.1.1,0,0,0,.1-.1,1.21,1.21,0,0,1,.5-.5c.1,0,.1-.1.1-.2h0a1.38,1.38,0,0,0-.4.3.76.76,0,0,1-.4-.1v-.4c-.8.2-.6.5-.9.7,0-.1-.2-.2-.2-.3a.76.76,0,0,1-.4.2c-.1,0-.3.2-.5.3l-.1.1c0-.2.2-.2.1-.4-.2.1-.3.4-.6.2l-.3.2a.6.6,0,0,0-.1-.4,1.09,1.09,0,0,1-.1-.5c0-.2,0-.2.2-.2.1.2.1.4.3.6.1-.2-.1-.3-.1-.5h.1c.1.2.1.3.3.4l.1-.3q-.3-.15,0-.3l.2.1.2-.5h.3s.2-.1.3,0l.1-.1c0-.1.1-.1.2-.1H73a1.38,1.38,0,0,0,.4-.3c-.1,0-.1-.1-.2-.1s-.3.1-.4.1l-.2-.2-.3.3c-.2-.1-.2-.2-.3-.5-.1.1-.2.1-.3.2s-.2.1-.3.2-.2,0-.3.1-.3.1-.4.2c-.1-.2-.1-.3-.2-.5s0-.3.3-.3a.76.76,0,0,0,.1.4c.2-.1,0-.3.1-.5l.1-.1c.1,0,0,.4,0-.4h.3c0,.8,0,.3.1.4s.1.2.1.3v-.3c0-.1,0-.2.1-.2s.1.3.3.2c0-.1-.2-.3.1-.4.1.1.1.3.3.4a.76.76,0,0,0-.1-.4c0-.1,0-.2.1-.2.1.4.1.4.2.3l-.1-.5h.1l.1.2.6-.8a1.78,1.78,0,0,0-1,.4c-.3.2-.3.2-.5-.1s-.1-.2.1-.4l.2.1c0-.1.1-.1.1-.2v-.2h.5l.3-.4c-.3-.1-.5.1-.7.2-.1-.2-.2-.1-.4-.1s0,.3-.3.3c.1-.1.1-.2.2-.4a.44.44,0,0,0-.5.1c-.1.1-.2.2-.3.2a.37.37,0,0,0-.3.1l-.2.2-.2-.1c0-.1-.1-.3-.1-.4s-.1-.2.2-.3c.1.2,0,.4.2.6h.1c0-.2-.1-.5-.1-.8s.3-.2.5-.3l.1.4c.2-.1.1-.2.1-.3s.1.1.2.1,0-.1,0-.2,0,0,.1-.1a.51.51,0,0,0,.5.4c0,.2.1.3.3.4.1-.2-.2-.5.2-.6-.1-.2-.1-.2.1-.3l.1-.1c0-.1-.1-.2-.1-.4h-.1a.1.1,0,0,0-.1.1l-.1.1-.1-.3-.4.3-.1-.2c-.2.2-.5.1-.6.3l-.2-.2a.37.37,0,0,0-.3.1c-.1,0-.3.2-.5.1s-.3,0-.4.2l-.2.2c-.1,0-.1-.1-.2-.1h-.2a.1.1,0,0,1-.1-.1c0-.1-.2-.1-.2,0s-.1.1-.1.2-.2-.1-.3,0a.45.45,0,0,1-.5,0l-.2.2c0-.1-.1-.1-.1-.2s0-.2.2-.2.1,0,.2-.1h.1l.1.2a1.63,1.63,0,0,0,0-.7l.2-.1c-.1-.1-.2-.2-.1-.4s0-.3.2-.3c0,.1.1.2.1.3l.1.1c.2-.1.2.1.3.2s.2-.1.1-.2c-.2-.3-.2-.3,0-.4.2.4.2.4.3.5.1-.2-.2-.4.1-.6.1.2,0,.5.2.7.2-.2-.1-.5,0-.7l.1.2c.2-.1-.1-.3.1-.5.1.3.1.3.2.3-.1-.4-.1-.4.1-.5,0,.2.1.3.1.5.1-.1.2-.1.1-.2a.75.75,0,0,1-.1-.5c.3.1.2.4.4.6,0-.1.1-.1.1-.2v-.2h0l.1.2c.2-.1.2-.2.1-.3s-.1-.2,0-.4l.2.1c.1-.2,0-.4.2-.6s.3-.3.4-.4l-.2-.2c0,.2-.3,0-.4.3h0c-.1-.1-.2,0-.4.1s-.1,0-.1,0a.49.49,0,0,0-.3.1c-.1.1-.1,0-.2,0s-.1.1-.2.1l-.2.2a.44.44,0,0,1-.5.1.37.37,0,0,0-.3.1h0c-.1.1-.2.2-.3.2l-.4.2a.35.35,0,0,0-.1-.2c-.1,0-.2,0-.2.1l-.2.2a.22.22,0,0,1-.2.2c-.1,0-.2.1-.4.1,0-.1-.1-.2-.1-.3l-.3.2v-.2c0-.1.1-.1.1-.2l.2-.2c.1-.1,0,.1,0,.1l.1.1a.6.6,0,0,0,.1-.4c0-.1,0-.2.1-.2.3-.1.5-.4.9-.4h0c.1,0,.2-.1.1-.2a.1.1,0,0,0-.1-.1c0-.1-.1-.1-.2,0s0,.1,0,.1c-.2-.1-.3.1-.4.1l-.1.1-.5.2-.1-.1c0-.1-.1-.3-.1-.4s-.1-.3.1-.5a.9.9,0,0,0,.1.5c.3-.1,0-.4.1-.5l.1.3.6-.3c0-.1,0-.3.2-.3l.2.2.2-.1.1.2.2-.2c0-.1-.2-.2,0-.4,0,.1,0,.1.1.2s.1.2.3.1.1-.1.1-.1c.2.1.3,0,.3-.2l.2-.1a.22.22,0,0,0,.2.2c.1-.1,0-.2,0-.3v-.1H70c-.1,0-.1.1-.2.1l-.3-.2.1-.2h0l-.3.2V35l-.4.2-.3-.3-.7.4c-.1-.1-.4-.1-.4-.5l-.1.1c-.2.3-.3.4-.7.3h0v-.1A.37.37,0,0,0,67,35c0-.1.3-.2.3-.4l.1-.1a.1.1,0,0,1,.1.1v.2c0,.1,0,.1.1.1h0v-.1A.68.68,0,0,1,68,34h0c.2-.2.2-.5.5-.6l.2.1a1.42,1.42,0,0,1,.2-.6.76.76,0,0,1,.2-.4c-.3-.1-.3.3-.5.4l-.2-.1c-.1.1-.1.2-.2.3s-.3.2-.4.3v-.3c0-.1-.3.1-.3.1v.2h-.1l-.2-.2-.4-.1-.5.3v-.3c0-.1-.1-.2.1-.3,0,.1.1.2.1.3h.1v-.5h0l.1.2a.48.48,0,0,0,.2-.6h0v-.3H67l.1.3c.1-.1,0-.3.1-.3s.1-.3.1-.4a.6.6,0,0,1,.1-.4V31c.2-.1.2-.3.2-.5a.35.35,0,0,0-.1-.2h0a2.19,2.19,0,0,1-.3.5,9.22,9.22,0,0,1-.5.8.1.1,0,0,1-.1.1l-.7.3v-.2c.3,0,.2-.2.2-.3s.1-.2.2-.3l.2.1a1.61,1.61,0,0,1,.4-.7c0-.2.1-.3.1-.5s0-.3-.2-.4c-.1.1-.1.3-.2.4a.19.19,0,0,0,0,.3h0a.37.37,0,0,0-.3.1c-.1.1-.4.3-.5.5a2.09,2.09,0,0,1-.6.4l-.1-.4a2.34,2.34,0,0,1,.7-.7l.1.1.3-.5-.2-.1c-.2.1-.3.3-.5.1a.76.76,0,0,1-.5.2v-.2c.2,0,.2-.1.2-.3s0-.1.1-.1a.1.1,0,0,0,.1-.1,1.7,1.7,0,0,0-.1-.7.1.1,0,0,1-.1-.1v-.1l.2-.1c0,.2.1.4.1.6h.1V27.7l.2.1c.1-.2-.1-.4,0-.6-.2.1-.3.2-.3.4a1,1,0,0,1-.4.5c-.1,0-.1.1-.2.1s-.2.2-.3.2q-.15.45-.3.3l.1-.1-.2-.1a.37.37,0,0,1,.1-.3c.1,0,.1-.3.1-.5V27a.37.37,0,0,0-.1-.3.35.35,0,0,1,.1-.2c-.1-.1-.2-.1-.2-.2l-.4.8-.3.2a.37.37,0,0,1-.1-.3.19.19,0,0,0,0-.3v-.1a1.85,1.85,0,0,0-.2-.7h-.3a1.42,1.42,0,0,0-.2.6.9.9,0,0,1,.1.5.1.1,0,0,1-.1.1c0-.3-.1-.4-.4-.4,0,.1-.1.1-.1.2v.4c0,.2,0,.3.1.4v.9a.35.35,0,0,0-.2.1c-.1-.1-.2-.1-.2-.2l-.2-.2c-.1,0-.1-.1-.2-.2s-.1-.3-.2-.4-.2-.1-.3-.2a.37.37,0,0,0-.1.3l.3.9V29c-.3,0-.4-.4-.7-.5a.82.82,0,0,0,.1.7c.1.2,0,.5,0,.7.2.2.4-.1.5.1v.4c-.2-.1,0-.3-.1-.4l-.1.1a.88.88,0,0,1-.7-.1h-.1c-.2,0-.4-.2-.5,0-.5-.4-.6-.4-.8-.4.3.5.5,1,.8,1.5h.2l.2.2c0-.1.1-.1.1-.2s-.1-.1,0-.2l.4.4v-.2c.1.1.2.4.5.2-.1.3.3.2.3.5H61c-.3,0-.5-.1-.7-.1a.9.9,0,0,0-.5-.1h-.1c-.1,0-.3-.1-.4,0s0,0-.1,0-.2-.1-.4,0l.2.3h.2l.1.3h.1l.1-.2.2.2c0,.1,0,.1.1.1s.3.3.5.2c0,.1-.1.2,0,.3s0,.2-.1.2a.57.57,0,0,1-.7-.2h-.2c-.1-.1-.2-.1-.3-.2-.2.2-.3.2-.5,0a.35.35,0,0,0-.2-.1c-.3,0-.4-.3-.6-.4,0-.2-.2-.2-.4-.2a3.55,3.55,0,0,0,.2,1l.2-.1c-.1.1,0,.2.1.3a.37.37,0,0,1,.1.3l-.5-.5c-.2.1.1.2,0,.3s-.1,0-.2-.1-.3-.2-.4.1l-.5-.6-.4.1c0,.1.1.2.1.3a7.46,7.46,0,0,1,.7,1.2.1.1,0,0,0,.1.1h.1c0-.1-.1-.2-.1-.4a.22.22,0,0,1,.2.2c0,.1,0,.3.1.3s.3.3.6,0a.35.35,0,0,0,.1.2.37.37,0,0,0,.1.3c.1.2.3.3.5.5l.1-.2.1.1h.1v.3c0,.1-.2,0-.2,0a.37.37,0,0,0-.3.1l.1.4c-.3-.2-.4-.6-.7-.8v.3c-.1,0-.1-.2-.3-.2s-.1-.2-.3-.2v.3h-.1c-.1-.2-.2-.4-.5-.4l-.1-.1-.1-.1h0l.2.5c-.3-.2-.2-.6-.5-.7l-.3.2c.2.2.1.6.3.8l.1-.4.3.3v.1l-.1-.2a.3.3,0,0,0,0,.4,1.42,1.42,0,0,1,.2.6v.2l.1.1v-.1c0-.3-.1-.6-.1-.9s.1-.2.2-.3c.1.3,0,.5.1.7s0,.5.1.7c.2-.1,0-.3.1-.4l.3.2V37a.1.1,0,0,0,.2,0v-.7c.2.1.2.1.2.3v.6c0,.1,0,.2.2.2v-.7c.3.2.1.5.2.7a.1.1,0,0,0-.1.1c0,.1-.1.1-.1.2l-.3-.2a.35.35,0,0,0-.2-.1c-.2.1-.3,0-.4-.1s-.1,0-.2-.1h-.1c-.1.2-.1.2-.3.1a.19.19,0,0,0-.3,0l-.2.1-.3-.2c-.2.1-.3,0-.5,0l-.1.2c0-.1-.1-.1-.1-.2a.37.37,0,0,0-.3-.1c-.1,0-.1.1-.1.3v.1h.1a1.42,1.42,0,0,1,.2.6l.1-.2h.1a.9.9,0,0,1-.1.5c0,.2-.1.3,0,.6.2-.3.1-.6.2-.9.3.3,0,.6.1.8.1-.1.1-.2.2-.2s.1.1.1.2h.1c.2-.2,0-.5.1-.7.2.1,0,.4.2.5v-.5h.1a.35.35,0,0,1,.1.2v.3c0,.1,0,.1.1.2s.1.2.1.3a1.42,1.42,0,0,0,.2.6.22.22,0,0,1-.2-.2c-.1-.2-.2-.3-.3-.5s-.1-.2-.2-.1v.4l-.5-.1c.1.2.1.3.2.4h0l-.2-.4h-.1l-.3.1c0,.1-.1.2-.1.3-.3,0-.4-.4-.7-.4v.2c-.2,0-.4,0-.5-.2-.1,0-.1-.1-.2,0l.1.3-.2.1c0,.1.1.1.1.2a.35.35,0,0,0,.2.1l.2.1.2.1c0,.2.1.3.2.5v-.5c0-.2.2,0,.2.1s.1.2.1.4a.1.1,0,0,0,.1.1,1.27,1.27,0,0,0-.1-.6h.3c.1.2,0,.4.2.5v-.3a.48.48,0,0,1,.2.6h0c-.1,0-.2-.1-.3,0a.19.19,0,0,1-.3,0c-.1-.1-.2-.1-.2,0,0,.3.3.5.3.8h.1l.1-.3c.3,0,.1.4.3.5.1-.2,0-.4,0-.5.3-.1.2.3.3.3l.2-.2c0,.2.1.3.1.5a.4.4,0,0,0,.2.4v-.7c.2.1.3.2.3.4v.2a.36.36,0,0,1-.2.3.37.37,0,0,1-.3-.1h-.1l-.1.2c-.2,0-.2,0-.3.3-.1-.2-.3-.2-.5-.2s-.2-.1-.3.1,0,.1-.1.1l-1.2-.1-.2.2.1.1c.2.2.2.2.1.4l-.1.2h0l.5-.5c0,.3-.3.5-.2.8l.3-.8c.1.3-.1.5,0,.7l.2-.6c.3.1.1.3.2.5,0,0,.1-.1.1,0,.2.1.2.1.2-.1s0-.2.1-.2l.1.4h.1l.1-.3a.6.6,0,0,1,.1.4v.4h0c.1-.1.1-.2.2-.3.2.1.1.2,0,.2s-.1.2-.1.3-.1.2,0,.3c.2-.2.2-.4.3-.6h.2v.4a.76.76,0,0,0,.2-.4c0-.1,0-.2.2-.2s.1.2.1.3v-.3c0-.1,0-.4.1-.3s.1.4.1.5V44h.3c.1.3,0,.6.3.9l.1-.3c.2.1.3.2.2.5h-.1a.45.45,0,0,0-.5,0,.75.75,0,0,1-.8.1c-.1-.1-.2,0-.2.2v.1l-.3-.1c-.1.1-.2.2-.3.1s-.5-.2-.7-.3-.7-.2-1.1-.3c-.1,0-.2.1-.1.2s.1.2.2.3h0v.3h0l.1-.2c.1.1.1.1.1.5l.2-.3.2.2c0-.1.1-.2.1-.3h0V46c.1-.1.1-.3.3-.2,0,.3-.1.7-.1,1h.1a3.09,3.09,0,0,1,.2-.8c.3.3,0,.5.1.8.2,0,.1-.2.2-.3l.3.1c.1-.2.4-.5.3-.7v.3c0-.1.1-.2.3-.1,0,.3-.1.5-.1.9.2-.2.1-.5.3-.7a5,5,0,0,0-.2,1.2h-.4a.19.19,0,0,1-.3,0l-.2.2v.2c-.2,0-.1-.2-.1-.3a.52.52,0,0,0-.2.4c0,.2-.1.4-.3.4s-.2-.2-.3-.1c-.2-.1-.4-.1-.6-.2A.1.1,0,0,1,53,48c0-.1-.2-.3-.4-.5a.35.35,0,0,1-.1.2.37.37,0,0,1-.5-.2c-.1-.2-.1-.2-.2-.2s0,.1,0,.1-.1.2-.2.1l-.2-.2a.76.76,0,0,0-.4-.2l.1.3a.66.66,0,0,1-.4-.5v.2c0-.1-.4-.1-.6,0a1.79,1.79,0,0,1,.5.7c0,.2,0,.3.1.4h.2c.1.1,0,.3.1.4.1-.1,0-.3.1-.4.1.3,0,.5.1.8.2-.1.1-.2.1-.3a.76.76,0,0,1,.1-.4c.1.4.1.4.2.5v-.4a.22.22,0,0,1,.2.2c0,.1,0,.2.1.2v-.3l.3.1c-.1.1-.1.2-.2.3.2.1,0,.3.1.6,0-.1.1-.1.1-.2.1-.3.1-.3.3-.2s-.1.4-.1.5h-.2c-.2-.1-.4,0-.6.2h-.7c-.1,0-.1,0-.1.1V50a.35.35,0,0,0,.2.1c.1,0,.3.1.4.1s-.1.4.1.5a.1.1,0,0,1,.1-.1h0v.1c.2-.2.2-.4.4-.3l.1.4c.2-.1,0-.4.2-.5.2.2,0,.5.2.8v-.5h.3v.5c0,.2-.1.3,0,.5a.1.1,0,0,0,.1-.1,2.72,2.72,0,0,0,0-.9v-.1l.1-.1a.1.1,0,0,1,.1.1v1.3c.2-.1.2-.3.2-.5l.1-.5a.1.1,0,0,1,.1.1v.6c0,.2,0,.2.2.2,0-.6,0-.6.1-.6v.3c.3,0,.3-.1.2-.3v-.2h.1c0,.1,0,.1.1.2l.1.1L54,51c-.1-.3-.1-.4.1-.4v.5a.44.44,0,0,1-.4.6h0a2.18,2.18,0,0,0-.8.5c-.2.2-.3.4-.5.6-.2-.1-.3-.4-.6-.4l-.1.3c-.3-.1-.4-.5-.8-.3a.35.35,0,0,0-.1-.2c0-.1-.2-.2-.3-.3a1.08,1.08,0,0,1-.7-.3l-.1-.1-.3.1a.45.45,0,0,0,0,.5h.1s-.1.3,0,.4c.1-.1,0-.3.2-.4.1.2-.1.5.2.6v-.5a.22.22,0,0,1,.2-.2c.1,0,.1.1.1.2v.1c0,.2,0,.2.3.2.1,0,.1.1.2.1v.6c.2-.1.2-.1.2.1v.8c0,.2,0,.3.1.4a.35.35,0,0,0,.1-.2V54a1.7,1.7,0,0,1,.1-.7h.1a2.44,2.44,0,0,0,0,1.2c0-.1.1-.1.1-.2v-.5c0-.2,0-.2.1-.2s.2,0,.2.1h0v.4c.1-.1.1-.1.1-.2,0-.3,0-.3.3-.3l.1.3c.1-.1,0-.3.2-.3.1.2,0,.5.2.7v-.6c.1,0,.2.1.2.3a.37.37,0,0,0,.1.3h0A.37.37,0,0,1,53,54c.2.3,0,.6.2.9l.1-.3h.1c-.1.2,0,.5-.1.8-.2-.1-.4-.2-.5,0s-.2.1-.4,0-.3-.2-.5-.2c0,.2-.2.3-.4.3h-.3l-.5-.6c-.1-.1-.1-.2-.2-.1s0,.1-.1.2l-.3-.3-.1.1a1.59,1.59,0,0,0-1.2-.9c-.2-.2-.2-.4-.4-.6l-.1.1c-.1-.1-.1-.1-.3,0l-.2-.3-.1.1c-.2-.1-.1-.4-.3-.6a.78.78,0,0,0-.1.8,1.85,1.85,0,0,1,.2.7v.1a2.27,2.27,0,0,1,.1.4c0,.2,0,.1.1.2l.2-.3a.37.37,0,0,1,.1.3v.4a.1.1,0,0,0,.1.1h0v-.6c.1,0,.1.1.1.2a1.49,1.49,0,0,0,.1.6c0,.2.1.1.2.2,0,.4.1.8.1,1.2.2,0,.2-.1.2-.2.1.3.1.6.3.8a.45.45,0,0,0,0-.5v-.3a.1.1,0,0,1,.1-.1h.1c.1.1.2.2.1.3v.6h1.1v-.6c0-.1,0-.3.2-.3s.1.2.2.3,0,.2.1.2v-.3h.6a3.55,3.55,0,0,0,.2,1h.1c0-.3-.1-.5-.1-.8l.2.1v.2c.2.2.1.5.1.7a.37.37,0,0,1-.1.3.76.76,0,0,0-.2.5c-.1.3-.1.3-.4.3H51c-.3,0-.7-.1-1,.2-.2-.4-.4-.8-.9-.7,0-.2-.1-.4-.1-.7s-.1-.3-.2-.3-.2-.1-.1-.3h0c0-.2-.2-.2-.3-.2s-.1-.4-.3-.3a3.75,3.75,0,0,0-.1,1c.1-.2.1-.3.2-.4.1.3-.1.6,0,1h.1a1.09,1.09,0,0,0,.1-.5.37.37,0,0,1,.1.3,1.09,1.09,0,0,0-.1.5v.2c0,.1.1,0,.1.1v.5a1.44,1.44,0,0,1-.3-.2c-.1-.1,0-.2-.2-.3s-.3-.3-.6-.1c-.2-.2-.3-.4-.6-.3a.35.35,0,0,0-.2-.1l-.4-.1-.1.2-.4-.1c0,.2.1.2.2.3l-.1.2a.54.54,0,0,1,.3.4c0,.1.1.1.2.1s-.1.2,0,.4,0,.1,0,.2v.3c0,.1.1.1.2.1l-.1-1c.2.1.2.1.2.3a2.49,2.49,0,0,0,.1.8c0,.1,0,.1.1.1s-.1-.3.1-.3v.5c-.1,0-.2-.1-.3,0s-.1.2-.2.3-.1-.1-.2-.1l-.3-.3c-.1-.1-.1-.1-.2-.1a.44.44,0,0,1-.3.1.37.37,0,0,0-.1.3c0,.1-.3,0-.3.1l.5.3.5.3-.4.2c.2.1.4.2.4.4l.1-.3a.37.37,0,0,1,.1.3v.5c0,.1,0,.2.1.2a2.77,2.77,0,0,1,.1-.9c.1.3.1.6.2.9.1,0,.1-.1.1-.2a1.49,1.49,0,0,0-.1-.6c.2,0,.2.1.2.2a.6.6,0,0,0,.1.4l.1-.2c.1.1,0,.4.3.4v-.3c.1,0,.2,0,.2.1l.1.4c0,.1,0,.2.2.2a1.7,1.7,0,0,0-.1-.7h0c0,.1,0,.2.1.2s.1.2.1.3l.1.9c0,.1,0,.2.2.2v-.3c0-.1,0-.2.2-.1s0,.3.2.4c.1-.2-.1-.4.2-.5.1.4.1.4.3.4,0-.2-.2-.4,0-.6l.2.2c.1.1,0,.2.2.3v-.3a.22.22,0,0,1,.2-.2c.1,0,.1.4.3.4a4.33,4.33,0,0,0-.1-.5h.3L50,64c.1,0,.1,0,.2.1a.64.64,0,0,1,0,.6.19.19,0,0,0,0,.3l.5-.1a1.27,1.27,0,0,0,.1.6c.1.2,0,.1.1.1v-.8c0-.2,0-.2.2-.1v1.1l-.2.2a1.14,1.14,0,0,1-.8-.3c-.2-.1-.3-.2-.5-.3-.1.1-.1.4-.3.4s-.3-.2-.4-.4-.1-.1-.2,0a.35.35,0,0,0-.1.2,3,3,0,0,0-1-.4v.2a.37.37,0,0,1-.5-.2.65.65,0,0,0-.5-.2c0,.1.1.1.1.2s0,.1.1.2c-.1,0-.2-.1-.3-.2s-.3-.2-.5,0l-.4-.2c-.1,0-.2.1-.3.1s-.5.1-.8,0-.2,0-.3.2v.3l-.2.1.2.5h.1l.1-.4c.1,0,.1,0,.1.1a.52.52,0,0,0,.2.4v-.2c.2,0,.2,0,.3.2s.1.3.1.5l.1.1.2-.1c.2.5.2.5.4.4-.2-.3-.2-.4-.1-.5.1.1.1.3.3.3,0-.1-.2-.3,0-.4l.2.2h.1a.37.37,0,0,0-.1-.3c.2-.1.2.1.3.1s.1-.1.2,0l-.1.2c.1.1.3.1.3.2v.4c.2,0,.3-.2.4-.4l.1.4c0,.3.2.4.5.4,0,.1,0,.2.1.2h.2a.1.1,0,0,1,.1.1c-.2.1-.4,0-.5.2h0c-.2,0-.3.1-.4.3l-.3-.2-.2.2-.3-.3h-.1a.1.1,0,0,1-.1.1v.1l-.8-.3h-.4l-.4-.4c-.1-.1-.2-.1-.3.1l.3.6c.3-.1.2.2.3.3h.3c0,.2,0,.4.2.5h.3c0,.1.1.2.1.3s.1.2.2.1h0l-.2-.5c.2,0,.2,0,.3.1.1.3.2.5.3.8a.35.35,0,0,0,.1.2c-.3-.1-.4-.4-.6-.5l-.5.3-.6-.4c-.1-.1-.2-.1-.2.1s-.1.2-.2.1l-.2-.1c-.1,0-.1,0-.2.1l.5.5c.2,0,.2,0,.3.2v.3a.27.27,0,0,0,.3.3h.1v.7l-.4-.4c-.1-.1-.1,0-.1,0v.1l.3.3q-.15.6.3.6h.2c.1-.2.3-.1.4,0a.72.72,0,0,0,.8.1c.1.5.1.6.4.5v-.2l.3-.1c.1.1.1.3.3.4.1-.2-.1-.4,0-.6.2,0,.1.4.4.4v-.4c.1.2.3.2.5.1h0c.1.1.1.2.3.2l-.1-.2.3-.2c0,.1.1.2.1.4s0,.3.2.2a.6.6,0,0,0-.1-.4l.3-.1.2.3h.1v-.2c.2,0,.3.1.2.4l.2.1c.1-.2.1-.2.2-.2s0,.3.3.3v-.5h.4c0,.1.1.2.1.3a.37.37,0,0,0,.1.3c0,.1.2.1,0,.3l-.2-.3c-.1.1-.1.2-.2.3s-.2.1-.3.2-.1-.4-.4-.3c-.2-.1-.3.1-.5.1l-.2-.2a.3.3,0,0,1-.4,0h0a.33.33,0,0,1-.5,0c-.1-.1-.2-.1-.3.1a.35.35,0,0,1-.1.2h-.3c-.1,0-.2-.1-.3-.2-.2.1-.2.1-.4,0l-.1-.1h-.2a1.38,1.38,0,0,1-.4.3c-.1-.1-.1-.3-.3-.3s-.3-.1-.4.1l-.7-.4c-.2.1,0,.3-.1.4-.3.1-.5-.2-.8-.3.1.4.4.4.6.6h0c0,.3,0,.3.3.3a2.2,2.2,0,0,1,.8.1v.3c0-.1,0-.2.1-.2s-.1.3.1.4,0-.3.2-.2-.1.4.2.6l.1-.6c.1.1.1.1.1.6-.1.2-.4.2-.6.1a.45.45,0,0,0-.5,0l-.2-.2-.1.2-.3-.2-.3.2-.4-.3-.3.1H44c0,.1,0,.2.1.2s.2.2.2.3-.1.2.1.3a.37.37,0,0,1,.1-.3.1.1,0,0,1,.2,0c.1.1.1.3.3.4a.37.37,0,0,0,.5.2c.1.1,0,.4.2.5.1-.1-.1-.4.1-.5l.2.8c.3-.1,0-.4.2-.5l.2.2a1.09,1.09,0,0,0,.1.5c.1.2.1.1.1.1l.1-.1v-.5l.3-.1.1.5v-.3c0,.1.3.1.4.2a.35.35,0,0,1,.2.1c.3,0,.4.2.6.3a1,1,0,0,1,.7-.2,3.4,3.4,0,0,0,1,.1h.2v.1h-.4c-.2,0-.3-.1-.5-.1s-.3-.1-.4,0l-.3.3.1.2a.9.9,0,0,1-.5.1.76.76,0,0,1-.4-.2c-.1.2-.3.2-.5.2h-.4v.3h-.1c-.2,0-.3-.1-.5-.1s-.3,0-.4-.1l-.4-.3c-.3.2-.3.2-.5,0l-.2-.1h-.1c0,.2.2.3.2.5-.1-.1-.2-.3-.3-.4s-.3-.5-.4-.7a.35.35,0,0,0-.2-.1l-.1.2c-.3-.2-.4-.7-.7-.8-.2.2.1.4.1.6H43l.3.3c-.2.2,0,.4,0,.6h.1c0-.1.1-.2.1-.3s.2-.2.3-.1c-.4.8-.4.9-.3,1.2l.4-1.1c0,.1.1.2.1.3a1.63,1.63,0,0,0-.3,1.5c.2-.2,0-.5.2-.7.1.1.1.1.1.2a4.33,4.33,0,0,0-.1.5v.5l-.3.2c0-.1-.1-.3-.1-.4l-.1.2v.1l-.2-.1c-.3-.1-.3-.1-.4.2h-.1a.37.37,0,0,0-.6,0,.35.35,0,0,0-.2.1.52.52,0,0,1-.4-.2c-.2.1.1.2,0,.3h0l-.8-.1c-.2,0-.2,0-.3.2s-.1.1-.1.1a.35.35,0,0,0-.1.2c0,.2.1.2.3.2v-.4c.3.1.1.4.3.4l.1-.1.2.1v-.3a.1.1,0,0,1,.1.1v.2a.6.6,0,0,0,.1.4v1.2h.2a2.85,2.85,0,0,1,0-1.3c0,.1.1.3.1.4v.7c0,.2,0,.2.2.2.1-.3-.1-.7.1-1a.35.35,0,0,0,.1.2.9.9,0,0,0,.1.5c0,.2.1.2.2.1l-.1-.8c0-.2,0-.2.2-.2.1.6.1.6.2.6v-.4c0-.1,0-.2.2-.3s0,.2.2.2l.1-.4c.1,0,.1.1.2.1s.1.1.1.2h.1V81c.1.2.1.3.2.5s.1.2.2.1a1,1,0,0,1,.1-1.2c0,.1.1.2.1.3v.7a2.77,2.77,0,0,0,.1.9c0,.1.1.2.2.1s-.1-.4-.1-.6v-.6c0-.2-.1-.4.1-.6,0,.1.1.1.1.2a2.77,2.77,0,0,0,.1.9,2.77,2.77,0,0,1,.1.9.22.22,0,0,0,.2.2h0l-.1.2c0,.1.2.2.2.4-.1-.1-.3-.2-.4-.3s-.2-.2-.3-.3c-.4.1-.4.1-.4.5v.1c-.2,0-.5-.3-.5-.2v.3a.19.19,0,0,0-.3-.1h-.6v.3l-.5-.2c-.1.2-.3.1-.4.2a.4.4,0,0,0,.4.2c.1.1-.1.4.2.6a2,2,0,0,1,.1-.7.55.55,0,0,1,.3.5v-.1a.76.76,0,0,0,.2.4,4.33,4.33,0,0,0-.1-.5.6.6,0,0,1,.1-.4c-.1.8,0,.9.2,1,0-.3-.1-.6-.1-.9h0c.2.3,0,.6.3.9v-.2a.75.75,0,0,0-.1-.5c-.1-.2,0-.1.1-.1.1.3.3.7,0,1h.2c.1.4.1.4.3.3,0-.2-.2-.4,0-.6.2.2,0,.5.2.7v-.8c0-.1,0-.2.2-.2a1.27,1.27,0,0,1,.1.6.52.52,0,0,0,.2.4h0l-.1-1c.2,0,.2,0,.3.2a1.27,1.27,0,0,1,.1.6c0,.2,0,.2.2.1V85c0-.2-.1-.5-.1-.8,0-.1,0-.1.1-.2l.1.1v.1l.3.9a.1.1,0,0,0,.1.1,3.59,3.59,0,0,0-.2-1.1l.3-.1a2.54,2.54,0,0,0,.2.7l.3.5h0a.76.76,0,0,0-.1-.4.37.37,0,0,1,.1-.3c.1-.1.2-.1.3-.2a6.89,6.89,0,0,0,.3.8v.2h-.1c0-.1-.1-.3-.1-.4a.4.4,0,0,0-.2-.4c-.2-.1,0,.1,0,.1.1.4.2.8.3,1.1a.31.31,0,0,1,.2.1c0-.2,0-.3-.1-.4.1.1.2.2.2.3l.2.5c0,.1.1.2.2.3v-.4c.2.1.1.4.2.5h.2c.1.1.1.3.4.2a1,1,0,0,1-.2-.9v-.1a.49.49,0,0,0-.1-.3c-.1-.1-.2,0-.2.1s0,0-.1,0a.73.73,0,0,1,.2-.6l.6.7v.5c0,.1.1.1.2.1s-.1-.3-.1-.4v-.4a.75.75,0,0,0-.1-.5v-.3l.4.1c.1.1-.1.3.1.5a1.39,1.39,0,0,0,0-.9l-.6-.4c-.1-.2-.1-.3-.2-.4a1.27,1.27,0,0,1,.6-.1,1.39,1.39,0,0,1,0,.9l.2.3c.1-.1-.1-.3.1-.3v.3a4.33,4.33,0,0,0,.1.5l.1.1v-.4c.1.7.1.7.3.7V85l.3-.1-.1.3c.1.1.1.2.2.3s0,.2.2.2l-.1-.4.3-.2c0,.2.1.3.1.5s.1.1.2,0a1.7,1.7,0,0,1,0-1.4v.2h.3c0,.2.1.4,0,.6h-.1c0-.1-.1-.2-.1-.4V85c0,.1.1.1.2.1l.2.2c.1.2.1.5.2.7l.1.1h0c0-.3-.1-.7-.1-1l.3-.1v.3a2.77,2.77,0,0,0,.1.9h.1c0-.2-.1-.5.1-.6,0,.1.1.2.1.3h.1l.1-.1v-.1a1.09,1.09,0,0,1-.1-.5l.6-.4a2.19,2.19,0,0,1,.3.5.22.22,0,0,0,.2-.2c0-.2-.1-.3-.1-.5a.37.37,0,0,1,.2-.5.37.37,0,0,0,.1-.3c0-.1-.1-.4-.1-.5V83c0,.1.2.3.2.4a7.57,7.57,0,0,1-.1,1.5.6.6,0,0,0,.1.4c.2-.1,0-.3.1-.4l.4-.3c0-.1.1-.2.2-.3l.2.3v-.3c0-.1,0-.2.2-.2v.7c0,.2-.1.4-.3.4s0-.2-.2-.3c-.1.1,0,.2-.1.4a.76.76,0,0,1-.1.4.19.19,0,0,0,.3,0c.1-.1.1-.2.3-.1s0,.3,0,.4c.2,0,.2-.1.2-.2v-.2a1.4,1.4,0,0,1,.4-.5h0c0,.1.1.1.2.2,0-.1.1-.2.1-.3v-.5a.86.86,0,0,1,.3-.6,1.27,1.27,0,0,0,.1.6h0s0,.1.1,0c.2.2.4.3.5.2.2.2,0,.6.3.8a2,2,0,0,0-.1-.8c-.1-.3.1-.4.2-.6a2.2,2.2,0,0,1,.1.8,1.88,1.88,0,0,0,.2.8.85.85,0,0,0,0-.7,1.42,1.42,0,0,1,.2-.6v.4a3.75,3.75,0,0,0,.1,1.1c0,.1,0,.1.1.2V84.8c0-.4,0-.3.3-.4v.3l.1,1c0,.1,0,.1.1.2a.37.37,0,0,0,.1-.3c0-.3-.2-.7.1-1h0l-.5-.6c0-.2,0-.3.1-.4a.62.62,0,0,1-.1-.7.37.37,0,0,0,.1.3.37.37,0,0,1,.1.3l.2,1.5.1.3c.2-.2.1-.3.1-.5v-.5a.9.9,0,0,1,.1-.5c.1-.1,0-.3.1-.5.1.3,0,.5.2.8v-.9c0-.2.1-.4.3-.4a1.41,1.41,0,0,1,.9.1l.8.5v.4l-.3.3a1.27,1.27,0,0,0,.1.6c0-.1.1-.2.1-.3h.1v.2h.2c.1.3,0,.6.3.8,0-.2-.1-.4-.1-.6l.3-.3a2,2,0,0,0-.1.8,2.35,2.35,0,0,0,.2.8l.2-.1.1.1a4.05,4.05,0,0,1,.5.9v4.1a6.15,6.15,0,0,1-.1,1.4,7.08,7.08,0,0,0-.1,1.5,5.46,5.46,0,0,1-.6,1.8l-.1.1c-.1-.2,0-.5-.3-.5l-.1-.6a.1.1,0,0,0-.1.1v1.7c0,.2-.1.2-.3.2,0-.1,0-.2-.1-.2a.19.19,0,0,0-.3,0c-.1.1-.2.1-.4.2-.1-.2-.2-.4,0-.6-.5,0-.4-.3-.5-.6-.2.2-.1.4-.2.6.1.1.3.1.4.2s.1.3,0,.5h0l-.2-.1V97l-.4.1c-.3.1-.5.2-.8.3a3.26,3.26,0,0,1-1.3.4.37.37,0,0,0-.3.1c-.1.1-.1.2-.1.4a2.15,2.15,0,0,1,1.1-.2,1.42,1.42,0,0,0,.6-.2.76.76,0,0,1,.4-.2c.1,0,.2-.1.3-.1h.5c.2.3.1.6.4.8a2.92,2.92,0,0,0-.2-.9c.1.1.2.2.2.3a4.33,4.33,0,0,0,.1.5c0,.2.1.2.2.1,0-.3-.1-.5-.1-.8.2,0,0,.3.2.3l.1-.3c.2,0,.2,0,.2-.3s0-.3.3-.3v.3l.4.2.4.1c0,.2-.1.1-.3.1a.37.37,0,0,0-.5.2l1.2.1h0l-.2-.1v-.1c.1-.2.3-.3.4-.2h.3a.64.64,0,0,1,.6,0c.1,0,.2.1.3.2v.1L63,98a1.49,1.49,0,0,0,.7.3l.8.3h.3a2.77,2.77,0,0,1,.9-.1h1.6a.3.3,0,0,1,.4,0c.5.1.9.1,1.4.2h.2a.1.1,0,0,0-.1-.1,5.9,5.9,0,0,0-1.4-.2c-.1,0-.3-.1-.3-.2l1.4.2a.1.1,0,0,0,.1-.1l-.2-.1c-.3-.1-.6-.1-.9-.2a4.8,4.8,0,0,0-1.2,0,1.78,1.78,0,0,1-1-.4,1,1,0,0,1-.4-.5,4.94,4.94,0,0,1-.8-1.8c0-.2-.1-.4-.1-.6V93.4c0-1.9,0-3.8.1-5.7,0-.3,0-.3.3-.3h.1c-.1-.2-.1-.3-.2-.5l.3-.2.1.3c0,.1,0,.2.1.2h.1c.1.1.1.2.2.3h.2v.2c0,.2,0,.4.2.5a.6.6,0,0,1,.1.4.6.6,0,0,0,.1.4c.1.1.1.1.1.2v-1c0-.1,0-.1.1-.2a.37.37,0,0,1,.1.3,1.7,1.7,0,0,0,.1.7c0,.1,0,.2.2.1v-.4a.55.55,0,0,1,.3-.5c.1.3,0,.7.2,1a.31.31,0,0,0,.1-.2c0-.1,0-.2.1-.2l.4-.4a1.42,1.42,0,0,1,.2.6v.8c0-.2.1-.4.1-.6s.1-.3.2-.5a.1.1,0,0,1,.1.1v1.1c0,.1,0,.1.1.1V87.9c.2.2.2.2.2.3v1.6a.1.1,0,0,0,.1.1h0V88.5c.2.1.2.1.3,0l.3.4.2-.2a3.4,3.4,0,0,0,.1,1c.1-.4.1-.9.2-1.3,0,.3.1.7.1,1h0l.1-.9h.2v.7c0,.2,0,.2.1.2v-.8c0-.2.1-.5.1-.7.1.3,0,.6.2.9v-.7a.66.66,0,0,1,.2-.7v1c0,.1,0,.2.1.2V87.4c.2,0,.2.2.2.3v.7c0,.2,0,.3.2.4V87.5l.2.1c0,.3.1.7.1,1l.1-.1v-1c-.2-.1-.1-.3-.2-.4a.76.76,0,0,1-.1.4c-.1,0-.2,0-.1-.1s-.1-.2-.3-.2a.1.1,0,0,1-.1-.1l.3-.2v-.5c0-.1.1-.5.1-.8s.1-.4.3-.4c.1.3-.1.6-.1.9a2.72,2.72,0,0,0,0,.9c0-.1.1-.3.1-.4a2.35,2.35,0,0,1,.2-.8.66.66,0,0,0,.1-.6c.1,0,.2,0,.1.1a4.33,4.33,0,0,0-.1.5,1.27,1.27,0,0,1-.1.6c0,.1.1.3.2.3v-.6h.1l.1.1c-.1.2,0,.3.1.5v.2c0,.2.1.4.1.7l.1.1c.1-.3,0-.6.2-.9.1.3,0,.5.1.8.2-.4,0-.8.3-1.2.1.4-.1.8.1,1.2a5.9,5.9,0,0,1,.2-1.4c.2,0,.2.1.2.2a4.14,4.14,0,0,1-.1,1c-.1.4,0,.2.1.4.1-.4,0-.8.3-1.1.2.1,0,.2.1.3s0,.3.1.4,0,.3.1.4c.1-.1,0-.2,0-.3a.37.37,0,0,1,.1-.3c0,.4,0,.4.1.5.1-.2,0-.5.1-.7.1.1.1.1.1.2,0,.3-.1.6-.1.8v.1l.1.1v-.8c.1.1.1.2.1.4s.1.2.2.1v-.3a.6.6,0,0,0-.1-.4.45.45,0,0,1,0-.6l.1-.1c.1.1,0,.2.2.3s.2.1.2.2a.1.1,0,0,0,.1.1h0v-.3h.2a6.6,6.6,0,0,0,.1,1.4.31.31,0,0,0,.1-.2v-.6a2,2,0,0,1,.1-.8c.1.1.2.2.1.3a2.77,2.77,0,0,1-.1.9v.6l.1.1v-.9a4.48,4.48,0,0,1,.1-1.1c0-.1,0-.2.2-.2a4.73,4.73,0,0,0,.1,1.7c.1,0,.1-.1.1-.2a.76.76,0,0,0-.1-.4c0-.4,0-.4.4-.3a2.2,2.2,0,0,0-.1-.8l-.1.1h-.1c-.1-.1-.1-.4-.3-.5s0-.2.1-.2h.2c0-.1.2-.2.3-.2s.1.1.1.3V86a.29.29,0,0,1,.3-.3c.1.3-.1.6,0,1h.1c0-.3.1-.5.1-.8l.9-.1c.1,0,.1.1.2.1a4.33,4.33,0,0,1-.1.5c0,.2-.1.3,0,.6a4.4,4.4,0,0,0,.2-1l.3.2c.1,0,.1.1.1.2l-.1.1v.1h.1a4.33,4.33,0,0,1,.1-.5c.1-.2,0-.4.1-.6,0,.4-.1.7-.1,1.1.2-.3.1-.7.3-1,.1.3-.1.6.1.9.2-.2,0-.6.3-.7h0a.6.6,0,0,0-.1-.4c.3.1.3.1.3.3s-.1.2.1.2c0-.2.1-.5.1-.7l.2.2c0-.1.1-.2.1-.3l.5.3a1.27,1.27,0,0,0-.1-.6l.2-.1c0,.1,0,.1-.1.2s.2,0,.2.1c.1.3.3.4.3.7v-.6s.4,0,.5-.1a.86.86,0,0,0,.3.8v-.5c0-.2.2-.3,0-.5-.2,0-.3.1-.6,0,.2-.1.3-.2.4-.2s0-.1,0-.1h-.6c.2-.2.5.3.7-.5h-.1a.37.37,0,0,1,.1-.3h.2a.37.37,0,0,0,.1.3,2.09,2.09,0,0,1,.4-.6,2.85,2.85,0,0,0,0,1.3.66.66,0,0,0,.1-.6,1.27,1.27,0,0,1,.1-.6.19.19,0,0,0,0-.3c-.1-.1,0-.1,0-.2.2,0,.2.1.2.2V84a3.55,3.55,0,0,0,.2-1c.1.1,0,.3.1.4s.1,0,.1-.1v-.9a.9.9,0,0,1,.1-.5l.1-.1c.2,0,.2,0,.3.1a.6.6,0,0,0,.1.4.31.31,0,0,0,.1.2v-.7c0,.1.1.2.2.3.1-.4.1-.4.2-.4s0,.3.2.4a.64.64,0,0,0,0-.6c-.2-.1-.1-.2-.1-.3.1.1.2,0,.2-.2S85.16,81.2,85,81.2ZM73.16,60.6c0,.1,0,.2.1.2s.1.1.2.1l.2-.2c-.2,0-.3,0-.2-.2s.2-.2.3-.3c0,.1,0,.3.2.3l-.4.5v.1c-.2-.1-.3.1-.4.2-.1-.2-.2-.3-.1-.5C73,60.7,73.06,60.6,73.16,60.6Zm-20.8-2.5v-.4l.3.1C52.56,58,52.56,58,52.36,58.1Zm10-28.8-.1-.5.2-.1A1.27,1.27,0,0,1,62.36,29.3Zm4.3,8c-.2-.2-.2-.3,0-.6,0,.2.1.4.3.4ZM76,85.8h0a1.14,1.14,0,0,0-.3-.8c-.1-.1-.2-.3-.3-.4s0-.1,0-.1.1.1.1.2a2.65,2.65,0,0,0,.5.6l.1.1A1,1,0,0,1,76,85.8Zm6.3-1.7h-.2c.1,0,0-.4.2-.8A2.13,2.13,0,0,1,82.26,84.1Z"/><path class="cls-10" d="M49.36,84.7h0v.4h.1Z"/><path class="cls-10" d="M66,98.1l-.1.2h.2Z"/><path class="cls-10" d="M47.16,73.8h0l.3.2h0Z"/><path class="cls-10" d="M62.86,97.4h0l-.2.2C62.86,97.6,62.76,97.5,62.86,97.4Z"/><path class="cls-10" d="M74.16,98.3h0a2.77,2.77,0,0,1-.9-.1,5.9,5.9,0,0,0-1.4-.2c-.2,0-.3,0-.4.2l-.1.1H71c-.3,0-.4,0-.5.3v.1c0-.1-.1-.1-.1-.2.1-.3-.2-.3-.3-.4a12.86,12.86,0,0,0-1.9-.4,2,2,0,0,1-.7-.1c-.3-.1-.2-.1-.3-.1h-.4c-.1,0-.2,0-.2-.2h0c.2,0,.4.1.6-.1-.2-.2-.3,0-.5-.1l.5-.1a3.29,3.29,0,0,1,.6-1.9,5.08,5.08,0,0,0-.3,1.7h.2c.1,0,0-.5.3-.7v.8c0,.2,0,.2-.2.3-.1-.1-.1-.2-.3-.1s-.1.1-.1.1,0,.1.1.2h.1a7.57,7.57,0,0,1,1.5.1h.2v-.2c-.1-.1-.2-.2-.1-.4h0c.1-.2.3-.4.4-.6h.1l-.4.7a.73.73,0,0,1,.2.6c.2.1.4.1.6.2s.1-.1.2-.1c.1.3.3.3.5.2a3.67,3.67,0,0,1,1.8.1c.3.1.7.1,1.1.2.1-.1.1-.3.3-.3s.1-.1.1-.2c-.3-.1-.6-.1-.9-.2H73a1.67,1.67,0,0,0-1.2.1c-.2.1-.3,0-.4-.1a.22.22,0,0,1,.2-.2,2.92,2.92,0,0,0,.9-.2c-.1-.3.1-.5.2-.7a3.51,3.51,0,0,0-1.4.6l-.1.6c-.1,0-.1,0-.2-.1s-.1-.2-.1-.3a.37.37,0,0,1,.1-.3c0-.1.1-.1.2-.2l.4-.2h-.5a.6.6,0,0,1-.4.1c-.2,0-.2.3-.3.3-.1-.2-.1-.3.1-.4a2,2,0,0,1,1.1-.3.6.6,0,0,0,.4-.1c.1,0,.1,0,.2-.1a.48.48,0,0,1,.6-.2H73a3.59,3.59,0,0,1-.2,1.1.67.67,0,0,0,.7-.6v-.2l-.2.4c-.1-.2-.1-.3.2-.7,0-.2-.2-.4-.1-.7a1.24,1.24,0,0,1,.1,1.7l-.1.1.9.1.5-.5c.1.3-.3.3-.2.6.1.1.1,0,.2-.1l.8-.8h.1c.1.1.1.2,0,.2s-.3.3-.5.5-.1.2-.1.4l1.1.5c.2.1,0,.1-.1.4a2.53,2.53,0,0,0-1.5-.6v.5c.8.1.4.2.5.2s.1,0,.1.1a.35.35,0,0,1-.2-.1.84.84,0,0,0-.7-.2c.1-.2.3-.1.5-.1v-.3a.1.1,0,0,0-.1-.1h-.2A6.66,6.66,0,0,1,74.16,98.3Z"/><path class="cls-10" d="M56,97.2a6.58,6.58,0,0,0,1.5-.4v-.4l.2.2.2-.1.1.2c.1,0,.2-.1.2-.3v-.6a1.93,1.93,0,0,0-.3-1c-.1-.1,0-.3.1-.4,0,.1.1.1.1.2a3.4,3.4,0,0,1,.3,2l-1.3.4v.5c-.2,0-.2,0-.2-.4l-.4.1v.2c-.1.1-.2.1-.2,0s-.2-.2-.4-.1a1.27,1.27,0,0,1-.6.1.9.9,0,0,1-.5-.1h-.3a3.09,3.09,0,0,1-.8.2c-.2,0-.4.1-.6.1a.37.37,0,0,1-.3-.1v-.1c.1,0,.1-.1.2-.1a3.89,3.89,0,0,0,1.5-.2,1.1,1.1,0,0,1,.8,0,.75.75,0,0,0,.5-.1,1.42,1.42,0,0,1-.2-.6c0-.2-.2-.4-.2-.6A3.07,3.07,0,0,1,56,97.2Z"/><path class="cls-10" d="M64.76,98.8H65l.9.1,1,.1h.3a1.27,1.27,0,0,0,.6.1.6.6,0,0,1,.4.1h.1c.3-.1.6.1.9.1a.22.22,0,0,1,.2.2.19.19,0,0,0,.3.1c.1-.1.4,0,.6,0v.1h-.1L69,99.6a.37.37,0,0,1-.3-.1.35.35,0,0,1-.2-.1,1,1,0,0,1-.7-.2h-.1c-.2.1-.4-.1-.6,0a1.73,1.73,0,0,0-1-.1c-.1,0-.3-.1-.4-.1l-.9-.2Z"/><path class="cls-10" d="M66.26,99.6h0a3.71,3.71,0,0,1,.9-.2c.1,0,.2,0,.2.1s.3.2.5.2l1.1.1h.1c0,.1-.1.1-.2.1l-1-.1h-.5a.37.37,0,0,1-.3-.1.37.37,0,0,0-.3-.1Z"/><path class="cls-10" d="M59,96.4l-.4-.1c0-.3-.2-.7,0-1.1h.1l.1.4H59A1.1,1.1,0,0,1,59,96.4Z"/><path class="cls-10" d="M70,97.6a.22.22,0,0,1-.2-.2V97c.1-.3.1-.7.2-1,0-.1.1-.3.2-.3-.1.3-.1.7-.2,1S70.06,97.3,70,97.6Z"/><path class="cls-10" d="M60.26,96.2a3.75,3.75,0,0,0-.1-1.1.35.35,0,0,0,.1-.2,1.48,1.48,0,0,1,0,1.3Z"/><path class="cls-10" d="M73,98.7a2.15,2.15,0,0,1-.8,0c-.3,0-.5-.1-.8-.1h.1a4.1,4.1,0,0,1,1.1.1Z"/><path class="cls-10" d="M81.06,71.6c.1.1.3.2.3.4s.1.1.1.2l.2.2c-.1,0-.2.1-.2,0a1.38,1.38,0,0,1-.3-.4c0-.1-.1-.2-.1-.3S80.86,71.6,81.06,71.6Z"/><path class="cls-10" d="M72.66,86.7l.2,1.1h-.2A2,2,0,0,1,72.66,86.7Z"/><path class="cls-10" d="M68.06,96.5a2.49,2.49,0,0,1,.1.8c-.2,0-.2-.1-.2-.2A.61.61,0,0,1,68.06,96.5Z"/><path class="cls-10" d="M61,98.5c.2-.2.4-.1.6-.1h.6A1.67,1.67,0,0,1,61,98.5Z"/><path class="cls-10" d="M66.36,96.2c0,.3.1.5.1.7l-.1.1a.1.1,0,0,1-.1-.1v-.3A.25.25,0,0,1,66.36,96.2Z"/><path class="cls-10" d="M58,97.2a1.69,1.69,0,0,1,1-.3l-1,.3Z"/><path class="cls-10" d="M68.66,96.6v.7l-.1.1c-.1,0-.1,0-.1-.1A.84.84,0,0,1,68.66,96.6Z"/><path class="cls-10" d="M75.46,87.3c.1.2,0,.5.3.6-.1,0-.2.1-.3.1s-.1-.1-.1-.2S75.36,87.5,75.46,87.3Z"/><path class="cls-10" d="M74.26,99.2a1.41,1.41,0,0,1-.9-.1C73.56,98.9,73.86,99,74.26,99.2Z"/><path class="cls-10" d="M85.76,82.1a1.06,1.06,0,0,1-.1-.8A1.06,1.06,0,0,1,85.76,82.1Z"/><path class="cls-10" d="M86,81a2.92,2.92,0,0,1,.2.9A1,1,0,0,1,86,81Z"/><path class="cls-10" d="M82.76,85.2a1.27,1.27,0,0,1,.1.6.31.31,0,0,1-.1.2A1.1,1.1,0,0,1,82.76,85.2Z"/><path class="cls-10" d="M57.26,96.7a.76.76,0,0,1-.2-.5l.1-.1a.55.55,0,0,1,.2.5C57.36,96.8,57.36,96.7,57.26,96.7Z"/><path class="cls-10" d="M58.06,96.8a3.55,3.55,0,0,1,1-.2A1.64,1.64,0,0,1,58.06,96.8Z"/><path class="cls-10" d="M75.26,99.1a1,1,0,0,1,.5.4C75.46,99.4,75.26,99.3,75.26,99.1Z"/><path class="cls-10" d="M65.56,29.1l-.1-.8a.35.35,0,0,1,.2.1h0c0,.3.1.6-.1.7Z"/><path class="cls-10" d="M52.66,85.2c.1.2.2.3.3.5a.19.19,0,0,1-.3,0A.45.45,0,0,1,52.66,85.2Z"/><path class="cls-10" d="M56.76,96.1a1.1,1.1,0,0,1,0,.8A1.1,1.1,0,0,1,56.76,96.1Z"/><path class="cls-10" d="M66.56,97v-.4l.3-.2A.6.6,0,0,1,66.56,97Z"/><path class="cls-10" d="M73.76,96.7l-.2.7c0-.1-.1-.1-.1-.2S73.66,96.7,73.76,96.7Z"/><path class="cls-10" d="M41.56,84.2l-.1-.6c.2.1.2.3.1.6Z"/><path class="cls-10" d="M61,97.2l.1.6c-.2,0-.2-.1-.2-.2h0C61,97.3,61,97.3,61,97.2Z"/><path class="cls-10" d="M68.06,34h.1v.5C68.06,34.4,68.16,34.2,68.06,34Z"/><path class="cls-10" d="M67.86,34.9a.66.66,0,0,1-.1-.6A.61.61,0,0,1,67.86,34.9Z"/><path class="cls-10" d="M68.46,39.6l.2.4C68.46,40,68.36,39.9,68.46,39.6Z"/><path class="cls-10" d="M59.86,96.3a.9.9,0,0,1,.1-.5C60.06,96.2,60.06,96.2,59.86,96.3Z"/><path class="cls-10" d="M45.16,72.3l.1.5C45,72.6,45,72.5,45.16,72.3Z"/><path class="cls-10" d="M71,41.3c-.2-.1-.2-.2-.1-.5Z"/><path class="cls-10" d="M66,96.8l.1-.5c.1.3.1.3-.1.5Z"/><path class="cls-10" d="M80,67.4l.2.3C80,67.8,79.86,67.7,80,67.4Z"/><path class="cls-10" d="M57.66,97.4h0c-.1,0-.2,0-.2-.1s.1,0,.2.1Z"/><path class="cls-10" d="M76.06,46l.1-.1.1.1Z"/><path class="cls-10" d="M60.46,96.4l.2-.1h0l-.2.1Z"/><circle class="cls-6" cx="134.99" cy="59.2" r="6.6"/><path class="cls-1" d="M173.14,59.66c-1.7,1-4.31,1.29-7,1.29a9.5,9.5,0,0,1-9.29-9.61,9.86,9.86,0,0,1,9.61-10.11,40.1,40.1,0,0,1,7.12.73s-.06,3.93-.06,4.22-.32.44-.61.44a.5.5,0,0,1-.39-.14c-.17-.91-1.08-4-6-4-4,0-6.92,4.16-6.92,8.26,0,4.57,2.52,9,7.62,9a6.15,6.15,0,0,0,4.48-1.7c.94-1,1.2-2.84,1.44-2.84a2.91,2.91,0,0,1,1,.26A21.81,21.81,0,0,1,173.14,59.66Z"/><path class="cls-1" d="M191.19,41.32c.2,1.46.58,2.67.85,4a.88.88,0,0,1-.53.15c-.21,0-.38-.06-.41-.21-.65-2.34-1.85-2.51-3.4-2.51h-2c-1.2,0-2.52,0-2.58.38a15.86,15.86,0,0,0-.15,2.46v4.68c0,.15.62.18,1.26.18h1.56c2.81,0,2.72-.06,3.22-2,0-.15.23-.21.44-.21a.78.78,0,0,1,.5.15v5.54a.85.85,0,0,1-.47.11.49.49,0,0,1-.47-.23c-.44-1.67-.56-1.67-.82-1.85a12.15,12.15,0,0,0-3.11-.23c-.82,0-2.11,0-2.11.26v4.54a11.69,11.69,0,0,0,.27,2.67c.08.26.76.29,2,.29h1.41a9.89,9.89,0,0,0,3.69-.49,5.45,5.45,0,0,0,1.84-3c0-.12.21-.18.41-.18a1.32,1.32,0,0,1,.73.18,37.18,37.18,0,0,0-1.58,4.86c-3.19,0-6.09-.12-10-.12-1.37,0-3.54.09-3.54.09a.91.91,0,0,1-.09-.47c0-.17,0-.38.09-.38.35,0,1.78-.26,2-.67a9.75,9.75,0,0,0,.2-2.76V45.51a13.45,13.45,0,0,0-.2-2.52c-.15-.35-1.67-.65-2-.65-.06,0-.12-.14-.12-.35a1,1,0,0,1,.12-.5s1.52.06,3.48.06C184.48,41.55,188,41.32,191.19,41.32Z"/><path class="cls-1" d="M206.19,41.49c6.76,0,10.1,4.75,10.1,9.44,0,5.39-3.57,9.93-10.13,9.93-1.29,0-3-.15-5-.09s-3.55.09-3.55.09a.79.79,0,0,1-.09-.44c0-.17,0-.41.09-.41.35,0,1.79-.26,2-.67a9.3,9.3,0,0,0,.21-2.76V45.51a12.71,12.71,0,0,0-.21-2.52c-.14-.35-1.67-.65-2-.65-.06,0-.11-.14-.11-.35a1,1,0,0,1,.11-.5s1.53.06,3.49.06S204.9,41.49,206.19,41.49ZM202.38,56.7a5.11,5.11,0,0,0,.44,2.23c.2.44,3.34.58,3.81.58,4.48,0,6.73-3,6.73-8.7,0-4-2.1-8-6.94-8h-.15c-.7,0-3.19,0-3.51.47a3.65,3.65,0,0,0-.38,1.85Z"/><path class="cls-1" d="M236.68,56.91c.41,1.08.59,1.52.85,2.1s1.76,1,2,1c.08,0,.11.38.11.56a.74.74,0,0,1-.06.29c-1.17-.06-1.93-.15-3.22-.15s-2.05.09-3.4.15c-.14-.15-.11-.85,0-.85.35,0,1.35-.17,1.5-.53a1.92,1.92,0,0,0,.06-.47,7.44,7.44,0,0,0-.41-2l-1.21-3.31s-.08-.11-.17-.11c-.76-.06-1.5-.09-2.23-.09-1.2,0-2.4.06-3.72.14-.06,0-.15.09-.15.09l-1.26,3.22a7.28,7.28,0,0,0-.49,2,.62.62,0,0,0,.23.58,4,4,0,0,0,1.7.47c.15,0,.12.67.06.85-1.17-.06-1.73-.15-3-.15s-1.7.09-3,.15a.87.87,0,0,1-.11-.44c0-.17.06-.41.11-.41a2.71,2.71,0,0,0,1.67-.56,10.88,10.88,0,0,0,1.38-2.75L229,43.6c.41-1.14.64-2.25,1.58-2.25a.8.8,0,0,1,.26.09Zm-7.17-4.84c.9,0,1.75,0,2.66-.09.06,0,.09-.14.09-.14l-2.37-6.48-2.52,6.54s0,.11.06.11C228.19,52,228.83,52.07,229.51,52.07Z"/><path class="cls-1" d="M257.87,46.8a5.69,5.69,0,0,1-3.43,4.66c-.15,0-.27.14-.18.29a21.64,21.64,0,0,0,3.37,5.16c1.55,1.69,3.28,3.07,4.57,3.07a1,1,0,0,1,.09.41.76.76,0,0,1-.09.44,3.9,3.9,0,0,1-.79.09c-3.4,0-5.6-2.08-7.12-4.22-2-2.9-2.78-4.31-3.84-4.78a4.12,4.12,0,0,0-1.08-.11c-.38,0-.7,0-.7.5v4.3a9.66,9.66,0,0,0,.23,2.55c.24.59,2.08.85,2.32.85.08,0,.11.21.11.41a1.55,1.55,0,0,1-.06.44c-1.17-.06-2.08-.15-3.8-.15-2,0-3.58.15-3.58.15a1.25,1.25,0,0,1-.09-.53c0-.17,0-.38.09-.38.35,0,1.79-.2,2-.61a9.3,9.3,0,0,0,.21-2.76V45.51a12.71,12.71,0,0,0-.21-2.52c-.14-.35-1.67-.65-2-.65-.06,0-.12-.14-.12-.35a1,1,0,0,1,.12-.5l3.52.06c1.73,0,2.4-.11,4.13-.11C253.94,41.44,257.87,42.78,257.87,46.8ZM249,42.93c-.24.06-.32.32-.35,3.22V49.7c0,.79,1.29.85,2.55.85H252a3.69,3.69,0,0,0,3.22-3.75c0-2.79-1.49-4.07-4.1-4.07A9.51,9.51,0,0,0,249,42.93Z"/><g class="cls-11"><path class="cls-1" d="M139.29,75.84c.35,1.11,2.23,5.68,3.48,8.8a.07.07,0,0,0,.07,0,.11.11,0,0,0,.09-.07s1.72-4,2.74-6.66c.32-.81.7-2.11.7-2.11.56,0,1.13.07,1.46.07.62,0,1.53,0,2-.07a.86.86,0,0,1,0,.26c0,.11,0,.25-.09.25h0a2,2,0,0,0-1,.35c-.15.1-.22.72-.22,1.18s.11,4.85.16,7.13a4.59,4.59,0,0,0,.27,1.62c.1.25,1,.39,1.17.39s.07.14.07.24a1.06,1.06,0,0,1,0,.27c-.7,0-1.32-.09-2.09-.09s-1.3,0-2.11.09a.52.52,0,0,1-.07-.28c0-.11,0-.23.07-.23a3.13,3.13,0,0,0,1.05-.27c.13-.07.21-.51.21-.75s0-.67,0-.93L147,78.88c0-.3-.14-1-.26-1s0,0-.09.12L143,86.75c-.07.16-.34.76-.65.76a.42.42,0,0,1-.16,0l-4-10.23c-.07,3.84-.28,8.71-.28,8.92a.93.93,0,0,0,.11.45,3.17,3.17,0,0,0,1.35.41s.07.14.07.26a1.31,1.31,0,0,1,0,.25c-.71,0-1.27-.09-2-.09s-1.25,0-2.06.09a.53.53,0,0,1-.09-.27c0-.1.06-.24.09-.24a2.92,2.92,0,0,0,1.37-.39A2.6,2.6,0,0,0,137,85.1c.07-4.22.19-6.92.19-7.68a3,3,0,0,0-.07-.7c-.09-.21-1.18-.37-1.39-.37,0,0-.07-.14-.07-.25a.51.51,0,0,1,.07-.26c.81,0,1.16.09,2,.09C138.27,75.93,138.9,75.87,139.29,75.84Z"/><path class="cls-1" d="M159.34,82.89c0,.51-.15.51-.5.51h-4.43c-.11,0-.15,0-.15.08a2.76,2.76,0,0,0,2.61,3,3.34,3.34,0,0,0,2.09-.7.26.26,0,0,1,.1.23.79.79,0,0,1-.1.32,3.29,3.29,0,0,1-2.53,1.28,3.67,3.67,0,0,1-3.55-3.78c0-2.53,1.56-4,3.48-4A2.9,2.9,0,0,1,159.34,82.89Zm-5-.36c0,.06,0,.13.11.13h3.42c.07,0,.09-.11.09-.18,0-.53-.54-2-1.74-2C154.76,80.46,154.3,82.17,154.3,82.53Z"/><path class="cls-1" d="M161.66,80.9s-.08-.23-.08-.37a.31.31,0,0,1,0-.12,3.81,3.81,0,0,0,1.11-.93,9.54,9.54,0,0,0,.81-1.25c.21,0,.53,0,.53.09v1.74h2.37c.09,0,.14.06.14.16a1.68,1.68,0,0,1-.17.67H164v4.31c0,.93.52,1.54,1.3,1.54a2.92,2.92,0,0,0,1.09-.33c.09,0,.26.33.24.35a3,3,0,0,1-1.93.83,2,2,0,0,1-2.06-2.23V80.9Z"/><path class="cls-1" d="M174.22,81.78v4.06a.76.76,0,0,0,.72.86,1,1,0,0,0,.61-.25s.07.09.07.15a.74.74,0,0,1-.09.36,2.19,2.19,0,0,1-1.23.62,1.64,1.64,0,0,1-1.28-1,3.4,3.4,0,0,1-2.18,1.06A1.66,1.66,0,0,1,169,85.87c0-1.63,2.39-2.12,3.74-2.63a.26.26,0,0,0,.16-.27V81.66a1.13,1.13,0,0,0-1.2-1.18,1.21,1.21,0,0,0-1.23,1.3c0,.44-.31.61-.72.61a.83.83,0,0,1-.68-.33c0-1,1.84-2.25,3.35-2.25C173.72,79.81,174.22,80.43,174.22,81.78Zm-1.34,3.94V83.91c-.79.33-2.43.56-2.43,1.7a1,1,0,0,0,1.08,1C172.18,86.6,172.88,86.12,172.88,85.72Z"/><path class="cls-1" d="M183.13,80c.05,0,.12-.11.12-.32v-1.9a5.73,5.73,0,0,0-.11-1.12c-.07-.25-.59-.28-.89-.28h-.16c-.07,0-.11-.07-.11-.2s0-.28.11-.28a4.7,4.7,0,0,0,2.44-.66h0c.1,0,.21.19.23.28a5,5,0,0,0-.2,1.53V85a6.8,6.8,0,0,0,.11,1.33c.09.34.95.3,1,.32s0,.16,0,.21,0,.26-.1.26a14.07,14.07,0,0,0-2.3.46c-.09,0-.11-.18-.11-.3v-.21c0-.09,0-.09-.07-.07a4.66,4.66,0,0,1-1.86.54A3.45,3.45,0,0,1,177.89,84a4.29,4.29,0,0,1,3.92-4.29A3,3,0,0,1,183.13,80Zm-3.73,3.48c0,1.58.88,3.16,2.58,3.16.8,0,1.27-.38,1.27-1V81.5c0-.39-.37-1-1.67-1C180.12,80.48,179.4,82,179.4,83.52Z"/><path class="cls-1" d="M193.38,81.78v4.06a.76.76,0,0,0,.72.86,1,1,0,0,0,.61-.25s.07.09.07.15a.74.74,0,0,1-.09.36,2.19,2.19,0,0,1-1.23.62,1.64,1.64,0,0,1-1.28-1A3.4,3.4,0,0,1,190,87.6a1.66,1.66,0,0,1-1.86-1.73c0-1.63,2.39-2.12,3.74-2.63A.26.26,0,0,0,192,83V81.66a1.13,1.13,0,0,0-1.2-1.18,1.21,1.21,0,0,0-1.23,1.3c0,.44-.31.61-.72.61a.83.83,0,0,1-.68-.33c0-1,1.84-2.25,3.35-2.25C192.88,79.81,193.38,80.43,193.38,81.78ZM192,85.72V83.91c-.79.33-2.43.56-2.43,1.7a1,1,0,0,0,1.08,1C191.34,86.6,192,86.12,192,85.72Z"/><path class="cls-1" d="M196.77,80.9c-.05,0-.09-.23-.09-.37s0-.1,0-.12a3.8,3.8,0,0,0,1.1-.93,8.52,8.52,0,0,0,.81-1.25c.21,0,.53,0,.53.09v1.74h2.37c.09,0,.14.06.14.16a1.68,1.68,0,0,1-.17.67h-2.34v4.31c0,.93.53,1.54,1.3,1.54a2.92,2.92,0,0,0,1.09-.33c.09,0,.27.33.25.35a3,3,0,0,1-1.94.83,2,2,0,0,1-2.05-2.23V80.9Z"/><path class="cls-1" d="M209.32,81.78v4.06a.76.76,0,0,0,.72.86,1,1,0,0,0,.61-.25c.06,0,.07.09.07.15a.86.86,0,0,1-.08.36,2.26,2.26,0,0,1-1.23.62,1.66,1.66,0,0,1-1.29-1,3.4,3.4,0,0,1-2.18,1.06,1.66,1.66,0,0,1-1.86-1.73c0-1.63,2.39-2.12,3.74-2.63A.26.26,0,0,0,208,83V81.66a1.13,1.13,0,0,0-1.19-1.18,1.21,1.21,0,0,0-1.23,1.3c0,.44-.32.61-.72.61a.84.84,0,0,1-.69-.33c0-1,1.85-2.25,3.36-2.25C208.83,79.81,209.32,80.43,209.32,81.78ZM208,85.72V83.91c-.79.33-2.42.56-2.42,1.7a1,1,0,0,0,1.07,1C207.28,86.6,208,86.12,208,85.72Z"/><path class="cls-1" d="M228.39,86.81a8.66,8.66,0,0,1-4.2.77,5.69,5.69,0,0,1-5.57-5.77,5.91,5.91,0,0,1,5.76-6.06,24.18,24.18,0,0,1,4.27.44s0,2.35,0,2.53-.2.26-.37.26a.29.29,0,0,1-.23-.08c-.1-.55-.65-2.41-3.59-2.41-2.37,0-4.14,2.49-4.14,5,0,2.74,1.51,5.37,4.57,5.37a3.73,3.73,0,0,0,2.69-1c.56-.59.72-1.7.86-1.7a1.75,1.75,0,0,1,.58.16A12.83,12.83,0,0,1,228.39,86.81Z"/><path class="cls-1" d="M236.79,81.78v4.06a.77.77,0,0,0,.72.86,1,1,0,0,0,.62-.25c.05,0,.07.09.07.15a.87.87,0,0,1-.09.36,2.22,2.22,0,0,1-1.23.62,1.64,1.64,0,0,1-1.28-1,3.4,3.4,0,0,1-2.18,1.06,1.66,1.66,0,0,1-1.87-1.73c0-1.63,2.39-2.12,3.75-2.63a.27.27,0,0,0,.16-.27V81.66a1.13,1.13,0,0,0-1.2-1.18,1.21,1.21,0,0,0-1.23,1.3c0,.44-.32.61-.72.61a.85.85,0,0,1-.69-.33c0-1,1.85-2.25,3.36-2.25C236.3,79.81,236.79,80.43,236.79,81.78Zm-1.33,3.94V83.91c-.79.33-2.43.56-2.43,1.7a1,1,0,0,0,1.07,1C234.75,86.6,235.46,86.12,235.46,85.72Z"/><path class="cls-1" d="M240.18,80.9c-.05,0-.08-.23-.08-.37a.31.31,0,0,1,0-.12,3.69,3.69,0,0,0,1.11-.93,9.54,9.54,0,0,0,.81-1.25c.21,0,.53,0,.53.09v1.74h2.37c.09,0,.14.06.14.16a1.68,1.68,0,0,1-.17.67h-2.34v4.31c0,.93.53,1.54,1.3,1.54a2.92,2.92,0,0,0,1.09-.33c.09,0,.26.33.24.35a3,3,0,0,1-1.93.83,2,2,0,0,1-2.06-2.23V80.9Z"/><path class="cls-1" d="M252.74,81.78v4.06a.76.76,0,0,0,.72.86,1,1,0,0,0,.61-.25c.05,0,.07.09.07.15a.74.74,0,0,1-.09.36,2.19,2.19,0,0,1-1.23.62,1.64,1.64,0,0,1-1.28-1,3.4,3.4,0,0,1-2.18,1.06,1.66,1.66,0,0,1-1.86-1.73c0-1.63,2.39-2.12,3.74-2.63a.26.26,0,0,0,.16-.27V81.66a1.13,1.13,0,0,0-1.2-1.18,1.21,1.21,0,0,0-1.23,1.3c0,.44-.31.61-.72.61a.83.83,0,0,1-.68-.33c0-1,1.84-2.25,3.35-2.25C252.24,79.81,252.74,80.43,252.74,81.78Zm-1.34,3.94V83.91c-.79.33-2.43.56-2.43,1.7a1,1,0,0,0,1.08,1C250.7,86.6,251.4,86.12,251.4,85.72Z"/><path class="cls-1" d="M257.27,77.82a6.55,6.55,0,0,0-.1-1.12c-.08-.25-.6-.28-.9-.28h-.16c-.07,0-.1-.07-.1-.2s0-.28.1-.28a4.7,4.7,0,0,0,2.44-.66h0c.1,0,.21.19.23.28a5,5,0,0,0-.2,1.53v8a6.46,6.46,0,0,0,.14,1.57c.06.19.92.35,1.06.35s.09.4.05.51c-.7,0-1.21-.09-1.88-.09s-1.19,0-1.91.09c-.09-.09-.09-.51,0-.51s1-.16,1.07-.35a6.27,6.27,0,0,0,.12-1.23Z"/><path class="cls-1" d="M269.94,83.68a3.84,3.84,0,0,1-3.79,3.92,3.89,3.89,0,0,1-3.85-3.92,3.78,3.78,0,0,1,3.81-3.89A3.86,3.86,0,0,1,269.94,83.68Zm-6.13-.27c0,1.94,1.18,3.5,2.5,3.5s2.12-1.4,2.12-3c0-1.93-1.19-3.44-2.51-3.44S263.81,81.83,263.81,83.41Z"/><path class="cls-1" d="M278.8,80.34h1c.06,0,.11.26.11.44s0,.24-.11.24h-1.24c-.06,0-.07,0-.07.06a3.33,3.33,0,0,1,.36,1.26A2.75,2.75,0,0,1,276,84.8a5.52,5.52,0,0,1-1-.07,1.54,1.54,0,0,0-.74,1c0,.72,1,.71,1.76.72,3,.06,3.94.64,3.94,1.69,0,1.76-1.64,3.31-4.08,3.32-1.42,0-3.23-.51-3.23-1.95,0-1,1.24-1.65,1.72-1.86a1.46,1.46,0,0,1-1.28-1.34c0-.68.75-1.4,1.28-1.75a2.49,2.49,0,0,1-1.42-2.22,2.73,2.73,0,0,1,3-2.46C277.2,79.88,277.52,80.34,278.8,80.34Zm-3.62,7.38a.21.21,0,0,0-.1,0c-.53.26-1.23.54-1.23,1.37,0,1.05,1.33,1.68,2.51,1.68,1.48,0,2.41-.93,2.41-1.84S278.08,87.72,275.18,87.72Zm.76-3.52a1.67,1.67,0,0,0,1.58-1.79,1.81,1.81,0,0,0-1.67-1.93,1.67,1.67,0,0,0-1.58,1.79A1.81,1.81,0,0,0,275.94,84.2Z"/></g><rect class="cls-12" x="158.35" y="66.34" width="105.38" height="2"/></svg>