<svg id="Layer_1" data-name="Layer 1" xmlns="http://www.w3.org/2000/svg" viewBox="0 0 251.9 105"><defs><style>.cls-1,.cls-2,.cls-3{fill:#f8f9fc;}.cls-2,.cls-3,.cls-4{stroke:#bbcedb;}.cls-2,.cls-3,.cls-4,.cls-6,.cls-7{stroke-miterlimit:10;}.cls-2,.cls-4{stroke-width:2px;}.cls-4,.cls-6{fill:none;}.cls-5{fill:#58797f;}.cls-6,.cls-7{stroke:#58797f;}.cls-7{fill:#fff;}</style></defs><polygon id="Path-726-Copy-76" class="cls-1" points="87.91 67.85 143.68 52.42 141.91 50.94 86.13 66.36 87.91 67.85"/><polygon id="Path-726-Copy-91" class="cls-1" points="113.67 66.6 132.22 93.72 133.71 92.49 115.16 65.37 113.67 66.6"/><polygon id="Path-726-Copy-103" class="cls-1" points="17.69 41.33 47.08 53.48 47.8 51.83 18.41 39.67 17.69 41.33"/><polygon id="Path-726-Copy-87" class="cls-1" points="21.02 41.21 51.18 30.99 49.97 29.63 19.8 39.85 21.02 41.21"/><polygon id="Path-726-Copy-76-2" data-name="Path-726-Copy-76" class="cls-1" points="95.03 44.36 114.91 16.59 113.36 15.59 93.49 43.36 95.03 44.36"/><polygon id="Path-726-Copy-103-2" data-name="Path-726-Copy-103" class="cls-1" points="39.13 100.28 58.95 75.47 57.99 74.58 38.18 99.4 39.13 100.28"/><polygon id="Path-726-Copy-76-3" data-name="Path-726-Copy-76" class="cls-1" points="111.57 19.25 156.93 62.14 157.12 59.55 111.76 16.66 111.57 19.25"/><ellipse id="backgr" class="cls-1" cx="183.06" cy="58.96" rx="40.75" ry="37.71"/><ellipse id="Oval-1-Copy-57" class="cls-2" cx="77" cy="59.56" rx="42.5" ry="39"/><polygon id="Path-726-Copy-88" class="cls-1" points="165.6 70.51 133.71 93.3 135.2 95.28 167.09 72.49 165.6 70.51"/><ellipse id="Oval-1-Copy-62" class="cls-3" cx="113.67" cy="17.84" rx="4.34" ry="4.73" transform="translate(36.55 103.23) rotate(-56.84)"/><ellipse id="Oval-1-Copy-62-2" data-name="Oval-1-Copy-62" class="cls-3" cx="38.97" cy="98.7" rx="2.49" ry="2.28" transform="translate(-66.97 92.55) rotate(-65.13)"/><ellipse id="Oval-1-Copy-73" class="cls-3" cx="133.2" cy="96.63" rx="4.97" ry="4.49"/><circle class="cls-3" cx="238.84" cy="20.8" r="6.59"/><circle class="cls-3" cx="14.65" cy="40.33" r="6.59"/><circle class="cls-3" cx="236.91" cy="94.71" r="6.59"/><line class="cls-4" x1="233.23" y1="24.83" x2="216.52" y2="36.83"/><line class="cls-4" x1="219.22" y1="78.62" x2="232.41" y2="90.62"/><path class="cls-5" d="M102,80.25l0-.26a.56.56,0,0,0-.48.16c-.09,0-.19-.08-.23-.06-.23.17-.51.1-.74.2l-.2.06-.41.19a1.22,1.22,0,0,0-.16.14c-.23-.13-.45,0-.71-.06l.55-.53-.09,0a.09.09,0,0,0-.09,0,2.72,2.72,0,0,1-.91.47,3.87,3.87,0,0,0-.47.28s-.11.06-.13,0c-.17-.14-.29,0-.41.07l-.26.19-.06,0c.14-.23.45-.36.4-.69-.31.08-.39.42-.64.56a.47.47,0,0,0-.53.08c-.12.09-.53.16-.53.26v-.24c0,.13-.31.24-.55.37.1-.35.64-.44.63-.81-.19,0-.23.15-.33.23s-.15.12-.19.1a.38.38,0,0,0-.47.13.67.67,0,0,1-.5.14.48.48,0,0,0,.2-.46c0-.27,0-.54,0-.81s0-.23.16-.25c.21.25,0,.56.18.83.07-.07.16-.11.18-.18s.06-.23,0-.28a.46.46,0,0,1-.06-.45l.28-.15c.07.19,0,.41.13.57a.65.65,0,0,0,.25-.34c.05-.14.12-.21.27-.1s.11.06.14,0a2.35,2.35,0,0,0,.46-.28c.12-.1.09-.15,0-.25a1.07,1.07,0,0,1-.19-.18l-.26.18,0-.19-.42.15,0,0,.44-.47a.37.37,0,0,0-.35.12l-.72.52a.36.36,0,0,1-.17.07H94.3c0-.26.22-.38.36-.53s-.17-.39,0-.58l.08.35c.06,0,.13,0,.16,0,.39-.34.77-.69,1.09-1a1.59,1.59,0,0,0,.43-.13.36.36,0,0,1,.31-.09.62.62,0,0,0,.18-.06L96.67,77l-.3.32c-.07,0-.12-.14-.18-.14s-.16,0-.19-.1.23-.27.09-.5a3.65,3.65,0,0,0-.41.27,4.51,4.51,0,0,0-.4.47c-.08.09-.14.18-.29.15,0-.21.32-.14.26-.4l-.38.1c-.2-.13-.28-.13-.46,0s-.14.2-.22.29-.11.13-.2.24c-.1-.24-.23-.19-.37-.12l-.35.17,0,0,.28-.36c-.38,0-.41.39-.69.45,0-.22.24-.38.19-.63-.3.22-.56.48-.85.7-.15-.25-.21-.28-.44-.22a.54.54,0,0,1-.27,0c-.14,0-.23,0-.34.09a4.6,4.6,0,0,1-.6.37.81.81,0,0,1-.38,0s-.08-.1-.11-.15.1-.07.15-.07a1.31,1.31,0,0,0,.76-.3s0-.11.07-.17c-.23-.14-.42.07-.62,0a1.11,1.11,0,0,1-.07-.84c.12.07.16.29.37.18,0-.49-.07-1-.11-1.48.26.1.28.31.3.5s0,.33,0,.49.06.07.1.11l.06,0v-.72l.08,0a.91.91,0,0,1,.11.22c0,.08,0,.21.17.2l.08-.68.21-.13c0,.14,0,.25.07.35s0,.24.17.28c.12-.42-.1-.83,0-1.25.17.06.26.13.25.29a2.37,2.37,0,0,0,0,.46,1.48,1.48,0,0,0,.12.7c.17-.26,0-.53.1-.76.17,0,.17.17.16.3s0,.4,0,.6a6,6,0,0,0,.07.61c0,.14.11.14.23.06-.21-.4-.07-.81-.08-1.26a1,1,0,0,1,.13.11,1.6,1.6,0,0,1,.17.64,1.76,1.76,0,0,0,.06.39.13.13,0,0,0,.19.1.29.29,0,0,0,.07-.17s0-.08,0-.12a.58.58,0,0,1,.11-.68c.09.26,0,.56.2.8.2-.08.2-.09.17-.19s-.08-.13-.08-.2c0-.51,0-1,0-1.53.15.12.15.12.15.28s0,.57,0,.85,0,.39.16.53c.16-.13.16-.13.14-.27,0-.31-.08-.61-.09-.92,0-.1.09-.2.14-.3l.29.11c.19-.3-.1-.63.1-.94a.29.29,0,0,1,.09.12,1.53,1.53,0,0,1,0,.3c0,.18,0,.33.19.34a1.44,1.44,0,0,1,.09.63V74.42c.87,0,.46.13.46.32s.17.31.2.46.09.07.13.1.08,0,.08,0V74.5s0,0,0,0,.08.09.09.14,0,.22,0,.33a1.72,1.72,0,0,0,.07.21h.09c.09-.37,0-.76.07-1.14.15,0,.25,0,.24.19s.26.39.26.57v-.68s.07.28.25.13c0-.19-.24-.36-.11-.58.23.37.23.37.45.28l-.23-.4h.18a1.69,1.69,0,0,0,.91.26s.11,0,.17.07l.24.07c0-.12,0-.24-.09-.25-.2,0-.32-.34-.59-.18l-.14-.32a.57.57,0,0,0-.08.08c0,.08,0,.17-.16.15s-.23,0-.15-.18a.25.25,0,0,0-.09-.07l-.26-.07.05-.2c-.27,0-.51,0-.75,0s-.41.17-.63,0c0,0-.08,0-.12,0h-.26a1.33,1.33,0,0,0-.2,0l-.42.11a.84.84,0,0,1-.24,0l.38-.17,0-.07-.45.07c0-.09,0-.15.09-.25a2.22,2.22,0,0,0-.36,0,4.91,4.91,0,0,0-.51.15,1.67,1.67,0,0,1-.85.11c0-.2,0-.37,0-.55s.05-.2.2-.16a2.5,2.5,0,0,1,.07.26c.11-.08,0-.32.19-.26a.65.65,0,0,1,.06.32v-.33c0-.06.3-.12.39-.18,0,.16.23.3.26.44.19-.17,0-.36.1-.57l.28-.07c0,.16,0,.28.07.42.13,0,.19-.12.15-.24s-.09-.24,0-.34c.16.07.46.08.46-.06V70.9c0,.07.18.2.2.31a2.74,2.74,0,0,0,.09.39s.07.06.17.13c0-.31,0-.55,0-.81l.21,0c.1.19,0,.4.17.6,0-.21.06-.36.08-.52s0-.16.15-.12,0,.36.14.48c.17-.1.08-.24.07-.36a.36.36,0,0,1,.24-.42c.09.05,0,.25.23.21l0-.61a2.47,2.47,0,0,0,1.08-.5l-.31,0c-.13,0-.33.08-.38,0s-.25-.08-.39,0a1.37,1.37,0,0,1-.25.09l0-.27-.61.2.07-.33-.78.45a.22.22,0,0,1,0-.19,1,1,0,0,1,.18-.1l-.07-.09-.4.2c0-.17-.15-.14-.26-.07s-.22.16-.37.1l0-.26-.75.41,0,0,.16-.22c-.12-.08-.19,0-.26,0s-.13.1-.16.09-.31,0-.46.07-.21,0-.23-.11-.05-.28-.07-.39l.42-.16.15.24c.14-.06.12-.14.1-.22a1.29,1.29,0,0,1-.08-.26s0-.08.12-.17l.12.6c.25-.11.24-.11.17-.3a.72.72,0,0,1-.06-.29c0-.15.09-.22.24-.19s0,.33.31.27l0-.39.33.17c0-.18-.12-.35,0-.5.19.42.19.42.34.39.08-.19-.21-.36,0-.56.15,0,.09.29.29.27L95,68c.12.19.2.38.42.32l-.06-.5a2.26,2.26,0,0,0,.4.28,2.28,2.28,0,0,0,.5.13c-.06-.1-.12-.17-.16-.25s-.07-.16-.11-.25l.31-.1c.13.38.33.55.59.5l-.49-.57.25-.22c-.21,0-.39.15-.55,0l0-.27-.42.29s0,0-.09,0l.09-.29-.5.19L95.05,67l-.32.09-.23-.21-.71.59c-.05-.18-.14-.23-.28-.15l-.57.32c0-.08,0-.13-.06-.17l-.09-.13a.2.2,0,0,1,.08-.3l.43-.2c-.09-.22-.09-.22,0-.3s.15.12.21.11.08-.13.07-.22v-.08c.21-.15.3,0,.39.13.19,0,.26-.13.16-.28s0-.23.09-.39c.06.18.09.31.13.43s.07.19.14.22a.31.31,0,0,1,.19.28.54.54,0,0,0,.1.18c.22-.13.19-.31.12-.49l.21.11.12-.26.19,0c0-.14,0-.23-.06-.33s-.06-.23.14-.24a1.55,1.55,0,0,0,0,.31s.09.09.13.13a.48.48,0,0,0,.08-.18,1.17,1.17,0,0,0,0-.27.5.5,0,0,1,.56,0c0,.17.1.3.35.29s.33.15.48,0l-.4-.18.16-.25c-.25,0-.47,0-.68,0s-.19,0-.2-.08.06-.13.11-.19.21-.1.17-.27l-.35.08c-.07-.24.35-.29.21-.56-.41.16-.61.56-1,.76l.14-.29,0,0-.42.31c.07-.26.28-.39.18-.62-.4.06-.61.36-.88.59l-.13-.36c-.15.1-.28.16-.39.25s-.19.22-.31.3a1.23,1.23,0,0,1-.42.19c-.09,0-.2,0-.32-.09,0-.31,0-.65,0-1a.3.3,0,0,1,.22-.28c0,.17,0,.31,0,.45s-.07.28.13.37c.06-.28-.09-.61.24-.81a2.66,2.66,0,0,0,.06.75.36.36,0,0,0,.11-.21,3.24,3.24,0,0,0,0-.76.45.45,0,0,1,.16-.4c0,.24-.05.49,0,.73.17-.29.1-.63.27-1l.2.44c.16-.16,0-.45.32-.46l.08.23h.06l.13-.27.39.11a2.94,2.94,0,0,0,0,.42c0,.12,0,.3.17.33.08-.25-.06-.53.09-.76.15,0,.18.08.19.18v.3c0,.09,0,.18.14.2l.11-.25.14.27a.25.25,0,0,0,0-.16.53.53,0,0,1,0-.18c0-.08.07-.19.14-.22s.14.08.17.17h0c.09-.26.09-.26.29-.32s.1.45.43.36l0-.24c.19,0,.4,0,.51-.19-.32,0-.25-.3-.39-.47l-.54.26a1.83,1.83,0,0,0-.21-.26c-.15-.13.06-.23,0-.37a.69.69,0,0,1-.17,0c-.16-.14-.28-.06-.4.06a1.72,1.72,0,0,1-.79.38l.45-.59,0,0-.28.11-.08-.24L94,62.6c-.19,0-.08-.25-.18-.39-.35.14-.45.6-.86.68a1.8,1.8,0,0,0,.14-.54c0-.16-.17-.31-.26-.46.17-.12.28,0,.44.09l.34-.36c.38.2.52.19.67-.07-.21.11-.33,0-.46-.1s0-.29,0-.47c-.41.13-.58.53-1,.62l.12-.28-.45.2a1.18,1.18,0,0,1,.2-.28c.07-.06.17-.12.09-.22s-.17,0-.24,0a.6.6,0,0,0-.13.09l-.65.48-.09-.19-.31.18,0,0,.23-.33c-.14,0-.24-.07-.31,0-.28.12-.55.25-.82.39l-.19.1-.07-.32c-.37-.07-.58.36-1,.29l.29-.31-.42-.24-.7.56c0-.18.24-.17.16-.36l-.4.21a4.14,4.14,0,0,1-.09-.46c0-.14-.11-.3.14-.4l.09.49c.2-.19,0-.44.13-.63s.18,0,.21.13.13.17.26.09a.31.31,0,0,1,0-.08c0-.06,0-.11,0-.16a.41.41,0,0,1,.15.07c.06.07.11.15.17.23a1.2,1.2,0,0,0,0-.52,3.1,3.1,0,0,0-.11-.46l-.25-.07c.29-.3.5.13.78,0a3.89,3.89,0,0,0,0,1.13c.19-.07.23-.18.18-.33a2.15,2.15,0,0,1,0-.8c.15-.06.29-.09.4,0s0,.34,0,.5,0,.24.13.22.11-.15.09-.25a.56.56,0,0,1,0-.12c0-.14,0-.34,0-.4s0-.19,0-.27.21,0,.23.09.05.38.07.57h.08a.65.65,0,0,0,.08-.22c0-.14,0-.26,0-.39s0-.19.22-.22l.12.59c.25-.09.29-.16.17-.33a.31.31,0,0,1-.07-.23h0c0-.86.21-.63.21-.61v.5a.15.15,0,0,0,.09,0h0c.08-.07.17-.14.17-.22,0-.24.07-.47.07-.71a.33.33,0,0,1,.31-.36c.1.24-.05.51.13.75.06,0,.13-.08.13-.12a1.45,1.45,0,0,0,0-.36c0-.26-.06-.52-.09-.78s.07-.19.23-.15a3,3,0,0,0,0,.31.85.85,0,0,0,0,.23s.08.08.12.12.1-.08.11-.12a3,3,0,0,0,0-.42c0-.11,0-.23,0-.35s.06,0,.1-.06l.1.18c.2,0,.2-.11.25-.24s-.08-.14-.13-.2.09-.18.27-.19a.31.31,0,0,0,.13-.06c.11-.1.2-.22.3-.32l-.37-.26.17-.29a.88.88,0,0,1-.33,0c-.12,0-.17,0-.23.09l-.57.67a.31.31,0,0,1-.09.07l0,0,.13-.26c-.38.05-.48.35-.6.68-.13-.26.19-.44,0-.67a2,2,0,0,0-.7.8,2.31,2.31,0,0,1-.83.92c-.13,0-.27-.12-.34-.08s-.28,0-.43-.07a.54.54,0,0,0,0,.23c.12.2.11.24-.12.31l-.16,0L89.5,58l-.23.05,0-.28L88.6,58l0,0c-.08.2-.21.21-.39.14s-.13,0-.18.06c-.36-.21-.24-.53-.26-.81l.28-.2.15.78c.27-.28,0-.59.09-.91l.25,0c.18.2,0,.51.35.65L88.71,57c.29-.07.22.15.28.25s.11.16.18.17.13-.09.24-.17c-.25-.07-.31-.18-.24-.37l.31-.16.1.32.34-.39c.2.4.28.43.52.19-.25,0-.25,0-.35-.47a1.86,1.86,0,0,1,.46-.31,1.5,1.5,0,0,0,.72-.49c0-.07.2-.07.15-.25a1.65,1.65,0,0,0-.52.33c-.06.06-.19.15-.21.13-.18-.13-.29,0-.43.07-.15-.15-.19-.16-.35-.06s-.19.16-.27.14c-.25,0-.36.14-.51.27s-.13.13-.2.13a4.72,4.72,0,0,1-.76,0l.21-.14a1.36,1.36,0,0,1,.2-.11,1.57,1.57,0,0,1-.23-1l.22.33a1.57,1.57,0,0,0,.06-.23,2.25,2.25,0,0,0-.06-.36.37.37,0,0,1,.23-.4c.06.21.12.39.17.57H89c0-.12,0-.24.08-.39.27.08.14.36.28.49.14,0,.14-.12.11-.21a.21.21,0,0,1,.14-.3l.35.21a.73.73,0,0,1,.25-.76c.1.1-.5.3.38.36v-.59a.94.94,0,0,0,.18.72c.13-.28-.26-.57-.06-.89l.16.31.1,0a1.6,1.6,0,0,0,0-.21c0-.22,0-.24.22-.23s.27-.07.2-.25,0-.34.21-.37l.17,0s0,0,.06-.07l-.14-.17c.26-.28.67-.39.81-.81-.28,0-.42.3-.68.31L91.79,52l-.16.1a1.07,1.07,0,0,1-.43.23.68.68,0,0,0-.44.19.35.35,0,0,1-.49,0,.18.18,0,0,0-.27,0c-.15.15-.31.29-.47.43l-.3.23c-.06,0-.09-.05-.1-.08-.15-.19-.17-.19-.37-.09l-.27.15a1.57,1.57,0,0,1-.13-.84.59.59,0,0,1,.13-.19c.18.23.08.53.32.77a2,2,0,0,0,0-.31c0-.2-.07-.4-.11-.6s0-.24.17-.28l.2.46c.26-.08,0-.29.13-.39.3.24.28.26.5-.06l.17.24c.21-.1-.06-.44.26-.46.1.1,0,.31.2.39.16-.21-.11-.45.07-.69a1.17,1.17,0,0,0,.13.23s.13.13.18.12a.19.19,0,0,0,.17-.22c0-.06,0-.12,0-.2.24.11.32.11.38,0a.86.86,0,0,1,.42-.46.5.5,0,0,0,.14-.15l.15-.14,0,0,0,.39c.29-.13.3-.16.1-.64l-.28.17,0-.17c-.27.29-.55.48-.91.24-.16.07-.3.12-.43.19s-.21.19-.36.06-.11,0-.16,0l-.42.3a1.44,1.44,0,0,0,.4-.89,1.37,1.37,0,0,0,.34-.15,4.19,4.19,0,0,0,.49-.54.67.67,0,0,1,.34-.23.93.93,0,0,0,.45-.47s0-.12,0-.2l-.14.05a3.21,3.21,0,0,1-.31.19c-.21.11-.29.06-.35-.16a1.07,1.07,0,0,0-.07-.19c-.34.11-.43.19-.41.49s-.07.17-.18.19l-.17-.2-.6-.07a1.28,1.28,0,0,1-.36.22,1.45,1.45,0,0,1-.44-.06.92.92,0,0,1,.48-.41,1.15,1.15,0,0,0,.29-.2s0-.09,0-.22a.88.88,0,0,1-.56.43c-.14-.23.07-.32.21-.51-.14,0-.23.09-.27.06s-.19-.1-.29,0-.06,0-.09,0a.78.78,0,0,0-.62.17.44.44,0,0,1-.56,0c-.17.17-.17.17-.47.09l0-.23a2.28,2.28,0,0,1,0-.26c-.27,0-.29.25-.5.31L86,48s0-.1,0-.1c-.25-.11-.13-.34-.17-.51s0-.17.18-.19l.12.4h.08c0-.16-.06-.36,0-.48a.67.67,0,0,0,.1-.49s0-.06,0-.09.05-.22.2-.24c.1.2.07.44.29.65,0-.19,0-.31-.06-.43s0-.21.2-.18c.17.29.06.67.31.94l0-.75.26.47c.24,0,.17.28.34.37s.19-.12.11-.27a3.29,3.29,0,0,1-.16-.44c.46-.14.46-.14.46-.33-.16.08-.31.13-.41-.06l.2-.46.24-.08.3.39c.3-.1-.11-.31.11-.4l.22.14c0-.23-.15-.43,0-.61.11,0,.22.07.27,0s0-.15,0-.22,0-.18.08-.24h.06c.06,0,.14.06.18,0s0-.13,0-.21a2.25,2.25,0,0,1-.09-.3.83.83,0,0,1,.31,0,.3.3,0,0,0,.35,0,1.81,1.81,0,0,0,.3-.25.58.58,0,0,1,.65-.22c.18.08.31,0,.46-.06s.06-.09,0-.13a.13.13,0,0,0-.09-.1,2.33,2.33,0,0,0-.3,0l.09-.27a.83.83,0,0,0,.73-.39l-.34.13.07-.35-.58.07-.22-.17a1.27,1.27,0,0,1-.31.34,2.37,2.37,0,0,1-.65.22.94.94,0,0,0-.57.37,2.27,2.27,0,0,1-.18.25.74.74,0,0,1-.18.09c0-.27.31-.4.33-.72l-.78.69-.12-.27a3.21,3.21,0,0,1-.79.53c-.21-.15,0-.26,0-.36-.29-.39-.28-.45.09-.58l0,.11c.08.23.15.25.35.1a.42.42,0,0,1,.14-.09A5.69,5.69,0,0,1,89,43a.13.13,0,0,0,.1-.08,2,2,0,0,1,.55-.53.19.19,0,0,0,.11-.25c-.19.12-.31.24-.46.33a1.59,1.59,0,0,1-.4-.07V42c-.88.26-.72.5-1,.74,0-.12-.19-.21-.23-.34-.15.1-.29.26-.43.26s-.36.2-.5.34l-.13.11c0-.17.21-.21.11-.38-.23.06-.37.45-.67.18l-.28.25a.69.69,0,0,0-.12-.38,2.41,2.41,0,0,1-.17-.58c0-.22,0-.23.26-.24.11.19.11.45.35.59.16-.21-.17-.32-.07-.52l.17,0c.09.15.07.35.29.46l.14-.32c-.27-.15-.27-.18,0-.35l.2.15c.08-.22.14-.41.19-.56s.33.05.38,0,.25-.08.39,0,.1-.1.12-.15.15-.14.22-.09.18,0,.27,0a1.21,1.21,0,0,0,.5-.37c-.08,0-.15-.14-.21-.14a1.79,1.79,0,0,0-.42.12L88,40.43l-.39.31a.53.53,0,0,1-.29-.51,3.4,3.4,0,0,0-.3.22,1.27,1.27,0,0,0-.24.28c-.09.14-.23,0-.34.08A1.52,1.52,0,0,1,86,41a4.13,4.13,0,0,1-.19-.52c-.06-.22,0-.29.29-.33,0,.12.05.23.08.38.21-.13.05-.36.1-.5s.11-.1.16-.1,0,.44,0-.42h.31c0,.86,0,.35.06.42s.09.24.14.27a.35.35,0,0,0,0-.13c0-.06,0-.11,0-.17s0-.19.11-.2.11.26.3.19c0-.16-.2-.36.1-.46.11.13.07.34.32.42,0-.15-.05-.27-.07-.38s0-.25.15-.26c.11.37.11.37.27.34L88.16,39h.07l.12.17.69-.83a2.37,2.37,0,0,0-1.1.44c-.29.21-.37.17-.54-.14s-.12-.24.1-.39l.2.12a1.76,1.76,0,0,0,.09-.2.86.86,0,0,0,0-.24l.54.06-.14-.32c-.35-.13-.53.12-.75.27-.13-.18-.27-.09-.4-.07s0,.37-.29.31l.22-.41a.42.42,0,0,0-.52.11c-.1.1-.18.25-.36.21a.31.31,0,0,0-.32.12,2.15,2.15,0,0,1-.24.18l-.26-.09c0-.14-.09-.26-.13-.39s-.06-.23.19-.37c.11.19,0,.46.24.61l.08-.06c0-.26-.11-.52-.17-.81.1-.18.33-.22.52-.29l.13.37c.24-.09.08-.25.11-.31s.15.1.21.08,0-.13,0-.2,0,0,.06-.11c.07.35.3.41.59.39a.39.39,0,0,0,.35.37c.13-.22-.23-.57.19-.69-.06-.18-.06-.18.09-.33s.34-.34.52-.5a.15.15,0,0,0,0-.23l-.07,0c-.17.12-.32.3-.57.19,0,0-.1.06-.15.09a1.49,1.49,0,0,0-.14.12L87.25,36l-.27.34-.15-.2c-.19.24-.51.11-.69.28-.09-.07-.16-.16-.23-.16a1.25,1.25,0,0,0-.37.09c-.17,0-.36.17-.52.14a.47.47,0,0,0-.48.19l-.17.18a.85.85,0,0,0-.22-.13,1.85,1.85,0,0,0-.24,0s-.07,0-.11,0-.19-.07-.26,0-.08.14-.11.2-.23-.07-.31,0a.58.58,0,0,1-.57,0l-.25.29-.08-.23c0-.21,0-.25.22-.25a1,1,0,0,0,.21-.09l.07,0,.12.25c.13-.28,0-.54,0-.77l.26-.16a.47.47,0,0,1-.17-.41c0-.28,0-.28.21-.35l.11.35s.08.14.1.14c.19-.07.22.11.3.2s.23,0,.14-.22-.11-.22.14-.28c.2.43.22.46.31.49.11-.19-.18-.43.08-.63.11.24,0,.51.21.74.22-.25-.07-.51.06-.72l.16.2c.17-.16-.07-.36.11-.5.1.36.1.36.25.37-.08-.43-.08-.43.1-.55l.15.52c.13-.06.18-.11.13-.24a3.57,3.57,0,0,1-.16-.54c.35.11.19.43.39.59a.56.56,0,0,0,.07-.17,2.51,2.51,0,0,0,0-.27s0,0,0,0l.1.21c.18-.07.2-.17.14-.32s-.15-.24-.06-.4l.22.1c.12-.19,0-.44.24-.59a4,4,0,0,0,.47-.46l-.24-.21c0,.26-.35,0-.42.28l0,0c-.16-.1-.28,0-.41.08s-.15.1-.18.08-.25,0-.37.07-.11,0-.17,0a.7.7,0,0,0-.24.09,2.72,2.72,0,0,0-.24.24.45.45,0,0,1-.55.15.21.21,0,0,0-.29.09.7.7,0,0,1-.37.26l-.47.18c-.06-.09-.11-.21-.17-.23s-.19.06-.26.12a1.08,1.08,0,0,0-.18.24c-.07.09-.12.21-.21.25a1.48,1.48,0,0,1-.42.07l-.12-.26-.33.25a.25.25,0,0,1,0-.18c0-.06.09-.13.08-.18s.07-.16.19-.2,0,.08,0,.11l.08.14c.16-.13.11-.28.11-.41s0-.22.11-.25c.36-.1.61-.43,1-.41h0c.16-.07.21-.22.1-.34s-.14-.08-.19,0a.57.57,0,0,0,0,.15c-.2-.11-.3.07-.48.13l-.07-.15-.58.17-.17-.09c0-.15-.07-.3-.09-.45s-.09-.36.08-.52c0,.17.05.33.08.51.36-.15,0-.41.15-.59l.17.29.64-.3c0-.14,0-.29.19-.31l.18.25.26-.12.15.22.19-.21c0-.14-.24-.26,0-.4,0,.09,0,.17.08.24s.17.24.36.09c0,0,.09-.08.11-.07.2.1.28-.06.37-.17a1.36,1.36,0,0,1,.17-.16c0,.15.1.23.21.16s0-.26.06-.37,0-.13,0-.15a.23.23,0,0,0-.16,0l-.18.15-.34-.15.1-.22,0,0-.28.21-.06-.2-.43.21-.33-.28-.79.4c-.15-.14-.42-.15-.42-.48a.63.63,0,0,0-.1.14c-.24.37-.34.43-.76.36l0,0,.06-.14c.11,0,.25,0,.29-.07s.32-.25.37-.46a.19.19,0,0,1,.16-.09.23.23,0,0,1,.13.14,1.3,1.3,0,0,1,0,.21s.06.06.09.09a.14.14,0,0,1,0,0,.27.27,0,0,0,0-.09.69.69,0,0,1,.5-.86l0,0c.16-.23.22-.54.5-.67l.21.12a3.46,3.46,0,0,1,.06-.49,3.24,3.24,0,0,1,.18-.45c-.37-.08-.39.28-.6.38l-.18-.1a1.61,1.61,0,0,1-.21.32c-.14.13-.29.24-.45.37a3,3,0,0,1,0-.31c-.14.05-.33.09-.33.13v.26h-.11a1.26,1.26,0,0,0-.19-.2l-.49-.14-.52.3c0-.16,0-.26,0-.36s-.07-.22.09-.29l.12.3h.08l0-.57h0l.11.16a.52.52,0,0,0,.24-.64.8.8,0,0,1,0-.27h.06l.11.3c.07-.13,0-.31.11-.37s.12-.28.14-.44,0-.29.07-.44a.15.15,0,0,1,.05-.06c.22-.13.18-.35.18-.54a.19.19,0,0,0-.17-.2c-.11.2-.2.4-.32.59s-.35.56-.52.85a.24.24,0,0,1-.09.08l-.68.33-.09-.18c.35,0,.18-.23.22-.36a.76.76,0,0,0,.19-.29l.19.06a1.4,1.4,0,0,1,.43-.76l.12-.51c.06-.22,0-.32-.25-.39a2.69,2.69,0,0,1-.26.44c-.12.12-.15.22,0,.36-.11,0-.23,0-.28.1s-.42.35-.58.55a2,2,0,0,1-.66.44L79,26.93a2.38,2.38,0,0,1,.79-.76l.11.09.46-.48-.21-.17c-.18.11-.31.34-.52.11A.8.8,0,0,1,79,26L79,25.72c.16,0,.25-.14.23-.31s0-.09.08-.14.1-.11.1-.17c0-.25,0-.51-.07-.77,0,0-.06,0-.09-.07s0,0,0-.06l.22-.07.12.61h.09a8.1,8.1,0,0,0-.06-1.38l.18.09c.14-.24-.11-.42,0-.66a.74.74,0,0,0-.37.41,1,1,0,0,1-.45.59.4.4,0,0,0-.18.16.45.45,0,0,1-.39.23c-.1.29-.2.41-.29.33l.14-.16-.2-.06c0-.11,0-.26.09-.31.22-.15.14-.36.15-.55s0-.33,0-.45a.35.35,0,0,0,0-.28l-.09-.27c.07-.11.17-.22.15-.24a1.26,1.26,0,0,0-.27-.2l-.49.87-.33.19c-.12-.07-.13-.18-.07-.31a.24.24,0,0,0,0-.28.2.2,0,0,1,0-.14,1.19,1.19,0,0,0-.21-.75,1,1,0,0,0-.3,0c-.13.06-.25.53-.21.66a3.07,3.07,0,0,1,.14.52c0,.11-.06.1-.14.08,0-.31-.06-.39-.4-.48a.7.7,0,0,0-.11.23c0,.16,0,.32-.06.48a.5.5,0,0,0,.11.45c.06.06,0,.19.06.29s0,.31,0,.47l0,.23c-.08,0-.17.09-.22.07a1.61,1.61,0,0,1-.28-.24c-.07-.06-.12-.16-.2-.18s-.14-.15-.18-.26a1.28,1.28,0,0,0-.25-.4,1.41,1.41,0,0,0-.35-.23.8.8,0,0,0,0,.26,8.88,8.88,0,0,0,.32.91.45.45,0,0,1,0,.36c-.36,0-.48-.37-.79-.48-.11.29,0,.53.07.79a6.36,6.36,0,0,1,0,.75c.17.19.39-.07.5.15a.79.79,0,0,1,0,.48c-.28-.1,0-.33-.14-.45,0,.05-.1.12-.15.13a1,1,0,0,1-.75-.11s0-.06-.08-.06c-.2,0-.41-.19-.58.05-.56-.38-.63-.42-.86-.41.22.6.7,1,1,1.58l.19,0,.18.24a1.23,1.23,0,0,0,.08-.22c0-.07-.11-.14,0-.22.29.37.29.37.47.38l0-.24c.16.11.21.4.52.18-.1.3.32.19.29.48a1.75,1.75,0,0,1-.39,0,3.35,3.35,0,0,1-.83-.14,2.09,2.09,0,0,0-.56-.14.17.17,0,0,0-.12,0c-.16.05-.33-.12-.48,0a.25.25,0,0,0-.07,0c-.13,0-.27-.09-.41,0l.21.32.23,0c0,.13.06.25.1.36s.06,0,.11.06l.05-.21c.17.06.17.06.23.18s0,.11.08.12c.22.05.37.28.62.21a.7.7,0,0,0,0,.33c0,.16,0,.2-.15.24a.72.72,0,0,1-.83-.21,1.1,1.1,0,0,1-.37-.06c-.13-.05-.25-.12-.38-.18-.25.18-.3.18-.55,0a.29.29,0,0,0-.19-.08c-.33.06-.4-.32-.66-.38,0-.27-.24-.24-.44-.25a4.38,4.38,0,0,0,.23,1.12l.17-.14c-.1.15,0,.24.11.34a.28.28,0,0,1,.07.36l-.61-.5c-.21.12.1.23,0,.36l-.2-.08c-.28-.17-.29-.17-.43.14l-.49-.73-.4.16a2.63,2.63,0,0,0,.15.35,4.82,4.82,0,0,1,.78,1.26.13.13,0,0,0,.21.08l-.1-.38c.16,0,.2.07.22.19s0,.32.13.35.39.31.63,0a1.28,1.28,0,0,1,.11.25,1.14,1.14,0,0,0,.12.34,5.31,5.31,0,0,0,.55.49l.1-.21a1.53,1.53,0,0,0,.16.11l.14,0-.07.35c-.1.09-.18-.05-.27-.05a1.49,1.49,0,0,0-.32.08l.14.39c-.37-.18-.4-.62-.73-.86l0,.3c-.17,0-.15-.23-.34-.2s-.15-.24-.33-.2l0,.32-.09,0c-.16-.22-.29-.46-.62-.44,0,0-.07-.06-.11-.09l-.13-.08,0,0,.22.5c-.34-.15-.28-.63-.61-.72l-.31.19c.28.23.15.58.4.83l.09-.42.31.33s0,0,0,.09l-.11-.16a.31.31,0,0,0,0,.45.92.92,0,0,1,.17.59,1.75,1.75,0,0,0,0,.24s.08.06.14.11,0-.11,0-.15a7.16,7.16,0,0,0-.12-.93c0-.17.06-.23.17-.34.11.27,0,.51.07.76s0,.5.14.75c.24-.14,0-.33.1-.46l.32.26a1.38,1.38,0,0,0,0,.29s0,.07.08.07a.13.13,0,0,0,.09-.07s0-.1,0-.15v-.66c.2.1.21.11.22.27s0,.4,0,.61,0,.19.18.16c0-.24,0-.48,0-.74.37.19.14.5.22.74l-.16.12a2.19,2.19,0,0,0-.14.2L69.84,34c-.06,0-.15-.11-.18-.09-.21.14-.34,0-.5-.11L69,33.73l-.07.05c-.13.22-.13.22-.36.12a.26.26,0,0,0-.28,0l-.23.17-.26-.24c-.18.16-.36.06-.55,0l-.08.23a.94.94,0,0,1-.17-.18.31.31,0,0,0-.34-.12c-.14,0-.13.16-.11.28a.13.13,0,0,0,0,.07l.16,0a1.5,1.5,0,0,1,.26.64l.08-.26h.07a5.29,5.29,0,0,0,0,.56c0,.18-.15.36,0,.6.19-.32.11-.65.23-1,.31.27,0,.62.16.9.08-.09.13-.2.2-.21s.08.15.16.2l.07,0c.23-.23,0-.55.14-.79.2.12,0,.39.21.55l0-.58.07,0a.83.83,0,0,1,.16.17c0,.12,0,.24,0,.36s0,.16.1.17.17.2.16.33a.92.92,0,0,0,.07.61.87.87,0,0,1-.25-.21l-.32-.52c0-.1-.11-.17-.25-.09a1.89,1.89,0,0,1,0,.23,1.46,1.46,0,0,1,0,.2l-.59-.13.18.38,0,0-.28-.37-.06.06-.28.06-.11.32c-.33,0-.45-.38-.77-.43a.78.78,0,0,0,0,.14l0,.14a.62.62,0,0,1-.58-.16c-.06,0-.13-.11-.22,0l.14.27-.24.11a1.16,1.16,0,0,0,.16.2.56.56,0,0,0,.17.09l.23.08.2.06a1,1,0,0,0,.17.52l0-.59c.14-.05.22,0,.26.1a2.72,2.72,0,0,0,.11.38s.07.07.14.15l-.08-.69.29,0c.11.18,0,.42.25.57l0-.32a.49.49,0,0,1,.21.71c-.1,0-.24-.06-.29,0s-.22.07-.33,0-.21-.09-.27,0c0,.34.35.51.33.84H67l.09-.34c.37,0,.1.43.36.53.16-.18,0-.38,0-.57.34-.14.2.29.38.33l.18-.2a3.85,3.85,0,0,0,.11.48c0,.13,0,.33.2.39,0-.24,0-.47-.06-.73a.46.46,0,0,1,.3.41,2.51,2.51,0,0,0,0,.27c0,.24,0,.27-.22.33a.39.39,0,0,1-.32-.06.68.68,0,0,0-.15,0l-.09.24c-.26,0-.26,0-.31.31-.13-.22-.35-.19-.53-.26s-.22-.06-.3.13a1.16,1.16,0,0,1-.06.16l-.54-.14-.22.23.08.1c.21.16.21.16.11.39a2.6,2.6,0,0,0-.1.25l0,0,.56-.55c0,.3-.3.5-.19.85l.32-.86c.16.28-.1.49,0,.77L67,40.4c.3.08.11.35.23.5,0,0,.09-.07.13-.06.21.07.24.06.23-.14s0-.22.09-.26l.16.38h.08l.08-.32c.16.14.09.31.1.46s0,.3,0,.45h0l.19-.35c.18.07.09.16.06.25s-.06.21-.1.32-.11.17,0,.27c.21-.17.19-.45.31-.66l.24,0c0,.15,0,.28-.06.47a.57.57,0,0,0,.25-.44c0-.13,0-.24.21-.25s.08.16.16.3a2.48,2.48,0,0,0,0-.33c0-.09-.07-.21.09-.2a.53.53,0,0,1,.12.41v-.42a2.43,2.43,0,0,1,.35,0c.15.31.06.66.31,1l.06-.34c.27.08.3.17.21.58l-.08,0a.53.53,0,0,0-.6,0,.9.9,0,0,1-.88.13c-.13-.07-.24,0-.26.16s0,.1,0,.17l-.33-.1c-.1.12-.2.22-.37.16s-.53-.16-.78-.27A4.89,4.89,0,0,0,66,41.94c-.13,0-.21.07-.15.18a2.15,2.15,0,0,0,.23.28l0,0,0,.28h0l.11-.24c.12.1.12.1.13.55l.23-.28.23.17.09-.33H67c0,.12,0,.24.06.38.13-.07.1-.31.32-.2,0,.36-.07.73-.1,1.11h.09c0-.28.12-.55.18-.86.3.26,0,.58.13.84.21,0,.14-.22.24-.32l.36.11c.11-.23.39-.5.39-.74v.83c0-.1.05-.13.06-.18s-.06-.24,0-.36.1-.17.27-.13l-.14.93c.22-.24.15-.55.37-.73A10.69,10.69,0,0,0,69,44.56a1.23,1.23,0,0,0-.44.06c-.15.09-.27.1-.35,0L68,44.8l0,.26c-.24,0-.08-.23-.13-.35a.51.51,0,0,0-.21.41.47.47,0,0,1-.32.48c-.13,0-.21-.2-.37-.1a1.64,1.64,0,0,0-.66-.16s-.07-.06-.11-.09l-.44-.51-.11.27c-.26.1-.41,0-.54-.23s-.12-.19-.27-.16,0,.08,0,.11c0,.19-.08.22-.22.12a1.1,1.1,0,0,1-.23-.2.79.79,0,0,0-.5-.24c0,.12.06.2.1.34a1.06,1.06,0,0,1-.5-.58v.25c0-.13-.42-.13-.64,0l.61.7c-.06.16,0,.31.13.46l.18,0c.11.12,0,.3.12.38.14-.12,0-.3.14-.43.11.28,0,.56.1.83.19-.1.09-.25.11-.36s0-.27.08-.39c.1.43.1.43.23.5l0-.39c.15,0,.24.07.24.22s0,.19.11.22l.06-.34.37.15-.17.37c.23.13,0,.36.12.62a.87.87,0,0,0,.11-.22c0-.27,0-.27.36-.25.08.22-.07.39-.12.58a.92.92,0,0,1-.23,0,.76.76,0,0,0-.66.18.3.3,0,0,1-.19.05l-.59,0c-.06,0-.12.06-.16.11s0,.11,0,.14a.44.44,0,0,0,.17.07c.14,0,.29.1.42.12,0,.17-.06.42.12.55,0-.14,0-.13.07-.13h0s0,0,0,.08c.22-.23.22-.44.44-.34l.06.47c.27-.16,0-.45.24-.58.18.25.06.57.27.82l0-.55L66,48l.06.57c0,.17-.14.36,0,.54,0,0,.07-.06.07-.08,0-.32.14-.64,0-1a.16.16,0,0,1,0-.12.21.21,0,0,1,.12-.07s.07.06.07.09c0,.2,0,.4,0,.6s0,.46,0,.73c.23-.14.2-.33.22-.52a5.52,5.52,0,0,1,.07-.55c.06.05.09.09.09.13,0,.2,0,.41,0,.61s0,.23.19.21c0-.59,0-.59.16-.66l0,.35c.3,0,.35-.13.22-.34,0,0-.06-.07-.06-.1s0-.13,0-.13a.18.18,0,0,1,.16,0,.93.93,0,0,1,.08.2.45.45,0,0,0,.07.07l.15-.12c-.14-.34-.13-.38.14-.43v.55a.55.55,0,0,1-.47.66,1.64,1.64,0,0,0-.92.59,7.09,7.09,0,0,1-.58.65c-.22-.11-.36-.37-.66-.39l-.09.29c-.3-.1-.44-.51-.85-.36,0-.09-.07-.17-.1-.25a.5.5,0,0,0-.34-.28,1.46,1.46,0,0,1-.75-.3l-.12-.07-.28.11a.63.63,0,0,0,0,.57s.09,0,.14,0-.11.32,0,.48c.16-.1,0-.34.24-.4.14.18-.08.49.24.66,0-.19,0-.35,0-.51s.08-.24.18-.23.12.12.12.21,0,.08,0,.12c0,.21.06.22.31.24a.29.29,0,0,1,.18.13,1,1,0,0,1,0,.3q0,.12,0,.27c.21-.11.26-.09.25.09s0,.58,0,.88a.48.48,0,0,0,.16.43.87.87,0,0,0,.07-.17c0-.1-.05-.2,0-.3,0-.26.06-.51.1-.77,0,0,.07,0,.11,0,0,.4-.13.79.05,1.24,0-.12.09-.16.09-.2s0-.34,0-.52,0-.19.14-.19a.19.19,0,0,1,.22.16,1.48,1.48,0,0,1,0,.21c0,.07,0,.13,0,.21.15-.15.15-.15.16-.26,0-.32,0-.34.37-.33l.15.27c.15-.11,0-.32.25-.37.07.23,0,.51.2.76l0-.68a.32.32,0,0,1,.25.29c0,.11.07.22.1.33l0,0,.09-.38c.23.33,0,.67.23.94l.09-.33h.07c-.06.26.06.54-.09.82-.21-.12-.42-.19-.61,0a.33.33,0,0,1-.42,0,1.39,1.39,0,0,0-.59-.22.38.38,0,0,1-.54.32s-.11,0-.18,0l-.58-.68c-.07-.08-.13-.16-.27-.1l-.06.26-.32-.35-.24.11a2,2,0,0,0-1.3-1c-.19-.18-.22-.48-.45-.64l-.11.13c-.17-.12-.17-.12-.32,0l-.19-.34-.12.09c-.22-.13-.09-.45-.32-.6a.79.79,0,0,0-.08.9,1.44,1.44,0,0,1,.21.79s0,.09,0,.11.14.31.17.47a1.33,1.33,0,0,0,.08.24l.18-.32a2.37,2.37,0,0,1,.14.29c0,.13,0,.27,0,.4s0,.08.08.13h.07l0-.61a.2.2,0,0,1,.15.23c0,.22.06.44.06.66s.13.13.2.17c0,.42.08.84.12,1.24.22,0,.17-.13.25-.23.13.29.1.62.34.88a1,1,0,0,0,0-.53,1.86,1.86,0,0,1,0-.33.15.15,0,0,1,.08-.11s.09,0,.1,0,.19.2.18.37a4.19,4.19,0,0,0,0,.61h.08a1.55,1.55,0,0,0,0-.21c0-.17,0-.33,0-.49s0-.3.17-.31.16.17.18.28,0,.21.16.25l.06-.37.64,0a1.88,1.88,0,0,0,.26,1l.08,0c0-.28-.08-.56-.12-.88L65,55c0,.08-.06.18,0,.22.2.21.13.48.18.72a.46.46,0,0,1-.08.34,3.23,3.23,0,0,0-.25.49c-.13.32-.13.32-.48.31h-.4c-.37,0-.77-.08-1.1.26-.2-.44-.41-.83-1-.72a5,5,0,0,1-.17-.69c0-.17-.08-.27-.27-.3s-.25-.12-.11-.33a.11.11,0,0,0,0,0c0-.17-.19-.16-.31-.15-.12-.14-.09-.4-.37-.35a1.32,1.32,0,0,0-.12.93c.09-.18.14-.31.2-.44.1.36-.16.69,0,1h.07c0-.19.09-.39.15-.58a.28.28,0,0,1,.08.37,1.84,1.84,0,0,0-.15.58c0,.07,0,.17,0,.23s.07.05.07.07v.5s-.22-.1-.36-.22-.06-.21-.18-.29a.64.64,0,0,0-.66-.15c-.21-.17-.39-.39-.72-.31,0,0-.11-.09-.18-.1s-.29,0-.43-.06l-.07.25-.45-.06c-.05.17.13.21.19.32l-.07.2a.67.67,0,0,1,.35.46c0,.13.12.16.26.11,0,.15-.08.27,0,.39s0,.15,0,.23a1.88,1.88,0,0,0,.05.33s.09.06.19.13c-.06-.39-.1-.7-.15-1,.24.05.23.05.25.27s0,.54.08.81c0,.09,0,.15.13.14s-.09-.3.16-.29a.25.25,0,0,1,0,.07c0,.15,0,.3,0,.45-.11,0-.24-.06-.33,0s-.11.17-.18.3a2.53,2.53,0,0,1-.23-.12c-.12-.09-.23-.2-.36-.29s-.17-.12-.21-.1c-.2.12-.37,0-.57-.06l-.15.36c-.12.1-.32,0-.37.15l.59.36.55.36-.44.19c.24.13.49.16.49.47l.15-.3c.14.07.09.19.09.28a5.66,5.66,0,0,1,0,.58c0,.09,0,.18.16.19a6.51,6.51,0,0,1,.1-1c.16.28.06.63.23.91.14,0,.12-.09.1-.18s0-.44-.07-.68c.17,0,.24.09.24.23a.47.47,0,0,0,.15.41l.09-.25c.17.13,0,.44.33.47l0-.36c.16,0,.25,0,.28.14s0,.3.07.45,0,.2.18.25l-.07-.74h.06c0,.06,0,.17.07.19s.13.21.13.34c0,.32,0,.65.07,1,0,.11,0,.24.24.25,0-.13,0-.25-.06-.36s.06-.18.18-.14,0,.34.21.41c.11-.18-.16-.47.17-.58.16.46.16.46.34.47,0-.22-.21-.45,0-.69l.26.24c.08.09,0,.27.19.32v-.37c0-.16.09-.21.23-.18s.07.37.33.45l-.14-.57.35,0-.17.32c.07,0,.16,0,.18.08s.18.39,0,.6a.27.27,0,0,0,0,.34l.56-.16.09.67c0,.09,0,.16.16.12a.88.88,0,0,0,0-.17c0-.22,0-.45,0-.67s0-.2.2-.16l.06,1.06a.24.24,0,0,1-.05.13,2.13,2.13,0,0,1-.22.21,1.33,1.33,0,0,1-.88-.3,5.7,5.7,0,0,0-.6-.32c-.15.12-.06.42-.37.39-.15-.13-.39-.18-.49-.4s-.15-.08-.21,0a.85.85,0,0,0-.1.17,2.7,2.7,0,0,0-1.1-.4c0,.07,0,.11,0,.16s0,.09,0,.13a.57.57,0,0,1-.6-.19,1.37,1.37,0,0,0-.18-.16.63.63,0,0,0-.23,0l.12.21c0,.06.05.12.07.17a.89.89,0,0,1-.3-.18c-.24-.17-.33-.17-.58,0l-.35-.23c-.1.05-.21.16-.29.14-.28-.07-.56.06-.84,0s-.26,0-.31.17a2.41,2.41,0,0,0,0,.38L56,64l.19.52h.07l.07-.4c.13,0,.15,0,.16.14a.41.41,0,0,0,.26.37l0-.2c.18,0,.26,0,.28.23a3.46,3.46,0,0,0,.14.53s.05,0,.08.06l.2-.16c.27.5.27.5.45.39-.22-.33-.23-.43-.06-.54.1.09.08.33.31.28,0-.14-.17-.27,0-.43l.22.25.07,0-.09-.36c.2-.16.25.11.38.12s.09-.17.21,0l-.13.25c.13.09.29.14.34.25s0,.26,0,.39c.27,0,.32-.22.47-.42,0,.18.06.3.08.43a.52.52,0,0,0,.54.47c0,.08.06.2.13.23s.19,0,.28,0,.08.07.15.13c-.25.06-.51-.06-.61.23h0c-.22,0-.34.16-.49.29l-.33-.23L59,67c-.12-.11-.24-.22-.37-.32s-.11-.06-.15,0-.05.09-.07.14a.34.34,0,0,0,0,.1l-.76-.15s-.09,0-.11,0-.24,0-.34-.06l-.42-.35c-.12-.1-.22-.09-.32.06l.33.65c.31-.15.23.17.34.27l.3,0c0,.2,0,.39.19.51l.3-.05c0,.11.07.2.1.3s.11.18.25.14l-.08-.39c.23,0,.24,0,.29.16a2.34,2.34,0,0,0,.35.83,1,1,0,0,1,.08.25c-.34-.13-.49-.4-.72-.57l-.5.28L57,68.31c-.15-.09-.18-.07-.21.12a.17.17,0,0,1-.23.16,1.76,1.76,0,0,1-.2-.09c-.1,0-.17,0-.25.08l.6.56c.22,0,.26,0,.29.18a1.91,1.91,0,0,1,.06.33.33.33,0,0,0,.37.35,3.43,3.43,0,0,1,0,.79,5.94,5.94,0,0,0-.47-.43s-.1,0-.16,0,0,.12,0,.15a3.17,3.17,0,0,0,.31.32c-.09.39,0,.61.28.69.06,0,.18,0,.2,0,.14-.22.3-.11.45,0s.54.29.85.08c.13.57.14.59.41.57l0-.25.33-.1c.14.13.1.37.3.46.1-.23-.1-.45,0-.68.28,0,.14.45.44.47a.74.74,0,0,1,0-.21,1.19,1.19,0,0,1,.05-.25.44.44,0,0,0,.6.11c.1.06.15.22.32.17l-.08-.26.38-.24a3.19,3.19,0,0,0,.13.37c0,.11,0,.3.26.26L62,71.54l.29-.09.19.33h.09l0-.27c.25,0,.33.12.25.43l.21.11c.09-.18.09-.18.26-.25.11.09.06.35.31.32l-.06-.44.4,0L64,72c0,.09,0,.19.07.29s.21.14,0,.27l-.21-.31a2,2,0,0,1-.2.29c-.09.07-.2.11-.31.18s-.14-.39-.42-.28c-.22-.16-.34.15-.54.1l-.2-.24a.3.3,0,0,1-.46,0c-.21.23-.41.14-.62,0s-.25-.09-.36.07a1,1,0,0,0-.11.26,2.44,2.44,0,0,1-.39,0,2.83,2.83,0,0,1-.36-.16c-.25.14-.25.14-.48,0,0,0-.06-.07-.1-.07s-.15,0-.18,0a1,1,0,0,1-.48.3c-.17-.07-.17-.33-.38-.29s-.35-.08-.42.14l-.75-.39c-.22.15,0,.31-.06.45-.36.16-.53-.21-.85-.32.08.39.43.47.64.67l0,0c0,.34,0,.34.37.3a1.94,1.94,0,0,1,.89.11v.27c0-.1,0-.22.15-.26s-.06.33.13.39,0-.33.26-.2-.09.45.19.63L59,73.5c.16.12.16.12.12.63a.63.63,0,0,1-.67.13.56.56,0,0,0-.55,0l-.23-.18-.15.19-.29-.26-.38.18L56.59,74l-.29.13-.37-.1c0,.17,0,.21.13.24a.31.31,0,0,1,.2.37c0,.09-.07.2.1.28,0-.13,0-.24.08-.35s.12-.13.19,0,.1.34.32.37a.43.43,0,0,0,.52.26c.13.13,0,.39.25.49.11-.16-.15-.38.13-.54.08.31.14.59.21.88.33-.11,0-.39.19-.52.16.06.16.06.18.18s0,.32.07.48.06.11.1.11.09-.06.08-.15a4.93,4.93,0,0,1,0-.57l.3-.06c.07.52.12.52.12.53v-.4c0,.07.36.12.45.16a.7.7,0,0,0,.26.08c.31,0,.47.18.67.36a1,1,0,0,1,.81-.2,4.47,4.47,0,0,0,1.16.08.89.89,0,0,1,.2.06v.07a2,2,0,0,1-.42.05c-.2,0-.39-.06-.58-.08s-.37-.06-.47,0l-.38.29.15.18a1.84,1.84,0,0,1-.52.12,1.58,1.58,0,0,1-.46-.16c-.12.23-.34.22-.56.19a1.55,1.55,0,0,0-.21,0,.58.58,0,0,0-.18,0l0,.33-.17-.05c-.17,0-.39-.14-.52-.08s-.32,0-.46-.1-.28-.2-.42-.29c-.3.19-.29.19-.57,0l-.2-.14s-.09,0-.14,0c0,.23.28.27.24.49a2.17,2.17,0,0,1-.36-.44c-.16-.23-.3-.48-.46-.71,0-.06-.13-.09-.2-.13l-.12.19c-.37-.22-.44-.7-.82-.9-.17.25.13.41.06.61l-.39.06.31.36c-.23.24,0,.44,0,.68l.08,0c0-.11.06-.22.1-.32s.17-.22.35-.09c-.43.84-.47,1-.36,1.31l.4-1.17.12.35a1.81,1.81,0,0,0-.36,1.58c.22-.23,0-.56.2-.81.12.11.12.11.1.19s-.07.35-.09.53,0,.38,0,.55L55,78.9l-.12-.44a1.74,1.74,0,0,0-.12.18l-.06.13-.23-.08c-.35-.14-.35-.14-.38.22h0l-.06,0c-.21-.23-.42-.18-.65,0a.71.71,0,0,1-.26.06c-.21,0-.32-.14-.47-.22-.22.12.06.23,0,.34l-.05,0L51.65,79c-.21,0-.21,0-.27.17a.91.91,0,0,1-.11.16c0,.06-.09.11-.09.17,0,.21.14.26.39.16l0-.38c.3.07.11.39.35.47l.12-.15.26.14c0-.12,0-.19,0-.25s0-.09.07-.08.1,0,.1.07a.54.54,0,0,1,0,.18c0,.16,0,.32.11.45a.14.14,0,0,1,0,.11c0,.22,0,.44,0,.66s0,.37,0,.57h.12a.33.33,0,0,0,.1-.06,3.77,3.77,0,0,1,0-1.34,1.65,1.65,0,0,1,.09.43c0,.24,0,.49,0,.73s0,.18.18.17c.09-.35-.13-.74.08-1.09a.81.81,0,0,1,.08.25l.09.51c0,.1.06.17.19.13,0-.3-.05-.59-.07-.88s0-.22.24-.23c.12.58.12.58.28.6L54,80.18c0-.22,0-.27.21-.37.09.06,0,.27.2.26l.07-.38a.62.62,0,0,1,.19.12.52.52,0,0,1,.1.18l.08-.06,0-.23a2.32,2.32,0,0,1,.19.54c.06.18.11.18.28.07a1,1,0,0,1,0-1.15,1.5,1.5,0,0,1,.08.27c0,.26,0,.53,0,.79a3.5,3.5,0,0,0,.11,1c0,.13.11.19.25.11,0-.23-.09-.46-.12-.68a3.75,3.75,0,0,1,0-.67c0-.21-.09-.45.08-.65a.42.42,0,0,1,.06.21c0,.32,0,.65.07,1s.11.64.16,1a.22.22,0,0,0,.26.19l0,0-.14.18c0,.15.25.2.22.43A1.85,1.85,0,0,0,56,82c-.2-.07-.23-.23-.29-.37-.44.08-.44.08-.42.51a.25.25,0,0,0,0,.08c-.21,0-.57-.34-.57-.23v.29c0-.06-.28-.17-.36-.13a1.42,1.42,0,0,1-.65,0c0,.1,0,.18,0,.32l-.58-.22c0,.21-.28.11-.41.21.1.24.34.17.5.24s-.08.45.2.59c0-.24,0-.48.09-.7a.7.7,0,0,1,.35.55v-.09a.56.56,0,0,0,.23.39c0-.21-.08-.37-.09-.53s0-.36.16-.39c-.07.81-.05,1,.19,1.12l-.08-1h.07c.23.26,0,.69.34,1a1.38,1.38,0,0,0,0-.26c0-.19,0-.38-.08-.57s0-.16.14-.17c.15.36.31.73,0,1.09a.18.18,0,0,0,0,.05l.21,0c.13.41.13.41.29.36,0-.2-.22-.4,0-.62.2.22,0,.56.28.78v-.41c0-.16,0-.32,0-.49s0-.22.19-.22a1.08,1.08,0,0,1,.16.6,1.18,1.18,0,0,0,.2.47h.07l-.15-1.1c.19,0,.28,0,.3.2a5.15,5.15,0,0,0,.15.68c0,.09.05.18.19.16a1.33,1.33,0,0,0,0-.2c-.05-.27-.11-.54-.15-.81,0,0,.05-.12.08-.18l.17.09a.11.11,0,0,1,0,.06l.39,1s.06.08.08.13A3.3,3.3,0,0,0,57,83.07l.33-.07c.07.24.13.47.19.71l.33.54.06,0a2.24,2.24,0,0,0-.1-.37.29.29,0,0,1,.1-.33,3,3,0,0,1,.35-.23c.13.31.27.59.38.88,0,.07,0,.18,0,.27h-.08c-.05-.15-.1-.3-.16-.44s0-.32-.22-.42a.37.37,0,0,0,0,.11,4.7,4.7,0,0,0,.37,1.21s.1,0,.19.07l-.08-.44c.18,0,.2.17.24.26s.12.35.19.52a.43.43,0,0,0,.25.31l0-.44c.28.15.09.4.23.54h.22c.12.12.13.34.42.26a1.09,1.09,0,0,1-.26-.95s0-.09,0-.12,0-.23-.13-.29-.18,0-.26.1,0,0-.08,0c0-.23,0-.47.26-.61l.63.74a4.77,4.77,0,0,0,0,.51c0,.13.06.14.21.06,0-.13-.12-.28-.08-.37a1.43,1.43,0,0,0,0-.4.86.86,0,0,0-.14-.55,1.13,1.13,0,0,1-.06-.3l.42.08c.11.15-.07.36.15.51a2.63,2.63,0,0,0-.05-1l-.13.3-.25-.41a.88.88,0,0,1,.63-.09,1.82,1.82,0,0,1,0,1l.25.28c.08-.09-.12-.27.14-.32q0,.16,0,.3c0,.19.07.38.11.57s.08.08.16.15l0-.38c.16.7.16.7.36.73L62,84.76l.3-.16-.08.34.2.28c.06.08,0,.22.24.2L62.61,85l.3-.27c.05.19.08.37.14.54s.11.14.21,0a1.61,1.61,0,0,1,0-1.48l0,.22.3,0c0,.21.1.42,0,.62h-.08l-.16-.4a.75.75,0,0,0-.06.42c0,.11.14.1.2.15a.57.57,0,0,1,.2.26c.08.24.14.5.22.75,0,0,.07.09.1.13l0,0c0-.35-.08-.69-.11-1l.3-.16a2.86,2.86,0,0,1,.06.35l.09.9s.06.09.12.18c.12-.31-.18-.65.18-.85,0,.08.08.17.13.25a.12.12,0,0,0,.11,0,.17.17,0,0,0,.07-.12s0-.09-.07-.14a1.49,1.49,0,0,1-.13-.57l.64-.49.32.49c.12,0,.18-.08.16-.21a2.47,2.47,0,0,0-.11-.54.43.43,0,0,1,.2-.57c.13-.08.13-.19.13-.32s-.08-.39-.08-.58v-.3c0,.14.19.29.2.44a6.84,6.84,0,0,1-.08,1.63.39.39,0,0,0,.15.42c.28-.14,0-.31.06-.49l.5-.31c0-.17.09-.23.24-.32l.21.3v-.45c0-.15,0-.25.25-.24,0,.23,0,.46,0,.7a.41.41,0,0,1-.28.45c-.09-.08,0-.24-.19-.29-.12.13-.06.28-.07.41a1.56,1.56,0,0,1-.1.4c.11.11.21.08.32,0s.16-.19.31-.14l0,.44c.19,0,.2-.11.19-.22s0-.23,0-.26c.21-.15.24-.42.42-.58l0,0a2.07,2.07,0,0,1,.18.23A1.12,1.12,0,0,0,68.6,84a5.24,5.24,0,0,0,0-.56,1.1,1.1,0,0,1,.3-.62,4.36,4.36,0,0,0,.06.65h0s0,.07.07,0c.21.16.42.36.61.23.2.24,0,.61.34.82a7.14,7.14,0,0,0-.1-.88c-.06-.27.11-.44.17-.66.15.28.07.58.14.86s0,.6.19.89a1.42,1.42,0,0,0,0-.81.93.93,0,0,1,.22-.65c0,.15,0,.29.06.43,0,.4,0,.81.08,1.21a.6.6,0,0,0,.08.16.42.42,0,0,0,0-.23c0-.38,0-.77,0-1.15s0-.32.34-.44c0,.11,0,.21.05.32,0,.35.08.7.13,1a.6.6,0,0,0,.09.18.33.33,0,0,0,.06-.34c0-.37-.17-.76.12-1.1,0,0,0,0,0,0l-.23.09.09-.45a.68.68,0,0,1-.06-.74c0,.1,0,.23.13.29a.41.41,0,0,1,.13.26c.07.53.15,1.06.23,1.59l.07.29c.2-.21.09-.38.08-.55a3.37,3.37,0,0,1,0-.55,1.89,1.89,0,0,1,.08-.53c.06-.16-.05-.35.13-.51.11.26,0,.56.23.81,0-.09,0-.14,0-.18,0-.24,0-.49,0-.73a.34.34,0,0,1,.33-.42,1.46,1.46,0,0,1,1,.15l.92.53a1.2,1.2,0,0,1,0,.42c0,.12-.18.21-.29.34a1,1,0,0,0,.1.61,1.56,1.56,0,0,1,.12-.32s.08,0,.14-.06l0,.26.2,0c.07.29-.05.62.34.84l-.09-.59.39-.27a1.92,1.92,0,0,0-.13.81,1.71,1.71,0,0,0,.28.8l.21-.17c0,.07.11.11.11.16a5.2,5.2,0,0,1,.07,1.18,6.45,6.45,0,0,0,0,.76c0,.57,0,1.14,0,1.7,0,.11,0,.22,0,.33v1.22c0,.16,0,.32,0,.48,0,.51,0,1-.05,1.52s-.08,1-.14,1.58a3.85,3.85,0,0,1-.53,1.5,2.45,2.45,0,0,1-.59,1,2.25,2.25,0,0,1-.47.64.36.36,0,0,0,0,.09h.21c.78,0,1.56.1,2.34.1s1.73,0,2.6-.06h.35a5.3,5.3,0,0,1-.84-1.88A3.05,3.05,0,0,1,79,94.4a2.35,2.35,0,0,1-.06-.54v-.11a1.13,1.13,0,0,1,0-.18c0-2,0-4.08,0-6.12,0-.29,0-.29.31-.37l.06,0-.18-.54.3-.24c0,.12.06.19.08.26s0,.19.17.16a.14.14,0,0,1,.08.06l.23.32.26,0a1.89,1.89,0,0,0,.06.18c0,.18,0,.42.17.51s.15.27.17.43,0,.28.07.42.07.09.14.19v-.4l0-.7c0-.09,0-.14.15-.16s0,.13,0,.18c0,.25,0,.51.08.76,0,.07,0,.19.21.12l-.06-.44a.49.49,0,0,1,.29-.56c.15.36,0,.76.22,1.1a.22.22,0,0,0,.07-.26.33.33,0,0,1,.07-.24c.14-.15.31-.27.47-.41a.9.9,0,0,1,.21.66,4,4,0,0,0,0,.6,1.27,1.27,0,0,0,.06.18,4.11,4.11,0,0,0,.08-.6A3.42,3.42,0,0,1,83,88s.06,0,.06.06c0,.39,0,.78,0,1.17,0,.09,0,.14.12.12,0-.73.05-1.46.07-2.2.19.17.19.19.19.33,0,.59,0,1.18,0,1.76,0,0,.05.1.07.15h0L83.63,88c.2.13.2.13.35,0l.29.45.18-.24a2.77,2.77,0,0,0,.12,1.12,13.47,13.47,0,0,0,.2-1.42c0,.35.11.69.16,1h0c0-.31.07-.61.1-.93l.21,0c0,.28,0,.53,0,.78s0,.18.16.16a7.45,7.45,0,0,1,0-.82c0-.27.08-.53.12-.8.13.31.06.65.28.92a6,6,0,0,0,0-.73.76.76,0,0,1,.18-.71c0,.09,0,.16,0,.22,0,.3,0,.59,0,.88,0,.11,0,.2.17.24a5.8,5.8,0,0,1,0-1.32c.21,0,.17.2.17.33s0,.46,0,.7a.48.48,0,0,0,.2.42,12.56,12.56,0,0,1,0-1.38l.26.07a4.27,4.27,0,0,0,.17,1,.22.22,0,0,0,.1-.16c0-.21,0-.42,0-.63s0-.25,0-.39c-.18-.08-.09-.32-.23-.47l-.08.4c-.07,0-.16-.05-.17-.09s-.16-.23-.33-.25-.09-.07-.14-.11l.32-.2c0-.21,0-.35,0-.5s.09-.58.1-.87a.46.46,0,0,1,.36-.45c.09.35-.15.63-.11.94s-.16.62,0,.94a3.58,3.58,0,0,0,.09-.45,2.4,2.4,0,0,1,.19-.81.82.82,0,0,0,.12-.64c.15,0,.18,0,.17.14s-.08.37-.1.56-.06.46-.07.69a.35.35,0,0,0,.22.34l0-.64.07,0s.1.12.08.16a.5.5,0,0,0,.1.48.59.59,0,0,1,0,.23c0,.24.07.47.11.71,0,0,0,0,.09,0,.16-.32,0-.69.2-1,.15.27,0,.57.12.85.2-.41,0-.86.27-1.29.1.46-.11.9.19,1.28a11,11,0,0,1,.17-1.53c.22,0,.27.06.27.25,0,.35,0,.69-.09,1s0,.23.12.41c.14-.4.06-.83.29-1.2.24.09,0,.25.08.37s0,.3.08.43-.06.29.13.37c.1-.12,0-.24,0-.35s0-.27.14-.32c0,.48,0,.48.16.56.13-.23-.05-.52.13-.75.15.13.14.13.12.24-.06.3-.1.59-.14.89a.13.13,0,0,0,0,.09h0l.16,0c0-.19,0-.38,0-.57a1.09,1.09,0,0,1,0-.25,1.09,1.09,0,0,1,.11.38c0,.13.08.17.21.12a2.55,2.55,0,0,1,0-.38.61.61,0,0,0-.07-.44c-.17-.27-.18-.51.13-.7.11.06,0,.27.24.27s.22.11.26.25.09.09.13.13l0,0,0-.33.21-.06A10.41,10.41,0,0,0,92,87a.43.43,0,0,0,.13-.25c0-.24,0-.47,0-.7a2.21,2.21,0,0,1,.12-.87.37.37,0,0,1,.17.33c0,.31-.06.62-.07.93s0,.43,0,.64c0,0,.07.08.12.13a.29.29,0,0,0,0-.1c0-.29,0-.59,0-.88s0-.76.07-1.15c0-.11,0-.22.23-.2A6.13,6.13,0,0,0,93,86.78c.17,0,.14-.14.13-.22s-.06-.28-.07-.42c0-.42,0-.42.39-.32L93.36,85l-.09.11-.07,0c-.15-.15-.11-.4-.31-.52s0-.17.1-.17a2.51,2.51,0,0,1,.27,0,.3.3,0,0,1,.33-.23c.15,0,.16.16.13.3s0,.12,0,.18,0-.37.3-.31c.08.35-.06.7,0,1h.06l.12-.91.19.08.2.1a3.07,3.07,0,0,0-.1.58c0,.17-.13.35,0,.59l.26-1.11.33.17c.11,0,.12.12.12.22,0,.3-.05.6-.07.9v.15h.07c0-.19.09-.38.15-.57s0-.4.16-.63c0,.43-.13.78-.07,1.14.24-.3.16-.71.38-1,.14.32-.09.68.12,1,.16-.25,0-.6.32-.78,0,0,0,0,0-.06a.41.41,0,0,0-.11-.41c.34.07.35.08.32.35,0,.11-.06.23.12.23,0-.26.08-.51.13-.8l.22.24c0-.13,0-.22.08-.33l.61.38c0-.25,0-.45-.06-.69l.23-.06c0,.09-.05.14-.06.19s.21.06.23.11c.1.27.37.39.4.71,0,0,0,.06,0,.14v-.71a3.94,3.94,0,0,1,.58-.07c0,.5.1.67.3.81a2.7,2.7,0,0,0,0-.5c0-.17.21-.31,0-.49a1.6,1.6,0,0,1-.64,0c.18-.1.3-.2.42-.27s0-.07,0-.09c-.22,0-.44,0-.66,0,.18-.23.52.36.74-.51h-.17l.08-.37.26,0,.1.36a1.21,1.21,0,0,1,.44-.63,3.28,3.28,0,0,0,0,1.36,1,1,0,0,0,.15-.65,1.42,1.42,0,0,1,.12-.68c.06-.11.11-.22,0-.33s0-.14,0-.23c.22,0,.27.1.27.25s0,.45,0,.67a.69.69,0,0,0,.06.21,3.47,3.47,0,0,0,.2-1.06c.12.12,0,.31.16.4,0,0,.06-.07.06-.1,0-.31,0-.62,0-.93a.69.69,0,0,1,.13-.5l-.2-.23c.18-.06.28,0,.3.13a3,3,0,0,0,.06.42s.06.1.14.2c0-.29,0-.5,0-.74a.53.53,0,0,0,.18.28c.09-.4.09-.4.25-.4s0,.31.19.39a.92.92,0,0,0,0-.59.24.24,0,0,1,.1-.32c.07,0,.18-.1.17-.23S102.09,80.26,102,80.25ZM88.51,58.35a.79.79,0,0,0,.1.24.39.39,0,0,0,.21.13s.09-.1.17-.2c-.19,0-.29,0-.28-.2s.22-.21.36-.29c.05.14.05.32.26.3l-.29.44s-.05.07-.06.06c-.22-.09-.28.16-.46.21a.68.68,0,0,1-.16-.58S88.44,58.4,88.51,58.35Zm-23.23-2.5,0-.4.33.09C65.52,55.76,65.52,55.76,65.28,55.85ZM76.22,25l-.16-.48.22-.11A.86.86,0,0,1,76.22,25Zm4.93,8.45c-.28-.24-.28-.33,0-.61,0,.2.08.39.31.43ZM91.9,85.33c-.05,0-.07,0-.07-.06a.92.92,0,0,0-.33-.9c-.12-.13-.23-.28-.34-.42s0-.09,0-.16a1.07,1.07,0,0,1,.14.16,2.07,2.07,0,0,0,.51.59.26.26,0,0,1,.09.12A1.92,1.92,0,0,1,91.9,85.33Zm7-1.88H98.7c.09,0,0-.46.16-.82C99,82.86,98.92,83.17,98.93,83.45Z"/><path class="cls-5" d="M61.69,84.16l-.1,0,.09.38.07,0Z"/><path class="cls-5" d="M59.28,72.55l-.05.08.29.15,0-.07Z"/><path class="cls-5" d="M97.14,70.17c.13.15.31.25.32.49,0,.07.08.13.13.2s.11.11.21.21c-.11,0-.19.07-.22,0a.56.56,0,0,1-.31-.39,1.08,1.08,0,0,0-.15-.28C97.07,70.35,97,70.27,97.14,70.17Z"/><path class="cls-5" d="M87.7,86.33,88,87.48c-.07,0-.16,0-.18,0A1.76,1.76,0,0,1,87.7,86.33Z"/><path class="cls-5" d="M102.4,81.4a1.12,1.12,0,0,1-.12-.84A.83.83,0,0,1,102.4,81.4Z"/><path class="cls-5" d="M102.62,80.27a1.85,1.85,0,0,1,.19,1A1.09,1.09,0,0,1,102.62,80.27Z"/><path class="cls-5" d="M99,84.71c.15.2.1.43.14.65,0,0,0,.11-.11.16A1.08,1.08,0,0,1,99,84.71Z"/><path class="cls-5" d="M79.81,24.8,79.73,24c.17,0,.18.12.17.2s.14.42,0,.62Z"/><path class="cls-5" d="M65.33,84.64l.34.5c-.1.12-.22.07-.31,0A.45.45,0,0,1,65.33,84.64Z"/><path class="cls-5" d="M52.89,83.56l-.08-.63C53.05,83.14,53.09,83.32,52.89,83.56Z"/><path class="cls-5" d="M82.66,30l0,0s.11,0,.13.05a1,1,0,0,1,0,.55C82.63,30.41,82.73,30.18,82.66,30Z"/><path class="cls-5" d="M82.47,31a.67.67,0,0,1-.16-.63C82.48,30.49,82.52,30.64,82.47,31Z"/><path class="cls-5" d="M83.17,36l.22.48C83.15,36.47,83.06,36.31,83.17,36Z"/><path class="cls-5" d="M57,70.93l.08.5C56.81,71.25,56.79,71.1,57,70.93Z"/><path class="cls-5" d="M85.94,37.8c-.27-.15-.28-.21-.12-.58Z"/><path class="cls-5" d="M95.92,65.77l.22.37C95.91,66.17,95.82,66,95.92,65.77Z"/><path class="cls-5" d="M91.64,42.71c0-.05.09-.11.15-.16l.17.14h-.32Z"/><g id="turbine"><rect class="cls-6" x="178.54" y="62.1" width="11.11" height="34.98"/><polygon class="cls-6" points="184.14 22.73 196.6 55.73 171.68 55.73 184.14 22.73"/><polygon class="cls-6" points="149.19 78.22 176.02 50.77 184.81 68.92 149.19 78.22"/><polygon class="cls-6" points="217.71 77.61 183.26 68.9 192.87 51.48 217.71 77.61"/><ellipse id="turbineelipse" class="cls-7" cx="184.1" cy="59.32" rx="13.02" ry="11.89"/></g><ellipse class="cls-5" cx="184.35" cy="59.56" rx="0.88" ry="0.97"/><ellipse class="cls-4" cx="183.45" cy="59.39" rx="41.3" ry="37.9"/></svg>